<svg width="258" height="237" viewBox="0 0 258 237" fill="none" xmlns="http://www.w3.org/2000/svg">
<path d="M162.445 16.4658C214.229 29.5078 227.494 78.1593 227.654 100.855C228.64 112.708 241.49 150.865 247.792 167.503C248.751 189.879 241.847 230.411 206.557 213.533C171.267 196.656 133.036 212.894 118.332 223.123C102.669 233.512 64.5324 248.056 37.293 223.123C10.0535 198.19 33.9386 150.082 49.2861 129.144C51.8434 122.272 51.8756 106.992 31.5455 100.855C11.2154 94.7175 12.5259 74.3235 15.7224 64.8937C57.9169 -25.2492 97.7141 0.163395 162.445 16.4658Z" fill="#D5EAEC" fill-opacity="0.5"/>
<rect x="49.437" y="76.7266" width="166.023" height="127.223" rx="13.5" fill="white" stroke="#3F475F" stroke-width="3"/>
<path d="M50.7773 195.457H214.189C214.189 200.051 210.465 203.776 205.87 203.776H59.0964C54.5019 203.776 50.7773 200.051 50.7773 195.457Z" fill="#EAEBEF"/>
<path d="M9.2975 69.4541C9.23731 72.3058 10.763 77.9299 17.3473 77.6122C14.664 77.4679 9.2975 78.8685 9.2975 85.626C9.46587 82.8224 8.05547 77.2946 1.06689 77.6122C3.90675 77.8288 9.52866 76.5004 9.2975 69.4541Z" stroke="#0E8793" stroke-width="2" stroke-linecap="round" stroke-linejoin="round"/>
<path d="M195.45 21.3511C195.376 24.8628 197.255 31.7886 205.363 31.3974C202.059 31.2196 195.45 32.9444 195.45 41.2659C195.658 37.8134 193.921 31.0062 185.315 31.3974C188.812 31.6641 195.735 30.0283 195.45 21.3511Z" stroke="#A9D5D6" stroke-width="2" stroke-linecap="round" stroke-linejoin="round"/>
<rect x="50.7773" y="141.077" width="163.412" height="8.31905" fill="#EAEBEF"/>
<rect x="99.9614" y="134.201" width="25.7513" height="16.1295" rx="8.06475" transform="rotate(90 99.9614 134.201)" stroke="#3F475F" stroke-width="3"/>
<rect x="181.913" y="134.201" width="25.7513" height="16.1295" rx="8.06475" transform="rotate(90 181.913 134.201)" stroke="#3F475F" stroke-width="3"/>
<path d="M47.937 90.2266C47.937 81.9423 54.6527 75.2266 62.937 75.2266H201.96C210.244 75.2266 216.96 81.9423 216.96 90.2266V141.659H47.937V90.2266Z" fill="#FFAB00"/>
<path d="M50.002 140.455H214.189" stroke="#3F475F" stroke-width="3"/>
<path d="M132.096 139.972L132.096 204.79" stroke="#3F475F" stroke-width="3"/>
<path d="M103.2 68.2542C94.048 67.0921 94.0305 71.9764 94.0303 75.4266H108.375C111.353 73.1021 111.613 69.6765 111.371 68.2542C111.08 56.9961 120.147 52.9108 124.717 52.2755H138.245C149.957 53.4557 153.497 62.9887 152.862 68.2542C152.353 72.4666 154.587 74.7909 155.767 75.4266H170.566C171.219 68.2358 164.664 67.6488 161.305 68.2542C159.635 49.7329 145.235 44.8001 138.245 44.6489H124.717C107.866 46.5373 103.351 61.1726 103.2 68.2542Z" fill="#F6FBFB" stroke="#3F475F" stroke-width="3"/>
<rect x="79.0776" y="135.786" width="25.7513" height="9.79084" rx="4.89542" fill="white" stroke="#3F475F" stroke-width="3"/>
<rect x="161.029" y="135.786" width="25.7513" height="9.79084" rx="4.89542" fill="white" stroke="#3F475F" stroke-width="3"/>
<path d="M223.576 205.67C224.404 205.67 225.076 204.999 225.076 204.17C225.076 203.342 224.404 202.67 223.576 202.67V205.67ZM38.1802 205.67H223.576V202.67H38.1802V205.67Z" fill="#3F475F"/>
<path d="M226.881 204.286H232.095" stroke="#3F475F" stroke-width="3" stroke-linecap="round" stroke-linejoin="round"/>
<rect x="91.0781" y="20.5171" width="1.90984" height="10" rx="0.954921" fill="#0E8793"/>
<rect x="97.0332" y="24.562" width="1.90984" height="10" rx="0.954921" transform="rotate(90 97.0332 24.562)" fill="#0E8793"/>
<rect x="12.3701" y="165.001" width="1.90984" height="10" rx="0.954921" fill="#DEEBEA"/>
<rect x="18.3252" y="169.046" width="1.90984" height="10" rx="0.954921" transform="rotate(90 18.3252 169.046)" fill="#DEEBEA"/>
<rect x="246.592" y="102.166" width="3.04596" height="8.24693" rx="1.52298" fill="#DEEBEA"/>
<rect x="246.592" y="113.458" width="3.04596" height="8.24693" rx="1.52298" fill="#DEEBEA"/>
<rect x="257.885" y="110.413" width="3.04596" height="8.24693" rx="1.52298" transform="rotate(90 257.885 110.413)" fill="#DEEBEA"/>
<rect x="246.592" y="110.413" width="3.04596" height="8.24693" rx="1.52298" transform="rotate(90 246.592 110.413)" fill="#DEEBEA"/>
<rect x="49.437" y="76.7266" width="166.023" height="127.223" rx="13.5" stroke="#3F475F" stroke-width="3"/>
</svg>
