<svg width="1122" height="618" viewBox="0 0 1122 618" fill="none" xmlns="http://www.w3.org/2000/svg">
<path d="M277.558 21.2298C281.202 20.9057 283.848 17.1598 283.468 12.863C283.087 8.56616 279.825 5.34559 276.181 5.66963C272.537 5.99366 269.891 9.7396 270.271 14.0364C270.652 18.3332 273.914 21.5538 277.558 21.2298Z" fill="#A9D5D6"/>
<path d="M920.889 45.7803C920.889 45.7803 822.558 -20.5349 639.508 45.7803C603.686 58.2877 546.909 82.6511 493.713 81.4786C468.638 81.0877 422.965 58.8089 382.845 50.9918C335.918 43.6958 286.663 53.7278 251.557 78.7426C183.496 127.078 204.81 177.759 204.81 177.759C204.81 177.759 225.945 209.94 173.108 225.444C120.27 240.948 64.9256 334.363 167.913 401.85C261.588 458.134 224.87 482.367 222.363 504.646C213.049 530.703 212.153 609.916 416.517 617.343C620.881 624.769 950.263 530.051 950.263 530.051C950.263 530.051 1069.73 494.874 1061.31 396.509C1057.91 355.599 980.89 328.109 955.278 320.161C885.067 299.446 873.604 270.002 873.604 270.002C873.604 270.002 863.395 234.043 950.979 180.886C1019.22 103.367 920.889 45.7803 920.889 45.7803Z" fill="#A9D5D6"/>
<path d="M435.963 33.4254C439.801 26.7635 435.005 16.7879 425.253 11.1442C415.5 5.50044 404.483 6.32581 400.645 12.9877C396.807 19.6495 401.603 29.6252 411.355 35.2689C421.108 40.9126 432.125 40.0873 435.963 33.4254Z" fill="#A9D5D6"/>
<path d="M676.113 54.6254C679.443 52.1265 679.808 46.9749 676.928 43.119C674.048 39.2632 669.013 38.1631 665.682 40.6621C662.352 43.161 661.987 48.3126 664.867 52.1684C667.748 56.0243 672.782 57.1243 676.113 54.6254Z" fill="#A9D5D6"/>
<path d="M700.269 64.7965C703.927 64.7965 706.893 61.6493 706.893 57.767C706.893 53.8848 703.927 50.7375 700.269 50.7375C696.611 50.7375 693.645 53.8848 693.645 57.767C693.645 61.6493 696.611 64.7965 700.269 64.7965Z" fill="#A9D5D6"/>
<path d="M430.934 178.669C434.578 178.345 437.224 174.599 436.844 170.302C436.463 166.005 433.201 162.785 429.557 163.109C425.913 163.433 423.267 167.179 423.647 171.476C424.028 175.772 427.29 178.993 430.934 178.669Z" fill="#A9D5D6"/>
<path d="M453.534 191.435C457.178 191.111 459.824 187.365 459.444 183.068C459.063 178.771 455.801 175.55 452.157 175.874C448.513 176.198 445.867 179.944 446.247 184.241C446.628 188.538 449.89 191.759 453.534 191.435Z" fill="#A9D5D6"/>
<path d="M1018.01 299.904C1019.05 293.299 1016.44 287.401 1012.19 286.73C1007.94 286.059 1003.65 290.869 1002.61 297.473C1001.58 304.078 1004.18 309.976 1008.43 310.647C1012.68 311.318 1016.97 306.508 1018.01 299.904Z" fill="#A9D5D6"/>
<path d="M1046.81 239.445C1047.72 233.622 1045.02 228.357 1040.77 227.686C1036.52 227.015 1032.33 231.191 1031.41 237.015C1030.5 242.838 1033.2 248.103 1037.45 248.774C1041.71 249.445 1045.89 245.269 1046.81 239.445Z" fill="#A9D5D6"/>
<path d="M1034.2 289.196C1034.84 285.148 1032.94 281.486 1029.97 281.016C1026.99 280.546 1024.06 283.447 1023.43 287.495C1022.79 291.543 1024.69 295.205 1027.66 295.675C1030.64 296.145 1033.57 293.244 1034.2 289.196Z" fill="#A9D5D6"/>
<path d="M1052.4 287.851C1054.12 284.133 1053.3 280.09 1050.56 278.82C1047.83 277.551 1044.22 279.536 1042.5 283.254C1040.78 286.972 1041.6 291.015 1044.33 292.284C1047.07 293.554 1050.68 291.569 1052.4 287.851Z" fill="#A9D5D6"/>
<path d="M1044.5 111.052C1045.34 108.15 1044.28 105.298 1042.14 104.682C1040 104.066 1037.6 105.919 1036.76 108.82C1035.93 111.722 1036.99 114.574 1039.13 115.19C1041.26 115.807 1043.67 113.954 1044.5 111.052Z" fill="#A9D5D6"/>
<path d="M1064.94 257.258C1068.04 248.901 1066.73 240.706 1062.03 238.953C1057.32 237.201 1050.99 242.555 1047.9 250.912C1044.8 259.269 1046.1 267.464 1050.81 269.216C1055.52 270.968 1061.85 265.614 1064.94 257.258Z" fill="#A9D5D6"/>
<path d="M455.359 511.364C459.31 509.652 460.688 504.038 458.438 498.825C456.188 493.613 451.162 490.775 447.212 492.487C443.262 494.2 441.883 499.814 444.133 505.027C446.383 510.239 451.409 513.077 455.359 511.364Z" fill="#A9D5D6"/>
<path d="M1079.98 410.61C1082.52 405.13 1081.88 399.439 1078.56 397.897C1075.24 396.355 1070.5 399.547 1067.96 405.026C1065.43 410.506 1066.07 416.197 1069.39 417.739C1072.7 419.281 1077.45 416.089 1079.98 410.61Z" fill="#A9D5D6"/>
<path d="M411.25 476.258C414.195 475.622 415.959 472.201 415.189 468.616C414.418 465.032 411.407 462.641 408.461 463.277C405.516 463.913 403.753 467.334 404.523 470.918C405.293 474.503 408.305 476.893 411.25 476.258Z" fill="#A9D5D6"/>
<path d="M1048.32 85.3C1050.95 78.2236 1050.24 71.4318 1046.74 70.1301C1043.24 68.8283 1038.28 73.5095 1035.66 80.5858C1033.04 87.6622 1033.75 94.454 1037.24 95.7557C1040.74 97.0575 1045.7 92.3763 1048.32 85.3Z" fill="#A9D5D6"/>
<path d="M456.03 475.486C462.908 471.053 462.916 458.782 456.049 448.079C449.181 437.376 438.038 432.293 431.16 436.726C424.282 441.159 424.273 453.43 431.141 464.133C438.009 474.836 449.152 479.919 456.03 475.486Z" fill="#A9D5D6"/>
<path d="M1019.2 262.546C1025.66 248.587 1023.66 233.913 1014.75 229.771C1005.83 225.63 993.368 233.588 986.913 247.547C980.458 261.506 982.454 276.18 991.37 280.322C1000.29 284.463 1012.75 276.505 1019.2 262.546Z" fill="#A9D5D6"/>
<path d="M441.994 219.34C446.097 216.695 446.434 209.895 442.748 204.15C439.062 198.406 432.748 195.892 428.645 198.537C424.543 201.181 424.205 207.981 427.891 213.726C431.577 219.471 437.891 221.984 441.994 219.34Z" fill="#A9D5D6"/>
<path d="M744.678 468.214C744.678 468.214 818.307 399.281 848.561 277.625C878.815 155.968 894.489 62.8065 1042.66 5.98795C1042.66 5.98795 1051.23 2.57543 1040.84 20.1499C1040.84 20.1499 1008.03 50.5214 991.629 139.759C975.226 228.996 988.895 313.456 895.4 413.955C801.905 514.454 773.291 541.242 773.291 541.242L759.44 549.432L736.112 473.162L744.678 468.214Z" fill="#DEEBEA"/>
<path d="M565.909 381.405C560.124 372.381 544.002 347.103 544.002 347.103C544.002 347.103 484.943 243.488 428.771 196.98C372.6 150.471 336.789 20.7567 336.789 20.7567C336.789 20.7567 329.28 13.2996 329.857 30.9611C330.579 48.6227 319.605 124.175 339.532 205.418C359.459 286.661 414.042 352.793 442.922 386.35C471.802 419.907 507.613 468.378 507.613 468.378L525.519 489.768L552.955 455.23L558.442 415.198C558.442 415.198 593.659 410.51 587.052 404.465C580.444 398.42 571.694 390.429 565.909 381.405Z" fill="#DEEBEA"/>
<path d="M386.289 335.619C377.106 326.842 299.71 252.551 194.282 259.867C88.8532 267.183 195.233 280.324 237.409 329.757C237.409 329.757 278.041 366.396 305.811 426.194C333.581 485.992 379.924 517.547 379.924 517.547C379.924 517.547 392.526 529.908 440.656 544.502C488.787 559.095 490.646 508.468 490.646 508.468C490.646 508.468 460.747 471.232 455.78 462.31C450.813 453.387 434.959 404.606 428.087 392.997C421.087 381.172 395.472 344.395 386.289 335.619Z" fill="#DEEBEA"/>
<path d="M901.544 445.445C913.363 432.02 942.847 392.854 1009.61 362.523C1076.37 332.192 1104.68 251.483 1104.68 251.483C1104.68 251.483 1112.08 202.277 1120.14 251.483C1128.19 300.689 1107.54 372.416 1107.54 372.416C1107.54 372.416 1081.82 438.676 1044.16 469.007C1006.49 499.337 942.327 522.769 942.327 522.769L889.725 532.142L882.321 511.704L815.559 517.224C815.559 517.224 889.725 458.869 901.544 445.445Z" fill="#DEEBEA"/>
<path d="M812.682 296.666C816.03 289.426 814.946 281.792 810.26 279.615C805.574 277.438 799.061 281.543 795.713 288.784C792.365 296.024 793.449 303.658 798.135 305.835C802.821 308.012 809.334 303.907 812.682 296.666Z" fill="#DDE9E8"/>
<path d="M566.942 230.384C571.044 227.739 570.596 219.713 565.94 212.457C561.284 205.2 554.184 201.462 550.081 204.106C545.978 206.75 546.427 214.777 551.083 222.033C555.739 229.289 562.839 233.028 566.942 230.384Z" fill="#DDE9E8"/>
<path d="M211.073 336.94C213.838 335.741 214.44 330.972 212.418 326.287C210.397 321.602 206.516 318.776 203.751 319.974C200.986 321.173 200.383 325.943 202.405 330.628C204.427 335.313 208.308 338.139 211.073 336.94Z" fill="#DDE9E8"/>
<path d="M443.312 490.91C445.921 489.4 445.972 484.593 443.426 480.172C440.879 475.752 436.7 473.392 434.091 474.902C431.482 476.412 431.431 481.219 433.978 485.64C436.524 490.06 440.703 492.42 443.312 490.91Z" fill="#DDE9E8"/>
<path d="M722.754 284.848C725.439 279.042 724.766 273.013 721.252 271.38C717.737 269.748 712.712 273.13 710.027 278.936C707.343 284.741 708.016 290.771 711.53 292.403C715.044 294.036 720.07 290.653 722.754 284.848Z" fill="#DDE9E8"/>
<path d="M767.699 122.662C768.532 119.761 767.475 116.909 765.338 116.293C763.201 115.676 760.794 117.529 759.96 120.431C759.127 123.333 760.185 126.185 762.321 126.801C764.458 127.417 766.866 125.564 767.699 122.662Z" fill="#DDE9E8"/>
<path d="M786.165 108.643C787.553 103.807 786.331 99.2093 783.436 98.3744C780.541 97.5395 777.068 100.783 775.68 105.62C774.292 110.456 775.513 115.053 778.408 115.888C781.304 116.723 784.776 113.479 786.165 108.643Z" fill="#DDE9E8"/>
<path d="M702.142 279.632C703.862 275.914 703.039 271.87 700.306 270.601C697.572 269.331 693.963 271.316 692.243 275.034C690.524 278.752 691.346 282.795 694.08 284.065C696.813 285.335 700.423 283.35 702.142 279.632Z" fill="#DDE9E8"/>
<path d="M350.163 308.992C352.928 307.793 353.992 304.094 352.54 300.728C351.088 297.363 347.669 295.607 344.904 296.806C342.139 298.005 341.074 301.704 342.527 305.07C343.979 308.435 347.398 310.191 350.163 308.992Z" fill="#DDE9E8"/>
<path d="M362.36 360.184C366.825 357.306 366.355 348.601 361.311 340.74C356.267 332.878 348.559 328.839 344.094 331.716C339.63 334.594 340.099 343.299 345.143 351.161C350.187 359.022 357.896 363.062 362.36 360.184Z" fill="#DDE9E8"/>
<path d="M789.041 76.0905C792.563 66.588 791.602 57.4642 786.895 55.7118C782.188 53.9595 775.518 60.2422 771.996 69.7447C768.474 79.2472 769.435 88.371 774.142 90.1233C778.849 91.8757 785.519 85.593 789.041 76.0905Z" fill="#DDE9E8"/>
<path d="M466.282 111.397C469.359 109.414 469.966 104.865 467.638 101.237C465.31 97.6088 460.929 96.2753 457.852 98.2586C454.775 100.242 454.167 104.791 456.495 108.419C458.823 112.047 463.205 113.381 466.282 111.397Z" fill="#DDE9E8"/>
<path d="M480.123 151.844C484.226 149.199 484.123 141.712 479.894 135.121C475.665 128.53 468.911 125.33 464.808 127.975C460.705 130.619 460.808 138.106 465.037 144.697C469.266 151.288 476.021 154.488 480.123 151.844Z" fill="#DDE9E8"/>
<g clip-path="url(#clip0)">
<path d="M782.771 492.306C782.771 492.306 808.792 513.89 865.732 514.544C922.978 515.198 945.019 514.544 945.019 514.544L947.468 532.531H915.63C915.63 532.531 869.711 536.783 848.282 536.456C826.853 536.129 796.853 528.607 796.853 528.607L774.199 525.337L763.485 514.544L765.628 492.633H782.771" fill="#F0C798"/>
<path d="M183.37 378.189C183.37 378.189 187.35 324.228 111.124 298.392C111.124 298.392 106.226 296.757 107.757 307.222C109.287 317.687 146.023 368.378 169.594 391.598L183.37 378.189Z" fill="#0E8793" stroke="#0E8793" stroke-miterlimit="10" stroke-linecap="round" stroke-linejoin="round"/>
<path d="M105.613 530.242C105.613 530.242 67.6536 494.268 2.44849 543.324C2.44849 543.324 -1.8373 546.594 7.0404 551.827C15.612 557.059 75.6129 556.405 107.45 550.519L105.613 530.242Z" fill="#0E8793" stroke="#0E8793" stroke-miterlimit="10" stroke-linecap="round" stroke-linejoin="round"/>
<path d="M600 556.72C600 556.72 592.971 573.738 449.091 568.178C449.091 568.178 311.945 563.927 310.415 563.6C308.884 563.273 296.639 561.965 287.455 558.04C278.271 554.116 189.494 433.439 166.535 395.83L186.739 376.535C186.739 376.535 277.353 440.634 300.313 495.576C300.313 495.576 310.721 518.142 333.681 509.639C333.681 509.639 408.988 497.211 425.213 490.671C443.274 483.803 471.438 459.929 508.786 456.986C546.134 454.043 562.664 470.067 562.664 470.067L593.277 485.111L600 556.72Z" fill="#3F475F" stroke="#3F475F" stroke-miterlimit="10" stroke-linecap="round" stroke-linejoin="round"/>
<path d="M287.454 558.041C287.454 558.041 136.532 553.462 103.777 551.827V525.664C103.777 525.664 239.698 509.639 254.698 519.45C254.698 519.45 280.413 555.424 287.454 558.041Z" fill="#3F475F" stroke="#3F475F" stroke-miterlimit="10" stroke-linecap="round" stroke-linejoin="round"/>
<path d="M966.752 491.325C966.752 491.325 859.608 489.69 834.811 494.595C834.811 494.595 830.219 495.576 828.995 497.866C827.77 500.482 821.648 545.94 827.77 559.348C827.77 559.348 830.525 561.311 832.974 561.965C835.423 562.292 892.976 564.581 993.998 561.965C993.998 561.965 1002.26 558.04 1000.12 547.575C997.977 537.11 966.752 491.325 966.752 491.325Z" fill="#B58D38"/>
<path d="M866 501.831L877.481 540.416C877.591 540.786 877.631 541.185 877.803 541.531C877.981 541.891 878.363 542.344 879.179 542.64C880.583 543.149 955.326 541.094 967.827 540.746C968.979 540.714 970.15 540.109 969.967 538.971C969.917 538.655 969.802 538.302 969.592 537.921C968.792 536.473 953.167 510.053 949.099 503.178C948.487 502.143 947.799 500.868 946.602 500.758C946.342 500.734 946.039 500.721 945.686 500.721" fill="#A78233"/>
<path d="M966.447 488.708C966.447 476.608 1013.9 383.73 1017.88 381.113C1021.86 378.17 1024 372.937 1030.43 373.919C1036.86 375.227 1079.1 395.176 1079.1 395.176C1079.1 395.176 1087.06 402.698 1082.78 410.874C1078.18 419.05 1020.02 544.959 1007.47 549.21C994.916 553.462 966.447 500.809 966.447 488.708Z" fill="#F8D07B"/>
<path d="M808.971 334.721C808.971 334.721 818.035 356.111 815.497 375.855C815.497 375.855 819.485 386.056 830 390.993C830 390.993 826.737 397.574 822.386 400.536C818.035 403.497 826.374 410.079 815.135 418.306C815.135 418.306 818.398 437.721 804.257 437.721C785.766 434.759 772 432.221 772 432.221L768 424.558L768.725 403.168L808.971 334.721Z" fill="#F0C798" stroke="#F0C798" stroke-miterlimit="10" stroke-linecap="round" stroke-linejoin="round"/>
<path d="M795.273 516.787C795.273 516.787 801.091 531.322 817.933 531.322C834.775 531.322 928.479 531.322 928.479 531.322C928.479 531.322 941.953 515.576 956.958 516.787C974.106 517.191 970.432 524.055 970.432 524.055C970.432 524.055 964.92 528.496 956.958 528.496C948.384 530.111 960.939 536.975 960.939 536.975H980.231C980.231 536.975 984.212 540.609 980.231 545.454C975.944 549.491 964.307 566.045 943.79 553.528C943.79 553.528 908.269 551.106 883.771 557.97C859.273 564.833 836.613 567.66 799.254 566.448C799.254 566.448 784.555 564.43 772 541.416L795.273 516.787Z" fill="#F0C798"/>
<path d="M761.014 454.142C761.014 454.142 777.74 478.76 779.883 489.225L781.545 497.866C781.851 498.847 804.505 518.469 805.423 520.104C806.342 521.74 806.036 523.048 805.423 523.375C804.811 523.702 773.28 551.827 772.055 552.481C770.831 553.135 770.219 553.135 769.606 552.481C768.994 551.827 757.361 538.418 756.137 538.418C754.912 538.418 747.418 551.827 746.5 552.481C745.582 553.135 676.849 560.003 676.849 560.003C676.849 560.003 602.154 567.198 600.93 567.198C599.705 567.198 599.093 566.217 599.093 564.908C599.093 563.6 599.093 562.946 599.093 562.946C599.093 562.946 599.705 514.872 589.603 504.407C579.807 494.268 761.014 454.142 761.014 454.142Z" fill="#0E8793" stroke="#0E8793" stroke-miterlimit="10" stroke-linecap="round" stroke-linejoin="round"/>
<path d="M783.235 499.017C776.374 492.287 768.303 470.416 758.586 456.085C749.174 441.762 761.31 453.747 761.31 453.747C761.31 453.747 773.524 469.678 785 492.58C786.476 495.526 783.315 496.074 783.235 499.017Z" fill="#23686E"/>
<path d="M763.177 452.716C763.177 452.716 777.565 443.232 774.81 402.679C774.81 402.679 775.422 396.138 784.606 386.981C793.79 377.824 827.464 339.561 797.463 316.015C767.462 292.468 740.217 301.298 740.217 301.298C740.217 301.298 723.38 302.933 698.278 339.561C673.175 376.189 650.215 371.611 650.215 371.611C650.215 371.611 588.071 364.089 560.52 403.66C532.968 443.232 572.765 491.96 572.765 491.96C572.765 491.96 623.276 534.475 666.746 504.388C710.217 474.3 699.502 477.898 710.217 474.627C720.931 471.357 742.666 470.376 763.177 452.716Z" fill="#FFAB00"/>
<path d="M574.5 493.221C574.5 493.221 572 492.721 566.643 483.13C546.628 447.29 571.848 412.163 634.298 402.679C690.932 394.176 690.013 388.616 690.013 388.616C690.013 388.616 702.564 384.365 716.646 354.604C730.728 324.844 760.423 300.643 776.341 302.933L789.505 309.8C789.505 309.8 752.463 309.8 731.034 355.585C709.605 401.371 692.156 404.641 692.156 404.641C692.156 404.641 669.809 411.182 650.523 411.836C618.379 413.798 554 431.721 574.5 493.221Z" fill="#E69A00"/>
<path d="M785.22 309.474C784.607 308.493 780.628 298.354 772.668 301.952C765.934 304.895 769.301 316.341 769.301 316.341C769.301 316.341 775.424 312.417 785.22 309.474Z" fill="#4F9A99"/>
<path d="M285.618 557.713C285.618 557.713 262.964 535.148 252.862 519.123L250.413 515.853H246.74C246.74 515.853 264.801 544.959 280.72 558.368H285.618V557.713Z" fill="#354059"/>
</g>
<defs>
<clipPath id="clip0">
<rect width="1084" height="277" fill="white" transform="matrix(-1 0 0 1 1084 295.757)"/>
</clipPath>
</defs>
</svg>
