<svg width="215" height="531" viewBox="0 0 215 531" fill="none" xmlns="http://www.w3.org/2000/svg">
<path d="M-41.6565 367.278C-41.6565 367.278 12.8706 312.628 35.2754 216.179C57.6801 119.73 69.2873 45.8707 179.016 0.824965C179.016 0.824965 185.36 -1.88049 177.667 12.0526C177.667 12.0526 153.372 36.1311 141.225 106.879C129.078 177.626 139.201 244.586 69.9621 324.262C0.723492 403.937 -20.4665 425.175 -20.4665 425.175L-30.7241 431.668L-48 371.201L-41.6565 367.278Z" fill="#CBE9EA"/>
<path d="M-14.6634 440.63C-14.6634 440.63 28.2565 385.979 97.6302 354.461C167.004 322.942 196.427 239.073 196.427 239.073C196.427 239.073 204.12 187.94 212.488 239.073C220.856 290.206 199.396 364.742 199.396 364.742C199.396 364.742 172.673 433.595 133.532 465.114C94.391 496.632 27.7167 520.981 27.7167 520.981L-26.9455 530.721L-34.6387 509.483L-12.7738 455.51L-14.6634 440.63Z" fill="#CBE9EA"/>
</svg>
