<svg width="329" height="365" viewBox="0 0 329 365" fill="none" xmlns="http://www.w3.org/2000/svg">
<circle cx="5.07955" cy="5.49825" r="3.55489" fill="#CBE9EA"/>
<circle cx="5.07955" cy="41.0476" r="3.55489" fill="#CBE9EA"/>
<circle cx="5.07955" cy="76.5959" r="3.55489" fill="#CBE9EA"/>
<circle cx="5.07955" cy="112.145" r="3.55489" fill="#CBE9EA"/>
<circle cx="5.07955" cy="147.694" r="3.55489" fill="#CBE9EA"/>
<circle cx="5.07955" cy="183.243" r="3.55489" fill="#CBE9EA"/>
<circle cx="5.07955" cy="218.792" r="3.55489" fill="#CBE9EA"/>
<circle cx="5.07955" cy="254.341" r="3.55489" fill="#CBE9EA"/>
<circle cx="5.07955" cy="289.889" r="3.55489" fill="#CBE9EA"/>
<circle cx="40.6291" cy="5.49825" r="3.55489" fill="#CBE9EA"/>
<circle cx="40.6291" cy="41.0476" r="3.55489" fill="#CBE9EA"/>
<circle cx="40.6291" cy="76.5959" r="3.55489" fill="#CBE9EA"/>
<circle cx="40.6291" cy="112.145" r="3.55489" fill="#CBE9EA"/>
<circle cx="40.6291" cy="147.694" r="3.55489" fill="#CBE9EA"/>
<circle cx="40.6291" cy="183.243" r="3.55489" fill="#CBE9EA"/>
<circle cx="40.6291" cy="218.792" r="3.55489" fill="#CBE9EA"/>
<circle cx="40.6291" cy="254.341" r="3.55489" fill="#CBE9EA"/>
<circle cx="76.1779" cy="5.49825" r="3.55489" fill="#CBE9EA"/>
<circle cx="76.1779" cy="41.0476" r="3.55489" fill="#CBE9EA"/>
<circle cx="76.1779" cy="76.5959" r="3.55489" fill="#CBE9EA"/>
<circle cx="76.1779" cy="112.145" r="3.55489" fill="#CBE9EA"/>
<circle cx="76.1779" cy="147.694" r="3.55489" fill="#CBE9EA"/>
<circle cx="76.1779" cy="183.243" r="3.55489" fill="#CBE9EA"/>
<circle cx="76.1779" cy="218.792" r="3.55489" fill="#CBE9EA"/>
<circle cx="111.727" cy="5.49825" r="3.55489" fill="#CBE9EA"/>
<circle cx="111.727" cy="41.0476" r="3.55489" fill="#CBE9EA"/>
<circle cx="111.727" cy="76.5959" r="3.55489" fill="#CBE9EA"/>
<circle cx="111.727" cy="112.145" r="3.55489" fill="#CBE9EA"/>
<circle cx="111.727" cy="147.694" r="3.55489" fill="#CBE9EA"/>
<circle cx="111.727" cy="183.243" r="3.55489" fill="#CBE9EA"/>
<circle cx="147.276" cy="5.49825" r="3.55489" fill="#CBE9EA"/>
<circle cx="147.276" cy="41.0476" r="3.55489" fill="#CBE9EA"/>
<circle cx="147.276" cy="76.5959" r="3.55489" fill="#CBE9EA"/>
<circle cx="147.276" cy="112.145" r="3.55489" fill="#CBE9EA"/>
<circle cx="147.276" cy="147.694" r="3.55489" fill="#CBE9EA"/>
<circle cx="182.824" cy="5.49825" r="3.55489" fill="#CBE9EA"/>
<circle cx="182.824" cy="41.0476" r="3.55489" fill="#CBE9EA"/>
<circle cx="182.824" cy="76.5959" r="3.55489" fill="#CBE9EA"/>
<circle cx="182.824" cy="112.145" r="3.55489" fill="#CBE9EA"/>
<circle cx="218.373" cy="5.49825" r="3.55489" fill="#CBE9EA"/>
<circle cx="218.373" cy="41.0476" r="3.55489" fill="#CBE9EA"/>
<circle cx="218.373" cy="76.5959" r="3.55489" fill="#CBE9EA"/>
<circle cx="253.922" cy="5.49825" r="3.55489" fill="#CBE9EA"/>
<circle cx="253.922" cy="41.0476" r="3.55489" fill="#CBE9EA"/>
<circle cx="289.471" cy="5.49825" r="3.55489" fill="#CBE9EA"/>
</svg>
