<svg width="225" height="560" viewBox="0 0 225 560" fill="none" xmlns="http://www.w3.org/2000/svg">
<path d="M289.926 249.613L276.429 226.481C276.429 226.481 221.227 155.057 168.725 122.998C116.222 90.938 82.7498 1.52278 82.7498 1.52278C82.7498 1.52278 75.7315 -3.61758 76.2713 8.55695C76.9462 20.7315 66.6886 72.8114 85.3142 128.814C103.94 184.817 154.958 230.404 181.951 253.536C208.945 276.667 242.417 310.08 242.417 310.08L259.153 324.824L284.797 301.016L289.926 273.421V249.613Z" fill="#CBE9EA"/>
<path d="M232.565 327.53C232.565 327.53 157.522 236.897 47.7932 232.433C-61.9359 227.969 46.4435 253.671 84.3696 309.538C84.3696 309.538 122.161 352.014 144.025 416.945C165.89 481.876 210.16 519.752 210.16 519.752C210.16 519.752 221.767 533.956 269.816 554.517C317.865 575.078 325.558 522.998 325.558 522.998L289.656 469.025C289.656 469.025 246.061 397.465 245.387 395.707C244.712 393.813 232.565 327.53 232.565 327.53Z" fill="#CBE9EA"/>
</svg>
