<svg width="721" height="666" viewBox="0 0 721 666" fill="none" xmlns="http://www.w3.org/2000/svg">
<g clip-path="url(#clip0)">
<path d="M268.165 50.041C272.153 43.1184 267.17 32.7522 257.035 26.8875C246.901 21.0229 235.452 21.8806 231.464 28.8032C227.476 35.7259 232.459 46.0921 242.594 51.9568C252.728 57.8214 264.177 56.9637 268.165 50.041Z" fill="#A9D5D6"/>
<path d="M289.104 40.8972C292.565 38.3003 292.944 32.9469 289.951 28.94C286.958 24.9331 281.726 23.79 278.265 26.3869C274.805 28.9837 274.425 34.3371 277.418 38.344C280.411 42.3509 285.643 43.494 289.104 40.8972Z" fill="#A9D5D6"/>
<path d="M314.206 51.4664C318.008 51.4664 321.089 48.1959 321.089 44.1617C321.089 40.1274 318.008 36.8569 314.206 36.8569C310.405 36.8569 307.323 40.1274 307.323 44.1617C307.323 48.1959 310.405 51.4664 314.206 51.4664Z" fill="#A9D5D6"/>
<path d="M103.558 37.3683C107.345 37.0315 110.095 33.1389 109.699 28.6738C109.304 24.2088 105.914 20.8621 102.127 21.1989C98.3403 21.5356 95.5909 25.4282 95.9862 29.8933C96.3815 34.3584 99.7717 37.705 103.558 37.3683Z" fill="#A9D5D6"/>
<path d="M34.3255 169.798C38.1123 169.461 40.8616 165.569 40.4664 161.104C40.0711 156.638 36.6809 153.292 32.8941 153.629C29.1074 153.965 26.358 157.858 26.7533 162.323C27.1486 166.788 30.5388 170.135 34.3255 169.798Z" fill="#A9D5D6"/>
<path d="M57.8104 183.063C61.5972 182.726 64.3465 178.833 63.9512 174.368C63.556 169.903 60.1658 166.556 56.379 166.893C52.5922 167.23 49.8429 171.123 50.2382 175.588C50.6334 180.053 54.0237 183.399 57.8104 183.063Z" fill="#A9D5D6"/>
<path d="M644.388 295.779C645.466 288.916 642.759 282.787 638.342 282.089C633.924 281.392 629.468 286.39 628.389 293.253C627.31 300.116 630.017 306.246 634.435 306.943C638.853 307.641 643.309 302.642 644.388 295.779Z" fill="#A9D5D6"/>
<path d="M674.315 232.953C675.266 226.902 672.455 221.431 668.037 220.733C663.619 220.036 659.267 224.376 658.316 230.427C657.365 236.479 660.175 241.95 664.593 242.647C669.011 243.345 673.363 239.004 674.315 232.953Z" fill="#A9D5D6"/>
<path d="M661.216 284.652C661.878 280.446 659.907 276.64 656.814 276.152C653.721 275.663 650.678 278.678 650.017 282.884C649.356 287.091 651.327 290.896 654.42 291.385C657.512 291.873 660.555 288.859 661.216 284.652Z" fill="#A9D5D6"/>
<path d="M680.121 283.254C681.908 279.391 681.054 275.189 678.213 273.87C675.373 272.55 671.622 274.613 669.835 278.476C668.048 282.34 668.903 286.542 671.743 287.861C674.584 289.181 678.335 287.118 680.121 283.254Z" fill="#A9D5D6"/>
<path d="M671.918 99.532C672.783 96.5166 671.685 93.553 669.464 92.9126C667.244 92.2722 664.742 94.1976 663.876 97.213C663.01 100.228 664.109 103.192 666.329 103.832C668.55 104.473 671.052 102.547 671.918 99.532Z" fill="#A9D5D6"/>
<path d="M693.158 251.462C696.377 242.778 695.021 234.262 690.13 232.441C685.238 230.62 678.664 236.184 675.446 244.868C672.227 253.552 673.583 262.068 678.475 263.889C683.366 265.71 689.94 260.146 693.158 251.462Z" fill="#A9D5D6"/>
<path d="M59.7061 515.519C63.8109 513.739 65.2433 507.906 62.9055 502.489C60.5677 497.072 55.3449 494.123 51.24 495.903C47.1352 497.682 45.7028 503.516 48.0406 508.933C50.3784 514.35 55.6012 517.299 59.7061 515.519Z" fill="#A9D5D6"/>
<path d="M708.787 410.819C711.42 405.125 710.758 399.21 707.309 397.608C703.86 396.006 698.93 399.323 696.297 405.017C693.664 410.71 694.325 416.625 697.775 418.227C701.224 419.829 706.154 416.512 708.787 410.819Z" fill="#A9D5D6"/>
<path d="M13.8707 479.037C16.9313 478.377 18.7637 474.822 17.9635 471.097C17.1632 467.372 14.0334 464.888 10.9728 465.549C7.91225 466.209 6.07986 469.764 6.8801 473.489C7.68033 477.214 10.8101 479.698 13.8707 479.037Z" fill="#A9D5D6"/>
<path d="M675.889 72.7726C678.615 65.4192 677.879 58.3615 674.245 57.0088C670.612 55.6561 665.457 60.5206 662.731 67.874C660.006 75.2274 660.742 82.2851 664.376 83.6378C668.009 84.9905 673.164 80.126 675.889 72.7726Z" fill="#A9D5D6"/>
<path d="M60.4036 478.236C67.551 473.629 67.5598 460.878 60.4233 449.756C53.2869 438.634 41.7075 433.352 34.5601 437.959C27.4128 442.565 27.4039 455.316 34.5404 466.438C41.6769 477.561 53.2563 482.843 60.4036 478.236Z" fill="#A9D5D6"/>
<path d="M645.627 256.958C652.335 242.452 650.262 227.204 640.996 222.9C631.731 218.597 618.782 226.867 612.074 241.372C605.366 255.878 607.44 271.126 616.705 275.43C625.971 279.734 638.92 271.464 645.627 256.958Z" fill="#A9D5D6"/>
<path d="M45.8178 212.06C50.0812 209.312 50.4322 202.245 46.6019 196.275C42.7716 190.306 36.2104 187.694 31.947 190.442C27.6837 193.19 27.3326 200.257 31.1629 206.226C34.9933 212.196 41.5545 214.808 45.8178 212.06Z" fill="#A9D5D6"/>
<path d="M614.78 42.4034C614.78 42.4034 540.682 -26.4503 402.745 42.4034C375.751 55.3896 332.966 80.6856 292.881 79.4681C273.985 79.0623 239.568 55.9307 209.336 47.8143C173.974 40.2391 136.858 50.655 110.404 76.6274C59.116 126.814 75.1772 179.435 75.1772 179.435C75.1772 179.435 91.1034 212.847 51.2878 228.944C11.4722 245.042 -30.233 342.032 47.3737 412.103C117.962 470.541 90.2936 495.702 88.4041 518.833C81.3857 545.888 80.7109 628.134 234.71 635.844C388.708 643.555 636.915 545.212 636.915 545.212C636.915 545.212 726.938 508.688 720.595 406.557C718.031 364.082 659.994 335.539 640.694 327.288C587.786 305.779 579.148 275.208 579.148 275.208C579.148 275.208 571.455 237.872 637.455 182.681C688.877 102.194 614.78 42.4034 614.78 42.4034Z" fill="#A9D5D6"/>
<path d="M464.426 367.058C464.426 367.058 518.953 312.408 541.357 215.958C563.762 119.509 575.369 45.65 685.098 0.604262C685.098 0.604262 691.442 -2.10119 683.749 11.8319C683.749 11.8319 659.455 35.9104 647.307 106.658C635.16 177.406 645.283 244.365 576.044 324.041C506.806 403.717 485.616 424.954 485.616 424.954L475.358 431.447L458.082 370.981L464.426 367.058Z" fill="#CBE9EA"/>
<path d="M289.911 263.574L276.414 240.443C276.414 240.443 221.213 169.019 168.71 136.959C116.207 104.899 82.7352 15.4842 82.7352 15.4842C82.7352 15.4842 75.7168 10.3438 76.2567 22.5184C76.9315 34.6929 66.674 86.7729 85.2996 142.776C103.925 198.779 154.943 244.365 181.937 267.497C208.93 290.629 242.403 324.041 242.403 324.041L259.139 338.786L284.783 314.978L289.911 287.382V263.574Z" fill="#CBE9EA"/>
<path d="M232.55 341.491C232.55 341.491 157.508 250.858 47.7785 246.394C-61.9506 241.93 46.4289 267.632 84.3549 323.5C84.3549 323.5 122.146 365.975 144.011 430.906C165.876 495.837 210.145 533.713 210.145 533.713C210.145 533.713 221.753 547.917 269.801 568.478C317.85 589.04 325.543 536.96 325.543 536.96L289.642 482.986C289.642 482.986 246.047 411.427 245.372 409.668C244.697 407.775 232.55 341.491 232.55 341.491Z" fill="#CBE9EA"/>
<path d="M404.77 201.213C404.77 201.213 391.948 161.984 329.052 191.609C292.476 212.847 289.912 255.187 289.912 255.187C289.912 255.187 285.053 288.329 255.9 311.731C226.747 335.133 209.741 332.293 196.919 361.917C184.097 391.542 202.722 424.278 202.722 424.278C202.722 424.278 195.704 492.455 268.857 514.234C342.009 536.013 306.648 496.919 306.648 496.919L308.537 453.903L366.844 392.218L404.635 372.333L427.714 361.376L425.15 318.901L447.015 258.434C447.15 258.434 450.929 220.828 404.77 201.213Z" fill="#FFAB00"/>
<path d="M491.419 447.409C491.419 447.409 534.339 392.759 603.713 361.241C673.086 329.722 702.509 245.853 702.509 245.853C702.509 245.853 710.203 194.72 718.571 245.853C726.939 296.986 705.479 371.521 705.479 371.521C705.479 371.521 678.755 440.375 639.614 471.894C600.473 503.412 533.799 527.761 533.799 527.761L479.137 537.501L471.444 516.263L493.309 462.289L491.419 447.409Z" fill="#CBE9EA"/>
<path d="M484.536 437.805L489.395 450.386H462.401C462.401 450.386 473.873 442.134 484.536 437.805Z" fill="#F0C798"/>
<path d="M330.034 658.946C330.948 659.295 330.818 660.541 329.856 660.72C319.184 662.714 283.421 667.907 259.875 653.361C259.834 653.336 259.794 653.315 259.753 653.292C259.27 653.023 256.373 650.965 267.507 645.072C277.823 639.612 318.692 654.601 330.034 658.946Z" fill="#0E8793"/>
<path d="M417.569 657.985C417.342 658.569 417.66 659.207 418.278 659.312C427.664 660.907 492.056 670.913 515.732 649.562C515.773 649.525 515.809 649.496 515.855 649.465C516.706 648.893 525.915 642.413 520.228 633.719C520.154 633.606 520.06 633.511 519.941 633.447C518.037 632.416 499.396 623.838 426.335 636.825C425.991 636.886 425.692 637.124 425.565 637.449L417.569 657.985Z" fill="#0E8793"/>
<path d="M302.544 542.425C302.283 542.485 302.08 542.509 301.813 542.519C294.578 542.775 186.584 547.13 180.453 579.029C174.304 611.721 240.048 637.511 241.305 638.001C241.344 638.017 241.343 638.015 241.383 638.029L267.436 647.182C267.483 647.199 267.486 647.201 267.534 647.215C269.044 647.679 333.062 667.179 412.428 665.399C414.003 665.364 415.416 664.397 416.02 662.942L425.837 639.306C426.41 637.927 427.629 636.987 429.115 636.839C449.494 634.806 595.979 618.102 603.26 557.399C603.293 557.124 603.351 556.853 603.405 556.582C604.152 552.865 606.274 524.388 496.008 524.515C382.812 524.645 308.232 541.13 302.544 542.425Z" fill="#3F475F"/>
<path d="M388.034 605.273L393.972 599.726L432.978 617.853L434.463 635.574L426.77 636.926L428.794 624.616L388.034 605.273Z" fill="#354059"/>
<path d="M404.769 201.213L398.831 191.879C398.831 191.879 321.764 193.367 307.862 261.004C295.445 322.147 289.911 320.794 289.911 320.794C289.911 320.794 284.783 334.321 253.335 347.849C221.887 361.376 195.434 392.218 196.513 409.668L202.722 424.413C202.722 424.413 205.286 383.966 253.335 363.405C301.384 342.844 305.973 324.176 305.973 324.176C305.973 324.176 314.071 300.233 316.23 279.13C319.874 244.636 333.911 205.677 404.769 201.213Z" fill="#E69A00"/>
<path d="M381.96 203.783C381.96 202.701 380.475 193.232 389.383 192.015C396.941 191.068 399.641 201.349 399.641 201.349C399.641 201.349 392.353 201.484 381.96 203.783Z" fill="#4F9A99"/>
<path d="M318.93 578.624L330.537 529.384C330.537 529.384 334.856 492.726 344.979 467.971C355.101 443.216 375.347 447.545 375.347 447.545L486.965 447.68C518.683 445.515 510.585 472.029 510.585 472.029C510.585 472.029 485.076 566.043 482.646 570.913C480.217 575.783 476.438 575.783 476.438 575.783C303.543 584.846 318.93 578.624 318.93 578.624Z" fill="#F8D07B"/>
<path d="M319.2 578.894C319.2 578.894 307.457 561.444 304.623 546.97L323.924 558.062L319.2 578.894Z" fill="#B58D38"/>
<path d="M323.789 580.653L421.101 578.894C421.101 578.894 391.813 600.132 388.033 605.272L323.789 580.653Z" fill="#2F384E"/>
<path d="M266.022 437.805C266.022 437.805 243.347 499.489 280.464 528.032C317.445 556.439 324.193 559.821 324.193 559.821L330.402 530.873C330.402 530.873 280.869 495.702 301.114 455.661L266.022 437.805Z" fill="#F0C798"/>
<path d="M418.941 223.127C418.941 223.127 379.8 277.778 348.353 268.714C325.543 264.791 332.966 294.416 348.353 291.846C348.353 291.846 352.807 316.33 370.218 324.041C370.218 324.041 374.672 351.772 354.156 350.689C354.156 350.689 367.653 401.687 418.941 356.777C418.941 356.777 408.684 342.708 413.812 324.041C413.812 324.041 431.763 324.041 443.91 288.599C443.91 288.599 457.407 287.923 458.082 269.932C458.082 269.932 457.137 262.492 446.07 261.41C446.07 261.545 414.352 241.795 418.941 223.127Z" fill="#F0C798"/>
<path d="M462.195 354.763C465.674 347.24 464.547 339.307 459.678 337.045C454.808 334.783 448.04 339.048 444.561 346.572C441.082 354.096 442.209 362.029 447.078 364.291C451.948 366.553 458.715 362.287 462.195 354.763Z" fill="#DDE9E8"/>
<path d="M355.785 354.581C354.108 352.777 351.404 350.627 348.947 350.801C337.733 351.599 309.428 354.874 298.819 367.869C287.488 381.611 267.691 418.806 261.629 430.39C260.614 432.33 261.369 434.706 263.304 435.731L304.109 457.354C304.361 457.487 304.615 457.628 304.753 457.878C305.515 459.259 307.606 466.494 306.678 504.095C306.659 504.868 306.859 505.651 307.292 506.292C309.199 509.113 315.337 517.551 325.653 525.818C327.867 527.592 331.101 526.366 331.741 523.602L343.89 471.119C343.896 471.094 343.897 471.09 343.902 471.065C344.076 470.277 350.607 441.801 386.279 447.004L464.557 447.938C465.266 447.946 465.965 447.766 466.581 447.416L484.167 437.424C485.739 436.531 486.516 434.696 486.064 432.946L472.929 382.075C472.928 382.073 472.929 382.074 472.928 382.073C472.918 382.032 466.332 356.559 421.938 355.456C420.742 355.426 419.58 355.95 418.712 356.773C415.305 360.006 405.258 367.894 388.708 367.463C373.026 367.052 360.613 359.776 355.785 354.581Z" fill="#0E8793"/>
<path d="M304.51 458.048C304.496 457.737 304.627 457.438 304.865 457.237L309.711 453.157C310.341 452.627 311.305 453.042 311.353 453.864L314.827 512.796C314.885 513.775 313.646 514.244 313.041 513.472L306.844 505.558C306.716 505.394 306.642 505.195 306.633 504.987L304.51 458.048Z" fill="#23686E"/>
<path d="M450.2 447.68C449.408 447.68 448.93 446.803 449.36 446.137L450.64 444.155C450.992 443.609 451.764 443.539 452.209 444.013L454.071 445.995C454.67 446.634 454.218 447.68 453.342 447.68H450.2Z" fill="#23686E"/>
<path d="M348.758 350.825C348.758 350.825 349.298 367.869 383.85 373.686C415.162 376.526 427.174 355.695 427.174 355.695L419.886 355.424C419.886 355.424 403.69 370.033 388.573 367.463C373.592 364.893 363.604 363.135 353.482 350.554C343.359 337.974 353.482 350.554 353.482 350.554L348.758 350.825Z" fill="#23686E"/>
<path d="M263.11 188.99C265.302 186.964 264.867 182.918 262.139 179.952C259.411 176.986 255.422 176.223 253.23 178.249C251.038 180.275 251.472 184.321 254.201 187.287C256.929 190.253 260.918 191.015 263.11 188.99Z" fill="#CBE9EA"/>
<path d="M278.535 223.537C282.798 220.789 282.332 212.448 277.494 204.908C272.656 197.367 265.277 193.482 261.014 196.23C256.751 198.978 257.217 207.318 262.055 214.859C266.893 222.399 274.272 226.285 278.535 223.537Z" fill="#CBE9EA"/>
<path d="M127.994 427.789C130.867 426.543 131.493 421.587 129.392 416.718C127.291 411.85 123.258 408.913 120.385 410.159C117.511 411.405 116.885 416.361 118.986 421.229C121.088 426.098 125.12 429.034 127.994 427.789Z" fill="#CBE9EA"/>
<path d="M192.67 546.221C195.381 544.652 195.433 539.656 192.787 535.063C190.141 530.469 185.798 528.017 183.087 529.586C180.376 531.155 180.323 536.151 182.969 540.744C185.615 545.338 189.958 547.79 192.67 546.221Z" fill="#CBE9EA"/>
<path d="M483.053 332.091C485.842 326.058 485.143 319.792 481.491 318.096C477.839 316.399 472.617 319.915 469.827 325.947C467.038 331.98 467.737 338.246 471.389 339.942C475.041 341.639 480.263 338.123 483.053 332.091Z" fill="#CBE9EA"/>
<path d="M529.758 163.555C530.624 160.54 529.525 157.576 527.305 156.936C525.084 156.296 522.582 158.221 521.716 161.236C520.851 164.252 521.949 167.215 524.17 167.856C526.39 168.496 528.892 166.571 529.758 163.555Z" fill="#CBE9EA"/>
<path d="M548.946 148.987C550.389 143.961 549.119 139.184 546.111 138.316C543.102 137.449 539.494 140.819 538.051 145.845C536.608 150.871 537.877 155.648 540.886 156.516C543.895 157.383 547.503 154.013 548.946 148.987Z" fill="#CBE9EA"/>
<path d="M461.634 326.67C463.42 322.807 462.566 318.605 459.725 317.286C456.885 315.966 453.134 318.029 451.347 321.892C449.561 325.756 450.415 329.958 453.255 331.277C456.096 332.597 459.847 330.534 461.634 326.67Z" fill="#CBE9EA"/>
<path d="M588.054 325.651C589.558 322.397 588.859 318.868 586.492 317.769C584.125 316.669 580.987 318.415 579.482 321.669C577.977 324.923 578.677 328.451 581.044 329.551C583.411 330.65 586.549 328.904 588.054 325.651Z" fill="#CBE9EA"/>
<path d="M580.074 345.24C582.943 340.258 582.444 334.585 578.958 332.567C575.472 330.55 570.32 332.954 567.45 337.935C564.58 342.917 565.08 348.591 568.566 350.608C572.051 352.625 577.204 350.222 580.074 345.24Z" fill="#CBE9EA"/>
<path d="M95.8732 367.572C98.7465 366.326 99.8524 362.482 98.3432 358.985C96.8339 355.488 93.2811 353.663 90.4078 354.909C87.5344 356.154 86.4286 359.999 87.9378 363.496C89.447 366.993 92.9998 368.818 95.8732 367.572Z" fill="#CBE9EA"/>
<path d="M108.548 410.377C113.187 407.386 112.699 398.34 107.458 390.171C102.216 382.002 94.2062 377.804 89.5666 380.794C84.9271 383.785 85.4151 392.831 90.6566 401C95.8981 409.169 103.908 413.367 108.548 410.377Z" fill="#CBE9EA"/>
<path d="M551.935 115.16C555.594 105.285 554.596 95.804 549.705 93.9831C544.814 92.1621 537.882 98.6909 534.222 108.565C530.562 118.44 531.561 127.921 536.452 129.742C541.343 131.563 548.275 125.034 551.935 115.16Z" fill="#CBE9EA"/>
<path d="M81.4486 172.632C84.6461 170.571 85.2771 165.844 82.8579 162.074C80.4388 158.304 75.8856 156.918 72.688 158.979C69.4905 161.04 68.8595 165.767 71.2787 169.537C73.6978 173.307 78.251 174.693 81.4486 172.632Z" fill="#CBE9EA"/>
<path d="M95.8317 214.662C100.095 211.914 99.9885 204.134 95.5937 197.285C91.1989 190.435 84.1801 187.111 79.9167 189.858C75.6534 192.606 75.7599 200.386 80.1547 207.236C84.5495 214.085 91.5683 217.41 95.8317 214.662Z" fill="#CBE9EA"/>
</g>
<defs>
<clipPath id="clip0">
<rect width="721" height="665" fill="white" transform="translate(0 0.46875)"/>
</clipPath>
</defs>
</svg>
