<svg width="35" height="35" viewBox="0 0 35 35" fill="none" xmlns="http://www.w3.org/2000/svg">
<g>
<path d="M17.5 35C27.165 35 35 27.165 35 17.5C35 7.83502 27.165 0 17.5 0C7.83502 0 0 7.83502 0 17.5C0 27.165 7.83502 35 17.5 35Z" fill="#75B73B"/>
<path d="M24.6257 10.3788C23.611 10.1251 22.1189 9.24872 21.1531 8.89742C17.382 7.71898 12.3147 8.66172 10.9005 13.022C10.7827 13.1399 10.547 13.1399 10.4291 13.1399C7.6008 16.4395 9.48636 20.4463 9.25065 24.0995C9.1702 25.3873 8.49303 26.526 7.62158 27.4893L14.9553 34.8153C15.7862 34.9363 16.6355 35.0001 17.4999 35.0001C26.1429 35.0001 33.3218 28.7339 34.7433 20.4969L24.6257 10.3788Z" fill="#52891D"/>
<path d="M17.0101 7.41354C11.6761 7.66729 7.46689 12.1096 7.48296 17.4494C7.48788 19.0759 7.88053 20.611 8.57329 21.9677L7.50982 27.1298C7.45233 27.4091 7.70417 27.6536 7.98157 27.5878L13.0398 26.3895C14.3394 27.0369 15.7991 27.4107 17.3439 27.4343C22.7957 27.5176 27.3415 23.1888 27.5116 17.739C27.6936 11.8971 22.8722 7.13429 17.0101 7.41354ZM23.0458 22.9645C21.5645 24.4458 19.5948 25.2617 17.4998 25.2617C16.2731 25.2617 15.0986 24.9864 14.0089 24.4437L13.3047 24.0928L10.2032 24.8274L10.856 21.6585L10.5091 20.9788C9.94334 19.871 9.65651 18.6732 9.65651 17.4184C9.65651 15.3233 10.4724 13.3538 11.9537 11.8724C13.4217 10.4042 15.4235 9.57527 17.4999 9.57527C19.5947 9.57527 21.5644 10.3911 23.0457 11.8724C24.527 13.3537 25.3429 15.3234 25.3429 17.4182C25.343 19.4947 24.5139 21.4964 23.0458 22.9645Z" fill="white"/>
<path d="M22.3613 19.5908L20.421 19.0337C20.1661 18.9606 19.8913 19.033 19.7054 19.2224L19.2308 19.7057C19.0308 19.9097 18.7273 19.9751 18.4625 19.868C17.5446 19.4965 15.6138 17.7797 15.121 16.9213C14.9785 16.6735 15.0021 16.364 15.1768 16.1377L15.591 15.6019C15.7533 15.392 15.7874 15.1099 15.6802 14.8672L14.8639 13.021C14.6684 12.5788 14.1033 12.45 13.7341 12.7623C13.1927 13.2204 12.5501 13.9162 12.4721 14.6873C12.3344 16.0468 12.9175 17.7603 15.1219 19.818C17.6688 22.1954 19.7084 22.5092 21.0365 22.1876C21.7898 22.0053 22.3918 21.274 22.7714 20.6751C23.0306 20.2665 22.8258 19.7243 22.3613 19.5908Z" fill="white"/>
<path d="M24.3363 10.0972L22.8171 11.6543C22.8944 11.7257 22.9714 11.7975 23.0462 11.8724C24.5275 13.3537 25.3433 15.3234 25.3433 17.4182C25.3433 19.4946 24.5143 21.4962 23.0462 22.9645C21.5649 24.4457 19.5952 25.2616 17.5002 25.2616C16.2735 25.2616 15.0991 24.9863 14.0093 24.4436L13.3051 24.0927L10.2036 24.8273L10.2678 24.5161L7.52148 27.3306C7.58205 27.5126 7.77476 27.6365 7.98182 27.5875L13.0401 26.3891C14.3397 27.0366 15.7993 27.4103 17.3441 27.4339C22.796 27.5173 27.3419 23.1885 27.5119 17.7386C27.6059 14.7216 26.3653 11.9926 24.3363 10.0972Z" fill="#D1D1D1"/>
<path d="M22.3614 19.5907L20.4211 19.0337C20.1662 18.9606 19.8914 19.033 19.7055 19.2224L19.2309 19.7057C19.0309 19.9096 18.7274 19.9751 18.4626 19.8679C17.9324 19.6534 17.0646 18.9899 16.3308 18.3022L14.9819 19.6848C15.0282 19.7291 15.0744 19.7733 15.1221 19.818C17.6689 22.1954 19.7086 22.5092 21.0367 22.1876C21.79 22.0053 22.3919 21.274 22.7716 20.6751C23.0307 20.2665 22.8259 19.7243 22.3614 19.5907Z" fill="#D1D1D1"/>
</g>
<defs>
<rect width="35" height="35" fill="white"/>
</defs>
</svg>
