<svg width="35" height="35" viewBox="0 0 35 35" fill="none" xmlns="http://www.w3.org/2000/svg">
<g clip-path="url(#clip0)">
<path d="M17.5009 34.9999C27.1659 34.9999 35.0008 27.1649 35.0008 17.4999C35.0008 7.83499 27.1659 0 17.5009 0C7.83596 0 0.000976562 7.83499 0.000976562 17.4999C0.000976562 27.1649 7.83596 34.9999 17.5009 34.9999Z" fill="#4E598F"/>
<path d="M34.9722 16.5226L26.7297 8.27744C26.5931 8.31879 26.2524 8.16027 26.1026 8.19035C22.5673 8.7796 19.1498 8.19035 15.7323 9.13309C14.0824 9.60449 13.9646 11.6078 13.3754 12.9041C12.5505 15.261 12.6683 17.8536 11.6077 20.0926C10.9006 21.6246 9.2508 22.5674 8.66154 24.3351C8.46501 25.0723 8.47663 26.0016 8.25439 26.7064L16.5245 34.9726C16.8475 34.9903 17.1725 35.0001 17.4999 35.0001C27.1648 35.0001 34.9998 27.1651 34.9998 17.5002C34.9999 17.1721 34.9901 16.8462 34.9722 16.5226Z" fill="#364270"/>
<path d="M24.8171 7.4834H10.1824C8.69157 7.4834 7.48291 8.69199 7.48291 10.1829V24.8176C7.48291 26.3085 8.6915 27.5171 10.1824 27.5171H17.4L17.4125 20.3584H15.5525C15.3108 20.3584 15.1146 20.1628 15.1138 19.9211L15.1047 17.6134C15.1037 17.3705 15.3007 17.1729 15.5435 17.1729H17.4003V14.9432C17.4003 12.3556 18.9806 10.9467 21.2889 10.9467H23.1831C23.4253 10.9467 23.6219 11.1431 23.6219 11.3855V13.3312C23.6219 13.5736 23.4255 13.7701 23.1834 13.7701L22.0208 13.7708C20.7656 13.7708 20.5223 14.3672 20.5223 15.2428V17.1732H23.2807C23.5437 17.1732 23.7476 17.4027 23.7165 17.6635L23.443 19.9712C23.4169 20.1922 23.2296 20.3585 23.0072 20.3585H20.5348L20.5223 27.5175H24.817C26.3078 27.5175 27.5165 26.3087 27.5165 24.8179V10.1829C27.5166 8.69205 26.3079 7.4834 24.8171 7.4834Z" fill="white"/>
<path d="M17.4 27.5171L17.4125 20.3584H17.3818V27.5171H17.4Z" fill="white"/>
<path d="M24.8175 7.4834H17.3823V17.1727H17.4007V14.943C17.4007 12.3555 18.981 10.9465 21.2892 10.9465H23.1835C23.4257 10.9465 23.6223 11.143 23.6223 11.3854V13.3311C23.6223 13.5735 23.4259 13.77 23.1837 13.77L22.0212 13.7707C20.766 13.7707 20.5227 14.3671 20.5227 15.2426V17.173H23.2811C23.5441 17.173 23.748 17.4025 23.7169 17.6633L23.4434 19.971C23.4173 20.192 23.23 20.3583 23.0076 20.3583H20.5352L20.5227 27.5173H24.8174C26.3082 27.5173 27.5169 26.3085 27.5169 24.8177V10.1829C27.517 8.69205 26.3083 7.4834 24.8175 7.4834Z" fill="#D1D1D1"/>
</g>
<defs>
<clipPath id="clip0">
<rect width="35" height="35" fill="white"/>
</clipPath>
</defs>
</svg>
