<svg width="20" height="21" viewBox="0 0 20 21" fill="none" xmlns="http://www.w3.org/2000/svg">
<g>
<path d="M15.0173 7.87919C14.9904 6.78841 14.0954 5.90918 12.9984 5.90918C11.8844 5.90918 10.9781 6.81547 10.9781 7.92944C10.9781 9.05029 11.8997 9.97215 13.04 9.9486C12.4042 11.8212 10.9199 13.3055 9.04728 13.9413C9.07074 12.8032 8.15143 11.8794 7.02807 11.8794C5.9141 11.8794 5.00781 12.7857 5.00781 13.8997C5.00781 15.0379 5.94894 15.92 7.00308 15.92C11.6183 15.92 15.1429 12.0064 15.0173 7.87919Z" fill="black"/>
<path d="M17.0699 3.8392C13.1629 -0.0678527 6.83865 -0.0684392 2.93104 3.8392C-0.976051 7.74622 -0.976677 14.0705 2.93104 17.9781C6.8381 21.8852 13.1623 21.8858 17.0699 17.9781C20.977 14.0711 20.9776 7.74681 17.0699 3.8392ZM10.0004 19.264C5.3933 19.264 1.64509 15.5158 1.64509 10.9086C1.64509 6.3015 5.3933 2.55333 10.0004 2.55333C14.6076 2.55333 18.3558 6.30154 18.3558 10.9087C18.3558 15.5158 14.6076 19.264 10.0004 19.264Z" fill="black"/>
</g>
<defs>
<rect width="20" height="20" fill="white" transform="translate(0 0.908203)"/>
</defs>
</svg>
