<svg width="20" height="22" viewBox="0 0 20 22" fill="none" xmlns="http://www.w3.org/2000/svg">
<g clip-path="url(#clip0)">
<path d="M19.0127 18.1515C19.5208 17.4077 20 14.0081 20 11.1372C20 8.46171 19.5473 4.9138 19.0151 4.12627C18.9164 3.98066 18.7826 3.87627 18.6351 3.81813C15.0618 2.40858 2.24554 2.72943 1.06025 4.02898C0.999662 4.09539 0.937236 4.19044 0.896871 4.29271C0.237653 5.95874 0 9.23025 0 11.1372C0 13.0536 0.246728 16.376 0.899844 17.9884C0.93974 18.087 0.999661 18.1788 1.06044 18.2454C2.24898 19.5479 15.0652 19.8645 18.6351 18.4563C18.785 18.3971 18.9162 18.2925 19.0127 18.1515ZM12.9492 11.1372L17.9129 6.2252C18.5022 9.11854 18.5109 13.1128 17.913 16.0494L12.9492 11.1372ZM16.6766 5.08834L10 11.6954L3.32335 5.08834C6.86558 4.44203 13.1158 4.43861 16.6766 5.08834ZM2.08705 16.0493C1.49781 13.156 1.48905 9.16164 2.08698 6.22516L7.05079 11.1372L2.08705 16.0493ZM3.32347 17.1861L8.24339 12.3174L9.43428 13.4959C9.75137 13.8096 10.2487 13.8096 10.5658 13.4959L11.7566 12.3174L16.6766 17.1861C13.1341 17.8324 6.88362 17.8357 3.32347 17.1861Z" fill="black"/>
</g>
<defs>
<clipPath id="clip0">
<rect width="20" height="20.8333" fill="white" transform="translate(0 0.720703)"/>
</clipPath>
</defs>
</svg>
