<svg width="30" height="31" viewBox="0 0 30 31" fill="none" xmlns="http://www.w3.org/2000/svg">
<g>
<path d="M10.9375 22.7358V28.5333C10.9375 28.9383 11.1975 29.2971 11.5825 29.4246C11.6787 29.4558 11.7775 29.4708 11.875 29.4708C12.1675 29.4708 12.45 29.3333 12.63 29.0883L16.0212 24.4733L10.9375 22.7358Z" fill="white"/>
<path d="M29.6058 0.894076C29.3183 0.690326 28.9408 0.662826 28.6283 0.826576L0.503317 15.5141C0.170817 15.6878 -0.0254327 16.0428 0.00206732 16.4166C0.0308173 16.7916 0.279567 17.1116 0.633317 17.2328L8.45207 19.9053L25.1033 5.66783L12.2183 21.1916L25.3221 25.6703C25.4196 25.7028 25.5221 25.7203 25.6246 25.7203C25.7946 25.7203 25.9633 25.6741 26.1121 25.5841C26.3496 25.4391 26.5108 25.1953 26.5521 24.9216L29.9896 1.79658C30.0408 1.44658 29.8933 1.09908 29.6058 0.894076Z" fill="white"/>
</g>
<defs>
<rect width="30" height="30" fill="white" transform="translate(0 0.720947)"/>
</defs>
</svg>
