<svg width="35" height="35" viewBox="0 0 35 35" fill="none" xmlns="http://www.w3.org/2000/svg">
<g>
<path d="M17.5 35C27.165 35 35 27.165 35 17.5C35 7.83502 27.165 0 17.5 0C7.83502 0 0 7.83502 0 17.5C0 27.165 7.83502 35 17.5 35Z" fill="#7AA5DA"/>
<path d="M34.9946 17.0954L27.2261 9.33984L14.5723 24.7638L23.6835 33.875C30.2964 31.3764 34.9998 24.988 34.9998 17.5002C34.9998 17.3648 34.9977 17.2299 34.9946 17.0954Z" fill="#5786B5"/>
<path d="M26.2306 9.1271C26.9283 8.8549 27.6495 9.46535 27.4963 10.1983L24.3675 25.154C24.2213 25.8552 23.3976 26.171 22.8202 25.7468L18.097 22.2798L15.6894 24.7381C15.2663 25.1694 14.5369 24.9938 14.3554 24.4187L12.6184 18.9047L7.96227 17.5294C7.35066 17.3491 7.31532 16.4983 7.90806 16.2661L26.2306 9.1271ZM23.9338 12.4456C24.1377 12.2653 23.9008 11.9471 23.6698 12.0909L13.62 18.3237C13.4432 18.4333 13.3619 18.6489 13.4243 18.8481L14.7949 24.8664C14.822 24.9584 14.9539 24.9454 14.9658 24.85L15.2721 20.2635C15.2839 20.1503 15.3381 20.0466 15.423 19.9712L23.9338 12.4456Z" fill="white"/>
<path d="M23.6701 12.0909C23.9011 11.9472 24.138 12.2653 23.9341 12.4457L15.4234 19.9713C15.3386 20.0467 15.2843 20.1504 15.2725 20.2635L14.9661 24.85C14.9544 24.9454 14.8224 24.9584 14.7952 24.8665L13.4247 18.8481C13.3622 18.649 13.4436 18.4333 13.6203 18.3237L23.6701 12.0909Z" fill="#9EC2E5"/>
<path d="M14.8444 24.9289C14.6229 24.8499 14.4355 24.6731 14.3554 24.4186L12.6184 18.9046L7.96227 17.5293C7.35066 17.349 7.31532 16.4982 7.90806 16.266L26.2306 9.12704C26.6807 8.95142 27.1415 9.14351 27.369 9.49946C27.3265 9.43465 27.2759 9.37456 27.2193 9.32152L14.789 19.4691V19.9134L14.7206 19.8639L14.789 22.6616V24.9054C14.8067 24.9136 14.8255 24.9207 14.8444 24.9265V24.9289H14.8444Z" fill="white"/>
<path d="M27.5163 9.94754C27.5199 10.0277 27.514 10.1125 27.4963 10.1986L24.3675 25.1543C24.2214 25.8554 23.3976 26.1713 22.8202 25.747L18.097 22.28L14.7891 19.9137V19.4695L27.2194 9.32178C27.2759 9.37482 27.3266 9.43491 27.369 9.49972C27.3773 9.51387 27.3855 9.52679 27.3938 9.53978C27.4008 9.55393 27.4091 9.56808 27.4162 9.581C27.4232 9.59515 27.4304 9.6093 27.4362 9.62345C27.4433 9.63876 27.4492 9.65291 27.4551 9.66822C27.4598 9.68121 27.4657 9.69529 27.4704 9.71067C27.4857 9.75661 27.4975 9.80378 27.5058 9.85327C27.5105 9.8839 27.514 9.91459 27.5163 9.94754Z" fill="#D1D1D1"/>
<path d="M18.0969 22.2803L15.6894 24.7386C15.6693 24.7586 15.6481 24.7786 15.6269 24.7964C15.6057 24.8141 15.5844 24.8294 15.5621 24.8447C15.5609 24.8458 15.5609 24.8458 15.5609 24.8458C15.5161 24.8753 15.4702 24.9001 15.4219 24.9201C15.3971 24.9295 15.3735 24.9389 15.3488 24.9448C15.2463 24.9755 15.1414 24.9837 15.0377 24.9731C15.0106 24.9708 14.9835 24.9661 14.9576 24.9614C14.954 24.9614 14.9505 24.9602 14.947 24.959C14.9211 24.952 14.8951 24.9449 14.8692 24.9366C14.8609 24.9343 14.8527 24.9319 14.8444 24.9272L14.7891 22.6622V19.9141L18.0969 22.2803Z" fill="#D1D1D1"/>
<path d="M15.6268 24.7959C15.6056 24.8136 15.5844 24.8301 15.562 24.8454V24.8442C15.5844 24.8289 15.6056 24.8136 15.6268 24.7959Z" fill="#DADDE0"/>
<path d="M15.5622 24.8442V24.8454C15.5622 24.8454 15.5622 24.8442 15.561 24.8454C15.561 24.8454 15.561 24.8454 15.5622 24.8442Z" fill="#DADDE0"/>
<path d="M15.4219 24.9195C15.4702 24.8994 15.5161 24.8747 15.5609 24.8452C15.5161 24.8746 15.469 24.8994 15.4219 24.9195Z" fill="#DADDE0"/>
<path d="M15.0376 24.9726C15.1413 24.9832 15.2462 24.975 15.3487 24.9443C15.2745 24.9679 15.1978 24.9785 15.1213 24.9785C15.0977 24.9785 15.0741 24.9774 15.0517 24.975C15.047 24.975 15.0423 24.975 15.0376 24.9726Z" fill="#DADDE0"/>
<path d="M15.1218 24.9787C15.0982 24.9787 15.0746 24.9775 15.0522 24.9751C15.0746 24.9775 15.0982 24.9787 15.1218 24.9787Z" fill="white"/>
<path d="M15.038 24.9729C15.0427 24.9753 15.0474 24.9753 15.0521 24.9753C15.0274 24.9741 15.005 24.9705 14.9814 24.9658C15.0002 24.9694 15.0191 24.9718 15.038 24.9729Z" fill="white"/>
<path d="M15.0376 24.9727C15.0188 24.9715 14.9999 24.9691 14.9811 24.9657C14.9728 24.9645 14.9646 24.9633 14.9575 24.9609C14.9834 24.9657 15.0105 24.9704 15.0376 24.9727Z" fill="#DADDE0"/>
<path d="M14.8691 24.936C14.895 24.9443 14.921 24.9513 14.9469 24.9585C14.9363 24.9561 14.9257 24.9537 14.9151 24.9514C14.9104 24.9503 14.9057 24.9491 14.9022 24.9467C14.8915 24.9443 14.8797 24.9408 14.8691 24.936Z" fill="#DADDE0"/>
<path d="M14.915 24.9517C14.9256 24.954 14.9362 24.9564 14.9468 24.9587C14.9362 24.9575 14.9256 24.9552 14.915 24.9517Z" fill="white"/>
<path d="M14.8692 24.9365C14.8797 24.9413 14.8916 24.9448 14.9022 24.9471C14.8845 24.9436 14.8668 24.9377 14.8491 24.9307C14.8562 24.933 14.862 24.9354 14.8692 24.9365Z" fill="white"/>
<path d="M14.8695 24.9361C14.8624 24.935 14.8565 24.9326 14.8494 24.9302C14.8483 24.9314 14.8459 24.9302 14.8447 24.9291V24.9268C14.8529 24.9314 14.8612 24.9337 14.8695 24.9361Z" fill="#DADDE0"/>
<path d="M14.7891 22.6621L14.8444 24.9271C14.8256 24.9212 14.8067 24.9141 14.7891 24.9059V22.6621Z" fill="#D1D1D1"/>
<path d="M14.7891 19.9137V22.6619L14.7207 19.8643L14.7891 19.9137Z" fill="#DADDE0"/>
<path d="M23.9337 12.4461L15.4229 19.9717C15.3381 20.0471 15.2839 20.1508 15.272 20.264L14.9662 24.8509C14.9544 24.9463 14.8224 24.9593 14.7941 24.8674L13.4242 18.8486C13.3617 18.6495 13.4431 18.4338 13.6198 18.3243L23.6697 12.0915C23.9007 11.9476 24.1376 12.2658 23.9337 12.4461Z" fill="#ADBCC9"/>
</g>
<defs>
<rect width="35" height="35" fill="white"/>
</defs>
</svg>
