<svg width="258" height="201" viewBox="0 0 258 201" fill="none" xmlns="http://www.w3.org/2000/svg">
<path d="M138.915 92.8248L144.455 84.6503C144.455 84.6503 167.111 59.41 188.659 48.0805C210.207 36.751 223.945 5.15274 223.945 5.15274C223.945 5.15274 226.826 3.3362 226.604 7.63853C226.327 11.9409 230.537 30.3453 222.893 50.136C215.248 69.9268 194.309 86.0366 183.231 94.2111C172.152 102.386 158.414 114.193 158.414 114.193L151.545 119.404L141.02 110.99L138.915 101.238V92.8248Z" fill="#CBE9EA"/>
<path d="M162.458 120.36C162.458 120.36 193.257 88.3312 238.293 86.7537C283.328 85.1762 238.847 94.2589 223.281 114.002C223.281 114.002 207.771 129.012 198.797 151.958C189.823 174.904 171.654 188.289 171.654 188.289C171.654 188.289 167.117 193.324 146.48 199.482C125.844 204.668 124.292 189.436 124.292 189.436L139.027 170.362C139.027 170.362 156.919 145.074 157.196 144.453C157.473 143.784 162.458 120.36 162.458 120.36Z" fill="#CBE9EA"/>
<path d="M124.352 97.0768L119.565 88.3915C119.565 88.3915 99.1856 61.0223 78.5602 47.607C57.9348 34.1918 47.1741 1.38114 47.1741 1.38114C47.1741 1.38114 44.4466 -0.712767 44.2485 3.59087C44.1063 7.90001 38.0562 25.7977 43.8276 46.2525C49.5991 66.7072 69.1414 84.8193 79.5154 94.0548C89.8895 103.29 102.59 116.405 102.59 116.405L109.008 122.273L120.448 114.946L123.527 105.45L124.352 97.0768Z" fill="#CBE9EA"/>
<path d="M97.717 120.36C97.717 120.36 66.4999 88.3312 20.8533 86.7537C-24.7933 85.1762 20.2919 94.2589 36.0689 114.002C36.0689 114.002 51.7897 129.012 60.8853 151.958C69.981 174.904 88.3968 188.289 88.3968 188.289C88.3968 188.289 94.2569 194.548 113.083 200.088C136.567 204.203 136.402 189.436 136.402 189.436L121.467 170.362C121.467 170.362 103.332 145.074 103.051 144.453C102.77 143.784 97.717 120.36 97.717 120.36Z" fill="#CBE9EA"/>
<path d="M206.094 142.747C205.582 142.033 203.329 141.472 201.025 141.472H58.8425C56.5385 141.472 54.2857 142.033 53.7737 142.747L27.7641 178.192C26.9961 179.314 28.6345 184.312 31.3993 184.312H228.417C231.233 184.312 232.871 179.314 232.052 178.192L206.094 142.747Z" fill="#F1F2F2"/>
<path d="M206.094 142.747C205.582 142.033 203.329 141.472 201.025 141.472H58.8425C56.5385 141.472 54.2857 142.033 53.7737 142.747L27.7641 178.192C26.9961 179.314 28.6345 180.181 31.3993 180.181H228.417C231.233 180.181 232.871 179.263 232.052 178.192L206.094 142.747Z" fill="#D1D3D4"/>
<path d="M141.531 182.119H118.337C116.955 182.119 115.879 180.997 115.879 179.671H144.039C143.988 180.997 142.862 182.119 141.531 182.119Z" fill="#D1D3D4"/>
<path d="M58.8424 141.472C57.972 141.472 57.1528 141.574 56.3848 141.676C56.9992 142.033 58.2792 142.339 59.8152 142.339H200.001C201.537 142.339 202.817 142.084 203.431 141.676C202.663 141.523 201.844 141.472 200.974 141.472H58.8424Z" fill="#A9ACAD"/>
<path d="M181.927 141.472H77.9401L77.4793 142.39C77.3769 142.645 77.8889 142.798 78.6569 142.798H181.108C181.876 142.798 182.439 142.594 182.337 142.39L181.927 141.472Z" fill="#3F3C3A"/>
<path d="M153.512 177.325L150.644 170.032C150.542 169.777 150.286 169.624 150.03 169.624H109.736C109.48 169.624 109.224 169.777 109.121 170.032L106.254 177.325C106.152 177.58 106.356 177.886 106.612 177.886H153.102C153.46 177.886 153.665 177.58 153.512 177.325Z" fill="#EDECEB"/>
<path d="M150.747 170.287L150.644 170.032C150.542 169.777 150.286 169.624 150.03 169.624H109.735C109.479 169.624 109.223 169.777 109.121 170.032L109.019 170.287H150.747Z" fill="#CECECE"/>
<g opacity="0.1">
<path opacity="0.1" d="M212.033 166.869H47.783C47.1174 166.869 46.7078 166.206 47.015 165.696L58.9446 146.469C59.4566 145.653 60.327 145.194 61.351 145.194H198.465C199.437 145.194 200.359 145.704 200.871 146.469L212.801 165.696C213.108 166.206 212.698 166.869 212.033 166.869Z" fill="#242424"/>
<path opacity="0.1" d="M212.033 166.972H47.7835C47.4251 166.972 47.1691 166.819 46.9643 166.513C46.8107 166.258 46.8107 165.952 46.9643 165.697L58.8939 146.47C59.4059 145.654 60.3275 145.144 61.3515 145.144H198.465C199.489 145.144 200.411 145.654 200.923 146.47L212.852 165.697C213.006 165.952 213.006 166.258 212.852 166.513C212.699 166.768 212.391 166.972 212.033 166.972ZM61.3515 145.297C60.3787 145.297 59.5083 145.756 58.9963 146.572L47.0667 165.799C46.9131 166.003 46.9131 166.258 47.0667 166.513C47.2203 166.768 47.4763 166.87 47.7323 166.87H211.982C212.289 166.87 212.545 166.717 212.647 166.513C212.801 166.309 212.801 166.003 212.647 165.799L200.718 146.572C200.206 145.807 199.335 145.297 198.363 145.297H61.3515Z" fill="#0C0C0C"/>
</g>
<path d="M67.9054 147.796H60.9934C60.4302 147.796 60.0718 147.184 60.3278 146.725L60.379 146.674C60.5326 146.47 60.7374 146.317 61.0446 146.317H67.9566C68.5198 146.317 68.8782 146.878 68.6222 147.337L68.571 147.388C68.4174 147.643 68.1614 147.796 67.9054 147.796Z" fill="#242424"/>
<path d="M65.9596 150.907H59.0476C58.4844 150.907 58.126 150.295 58.382 149.836L59.0988 148.612C59.2524 148.408 59.4572 148.255 59.7644 148.255H66.574C67.1372 148.255 67.4956 148.816 67.2396 149.275L66.574 150.499C66.5228 150.754 66.2668 150.907 65.9596 150.907Z" fill="#242424"/>
<path d="M69.3903 154.12H57.1023C56.5391 154.12 56.1807 153.508 56.4367 153.049L57.2559 151.672C57.4095 151.468 57.6143 151.315 57.9215 151.315H70.0559C70.6191 151.315 70.9775 151.876 70.7215 152.335L70.0559 153.712C69.9535 153.967 69.6975 154.12 69.3903 154.12Z" fill="#242424"/>
<path d="M70.3632 157.588H55.0544C54.4912 157.588 54.1328 156.976 54.3888 156.517L55.3104 154.987C55.464 154.783 55.6688 154.63 55.976 154.63H71.08C71.6432 154.63 72.0016 155.14 71.7456 155.65L71.0288 157.18C70.9264 157.435 70.6704 157.588 70.3632 157.588Z" fill="#242424"/>
<path d="M63.1947 161.209H52.8523C52.2891 161.209 51.9307 160.597 52.1867 160.138L53.2107 158.455C53.3643 158.251 53.5691 158.098 53.8763 158.098H64.0651C64.6283 158.098 64.9867 158.659 64.7307 159.118L63.8603 160.801C63.7579 161.056 63.4507 161.209 63.1947 161.209Z" fill="#242424"/>
<path d="M58.1262 165.595H50.1902C49.627 165.595 49.2686 164.983 49.5246 164.524L51.0094 162.076C51.163 161.872 51.3678 161.719 51.675 161.719H59.4574C60.0206 161.719 60.379 162.28 60.123 162.739L58.7918 165.187C58.6382 165.442 58.3822 165.595 58.1262 165.595Z" fill="#242424"/>
<path d="M69.339 165.595H61.3518C60.7886 165.595 60.4302 165.034 60.6862 164.575L61.9662 162.127C62.0686 161.872 62.3758 161.719 62.6318 161.719H70.4654C71.0286 161.719 71.387 162.229 71.131 162.688L70.0046 165.136C69.9534 165.442 69.6462 165.595 69.339 165.595Z" fill="#242424"/>
<path d="M80.6543 165.595H72.6159C72.1039 165.595 71.6943 165.085 71.8991 164.626L72.9743 162.178C73.0767 161.923 73.3839 161.719 73.6911 161.719H81.5759C82.0879 161.719 82.4463 162.178 82.2927 162.688L81.3711 165.136C81.2687 165.442 80.9615 165.595 80.6543 165.595Z" fill="#242424"/>
<path d="M164.776 165.595H153.87C153.512 165.595 153.205 165.34 153.153 164.983L152.744 162.535C152.693 162.127 153 161.719 153.461 161.719H164.161C164.52 161.719 164.827 161.923 164.878 162.28L165.544 164.728C165.595 165.187 165.237 165.595 164.776 165.595Z" fill="#242424"/>
<path d="M175.989 165.595H167.899C167.541 165.595 167.285 165.391 167.182 165.085L166.517 162.637C166.414 162.178 166.773 161.719 167.233 161.719H175.169C175.477 161.719 175.784 161.923 175.886 162.229L176.757 164.677C176.859 165.136 176.501 165.595 175.989 165.595Z" fill="#242424"/>
<path d="M198.465 165.595H190.427C190.12 165.595 189.864 165.442 189.761 165.187L188.635 162.739C188.43 162.28 188.788 161.77 189.3 161.77H197.134C197.441 161.77 197.697 161.923 197.8 162.178L199.08 164.626C199.387 165.085 199.028 165.595 198.465 165.595Z" fill="#242424"/>
<path d="M187.253 165.646H179.214C178.907 165.646 178.6 165.442 178.498 165.187L178.293 164.626C178.139 164.167 178.498 163.657 179.01 163.657H186.997C187.304 163.657 187.56 163.81 187.714 164.116L187.97 164.677C188.123 165.136 187.765 165.646 187.253 165.646Z" fill="#242424"/>
<path d="M209.678 165.646H201.742C201.435 165.646 201.179 165.493 201.076 165.238L200.769 164.677C200.513 164.218 200.872 163.657 201.435 163.657H209.32C209.576 163.657 209.832 163.81 209.985 164.014L210.344 164.575C210.6 165.034 210.241 165.646 209.678 165.646Z" fill="#242424"/>
<path d="M94.7345 165.595H83.8288C83.3168 165.595 82.9584 165.136 83.112 164.677L83.9824 162.229C84.0848 161.923 84.392 161.719 84.6992 161.719H95.4001C95.9121 161.719 96.2704 162.127 96.1168 162.586L95.5025 165.034C95.3489 165.391 95.0417 165.595 94.7345 165.595Z" fill="#242424"/>
<path d="M150.747 165.595H97.8062C97.3454 165.595 96.987 165.187 97.0894 164.728L97.7038 162.28C97.8062 161.974 98.0622 161.719 98.4206 161.719H150.337C150.696 161.719 151.003 161.974 151.054 162.331L151.464 164.779C151.566 165.238 151.208 165.595 150.747 165.595Z" fill="#242424"/>
<path d="M75.9952 150.907H69.032C68.4688 150.907 68.1104 150.346 68.3664 149.887L68.9808 148.663C69.0832 148.408 69.3904 148.255 69.6464 148.255H76.5072C77.0704 148.255 77.4288 148.765 77.1728 149.224L76.6096 150.448C76.5584 150.754 76.3024 150.907 75.9952 150.907Z" fill="#242424"/>
<path d="M86.0302 150.907H79.0158C78.5038 150.907 78.0942 150.397 78.299 149.938L78.811 148.714C78.9134 148.459 79.2206 148.255 79.5278 148.255H86.4398C86.9518 148.255 87.3102 148.714 87.1566 149.224L86.6958 150.448C86.5934 150.703 86.3374 150.907 86.0302 150.907Z" fill="#242424"/>
<path d="M95.9116 150.907H88.8972C88.3852 150.907 88.0268 150.448 88.1804 149.989L88.59 148.765C88.6924 148.459 88.9996 148.255 89.3068 148.255H96.27C96.782 148.255 97.1404 148.714 96.9868 149.173L96.6284 150.397C96.526 150.703 96.2188 150.907 95.9116 150.907Z" fill="#242424"/>
<path d="M105.896 150.907H98.8303C98.3183 150.907 97.9599 150.448 98.1135 150.04L98.4207 148.816C98.5231 148.51 98.8303 148.306 99.1375 148.306H106.101C106.562 148.306 106.92 148.714 106.818 149.173L106.562 150.397C106.562 150.652 106.254 150.907 105.896 150.907Z" fill="#242424"/>
<path d="M115.88 150.907H108.814C108.354 150.907 107.995 150.499 108.098 150.091L108.302 148.867C108.354 148.51 108.661 148.255 109.019 148.255H116.034C116.494 148.255 116.853 148.612 116.802 149.02L116.648 150.244C116.597 150.652 116.238 150.907 115.88 150.907Z" fill="#242424"/>
<path d="M125.864 150.907H118.747C118.286 150.907 117.979 150.55 117.979 150.142L118.081 148.918C118.133 148.561 118.44 148.255 118.849 148.255H125.864C126.273 148.255 126.632 148.561 126.632 148.969L126.581 150.193C126.632 150.601 126.273 150.907 125.864 150.907Z" fill="#242424"/>
<path d="M135.848 150.907H128.731C128.321 150.907 127.963 150.601 127.963 150.193V148.969C127.963 148.561 128.321 148.255 128.731 148.255H135.745C136.155 148.255 136.462 148.561 136.513 148.918L136.565 150.142C136.616 150.55 136.309 150.907 135.848 150.907Z" fill="#242424"/>
<path d="M145.729 150.907H138.613C138.203 150.907 137.896 150.601 137.845 150.244L137.742 149.02C137.691 148.612 138.049 148.255 138.51 148.255H145.525C145.883 148.255 146.241 148.51 146.293 148.867L146.446 150.091C146.549 150.55 146.19 150.907 145.729 150.907Z" fill="#242424"/>
<path d="M155.713 150.907H148.648C148.289 150.907 147.982 150.652 147.88 150.295L147.675 149.071C147.624 148.663 147.982 148.255 148.443 148.255H155.406C155.764 148.255 156.072 148.51 156.123 148.816L156.379 150.04C156.532 150.499 156.174 150.907 155.713 150.907Z" fill="#242424"/>
<path d="M165.851 150.907H158.785C158.427 150.907 158.12 150.652 158.068 150.346L157.761 149.122C157.659 148.663 158.017 148.255 158.478 148.255H165.441C165.8 148.255 166.056 148.459 166.158 148.765L166.516 149.989C166.721 150.448 166.363 150.907 165.851 150.907Z" fill="#242424"/>
<path d="M175.682 150.907H168.667C168.36 150.907 168.053 150.703 167.95 150.397L167.541 149.173C167.387 148.714 167.746 148.255 168.258 148.255H175.17C175.477 148.255 175.784 148.459 175.886 148.714L176.347 149.938C176.603 150.397 176.245 150.907 175.682 150.907Z" fill="#242424"/>
<path d="M79.6814 154.12H72.4622C71.899 154.12 71.5406 153.61 71.7966 153.1L72.4622 151.723C72.5646 151.468 72.8718 151.315 73.1278 151.315H80.2446C80.7566 151.315 81.115 151.825 80.9614 152.284L80.3982 153.661C80.2958 153.967 79.9886 154.12 79.6814 154.12Z" fill="#242424"/>
<path d="M89.9728 154.12H82.7024C82.1904 154.12 81.832 153.61 81.9856 153.151L82.4976 151.774C82.6 151.519 82.9072 151.315 83.2144 151.315H90.3824C90.8944 151.315 91.2528 151.774 91.0992 152.233L90.6384 153.61C90.5872 153.916 90.3312 154.12 89.9728 154.12Z" fill="#242424"/>
<path d="M100.11 154.12H92.8396C92.3276 154.12 91.9692 153.661 92.1228 153.202L92.5324 151.825C92.6348 151.519 92.942 151.315 93.2492 151.315H100.417C100.878 151.315 101.236 151.723 101.134 152.182L100.827 153.559C100.776 153.916 100.468 154.12 100.11 154.12Z" fill="#242424"/>
<path d="M110.401 154.12H103.08C102.619 154.12 102.26 153.712 102.363 153.253L102.67 151.876C102.721 151.57 103.028 151.315 103.387 151.315H110.606C111.067 151.315 111.425 151.723 111.374 152.131L111.169 153.508C111.118 153.865 110.811 154.12 110.401 154.12Z" fill="#242424"/>
<path d="M120.641 154.12H113.32C112.859 154.12 112.501 153.763 112.552 153.304L112.757 151.927C112.808 151.57 113.115 151.315 113.525 151.315H120.744C121.153 151.315 121.512 151.672 121.512 152.08L121.409 153.457C121.358 153.865 121.051 154.12 120.641 154.12Z" fill="#242424"/>
<path d="M130.933 154.12H123.611C123.202 154.12 122.843 153.763 122.843 153.355L122.946 151.978C122.946 151.621 123.304 151.315 123.714 151.315H130.933C131.342 151.315 131.701 151.621 131.701 152.029V153.406C131.701 153.814 131.342 154.12 130.933 154.12Z" fill="#242424"/>
<path d="M141.173 154.12H133.851C133.441 154.12 133.134 153.814 133.083 153.406L133.032 152.029C133.032 151.621 133.339 151.315 133.8 151.315H141.019C141.429 151.315 141.736 151.57 141.787 151.978L141.941 153.355C141.992 153.763 141.633 154.12 141.173 154.12Z" fill="#242424"/>
<path d="M151.31 154.12H143.988C143.579 154.12 143.272 153.865 143.22 153.457L143.067 152.08C143.016 151.672 143.374 151.315 143.835 151.315H151.054C151.412 151.315 151.72 151.57 151.771 151.927L152.027 153.304C152.129 153.763 151.771 154.12 151.31 154.12Z" fill="#242424"/>
<path d="M161.602 154.12H154.28C153.922 154.12 153.614 153.865 153.563 153.559L153.307 152.182C153.205 151.723 153.563 151.366 154.024 151.366H161.243C161.602 151.366 161.909 151.57 161.96 151.927L162.318 153.304C162.421 153.712 162.062 154.12 161.602 154.12Z" fill="#242424"/>
<path d="M171.995 154.12H164.725C164.366 154.12 164.11 153.916 164.008 153.61L163.649 152.233C163.547 151.774 163.905 151.315 164.366 151.315H171.534C171.841 151.315 172.149 151.519 172.251 151.825L172.712 153.202C172.865 153.661 172.507 154.12 171.995 154.12Z" fill="#242424"/>
<path d="M182.696 152.896C183.003 153.61 182.594 154.171 181.826 154.171H175.784C175.016 154.171 174.146 153.61 173.89 152.896L173.787 152.692C173.531 151.978 173.941 151.417 174.76 151.417H180.597C181.365 151.417 182.286 151.978 182.594 152.692L182.696 152.896Z" fill="#242424"/>
<path d="M192.424 154.12H185.256C184.948 154.12 184.692 153.967 184.59 153.712L183.976 152.335C183.771 151.876 184.129 151.366 184.641 151.366H191.707C192.014 151.366 192.27 151.519 192.372 151.774L193.089 153.151C193.345 153.559 192.987 154.12 192.424 154.12Z" fill="#242424"/>
<path d="M80.91 157.588H73.4348C72.8716 157.588 72.5132 157.078 72.7692 156.568L73.486 155.038C73.5884 154.783 73.8956 154.63 74.1516 154.63H81.5244C82.0364 154.63 82.3948 155.14 82.2412 155.599L81.678 157.129C81.5244 157.384 81.2172 157.588 80.91 157.588Z" fill="#242424"/>
<path d="M91.5086 157.588H83.9822C83.4702 157.588 83.1118 157.078 83.2654 156.619L83.8286 155.089C83.931 154.783 84.2382 154.63 84.5454 154.63H91.9694C92.4814 154.63 92.8398 155.089 92.6862 155.548L92.2254 157.078C92.123 157.384 91.867 157.588 91.5086 157.588Z" fill="#242424"/>
<path d="M101.953 157.588H94.427C93.915 157.588 93.5566 157.129 93.7102 156.67L94.171 155.14C94.2734 154.834 94.5806 154.63 94.8878 154.63H102.261C102.721 154.63 103.08 155.038 102.977 155.497L102.67 157.027C102.619 157.333 102.312 157.588 101.953 157.588Z" fill="#242424"/>
<path d="M112.5 157.588H104.923C104.462 157.588 104.104 157.18 104.206 156.721L104.513 155.191C104.564 154.834 104.872 154.63 105.23 154.63H112.705C113.166 154.63 113.524 154.987 113.473 155.446L113.268 156.976C113.217 157.333 112.91 157.588 112.5 157.588Z" fill="#242424"/>
<path d="M123.048 157.588H115.47C115.009 157.588 114.651 157.231 114.702 156.772L114.907 155.242C114.958 154.885 115.265 154.63 115.675 154.63H123.15C123.56 154.63 123.918 154.987 123.918 155.395L123.867 156.925C123.765 157.282 123.457 157.588 123.048 157.588Z" fill="#242424"/>
<path d="M133.595 157.588H126.018C125.608 157.588 125.25 157.231 125.25 156.874L125.301 155.344C125.301 154.936 125.659 154.681 126.069 154.681H133.544C133.954 154.681 134.261 154.987 134.312 155.344L134.363 156.874C134.363 157.282 134.056 157.588 133.595 157.588Z" fill="#242424"/>
<path d="M144.193 157.588H136.616C136.206 157.588 135.899 157.282 135.848 156.925L135.796 155.395C135.796 154.987 136.104 154.63 136.564 154.63H144.04C144.398 154.63 144.756 154.885 144.808 155.242L145.012 156.772C144.961 157.231 144.603 157.588 144.193 157.588Z" fill="#242424"/>
<path d="M154.587 157.588H147.009C146.651 157.588 146.293 157.333 146.241 156.976L146.037 155.446C145.985 155.038 146.344 154.63 146.805 154.63H154.28C154.638 154.63 154.945 154.885 154.997 155.191L155.304 156.721C155.406 157.18 155.048 157.588 154.587 157.588Z" fill="#242424"/>
<path d="M165.134 157.588H157.608C157.25 157.588 156.942 157.333 156.891 157.027L156.584 155.497C156.482 155.038 156.84 154.63 157.301 154.63H164.725C165.083 154.63 165.339 154.834 165.442 155.14L165.902 156.67C166.005 157.129 165.646 157.588 165.134 157.588Z" fill="#242424"/>
<path d="M175.835 157.588H168.309C167.95 157.588 167.694 157.384 167.592 157.078L167.131 155.548C166.977 155.089 167.336 154.63 167.848 154.63H175.272C175.579 154.63 175.886 154.834 175.989 155.089L176.552 156.619C176.757 157.129 176.347 157.588 175.835 157.588Z" fill="#242424"/>
<path d="M186.229 157.588H178.753C178.446 157.588 178.139 157.384 178.037 157.129L177.473 155.599C177.32 155.14 177.678 154.63 178.19 154.63H185.563C185.87 154.63 186.126 154.783 186.229 155.038L186.945 156.568C187.15 157.078 186.792 157.588 186.229 157.588Z" fill="#242424"/>
<path d="M74.1006 161.209H66.3694C65.8062 161.209 65.4478 160.648 65.7038 160.189L66.523 158.506C66.6254 158.251 66.9326 158.098 67.1886 158.098H74.7662C75.2782 158.098 75.6878 158.608 75.483 159.067L74.7662 160.75C74.6638 161.005 74.4078 161.209 74.1006 161.209Z" fill="#242424"/>
<path d="M84.9551 161.209H77.2239C76.7119 161.209 76.3535 160.699 76.5071 160.24L77.2239 158.557C77.3263 158.302 77.6335 158.098 77.9407 158.098H85.5695C86.0815 158.098 86.4399 158.557 86.2863 159.016L85.7231 160.699C85.5695 161.005 85.3135 161.209 84.9551 161.209Z" fill="#242424"/>
<path d="M95.7069 161.209H87.9245C87.4125 161.209 87.0542 160.75 87.2078 160.291L87.7709 158.608C87.8733 158.302 88.1806 158.098 88.4878 158.098H96.1678C96.6798 158.098 97.0381 158.506 96.8845 158.965L96.4238 160.648C96.3726 160.954 96.0653 161.209 95.7069 161.209Z" fill="#242424"/>
<path d="M106.612 161.209H98.7788C98.318 161.209 97.9596 160.801 98.062 160.342L98.4716 158.659C98.574 158.353 98.83 158.098 99.1884 158.098H106.868C107.329 158.098 107.688 158.506 107.585 158.914L107.278 160.597C107.278 160.954 106.971 161.209 106.612 161.209Z" fill="#242424"/>
<path d="M117.416 161.209H109.582C109.121 161.209 108.763 160.801 108.865 160.393L109.121 158.71C109.172 158.353 109.48 158.098 109.838 158.098H117.569C118.03 158.098 118.337 158.455 118.337 158.863L118.184 160.546C118.132 160.903 117.825 161.209 117.416 161.209Z" fill="#242424"/>
<path d="M128.27 161.209H120.436C119.976 161.209 119.668 160.852 119.668 160.444L119.822 158.761C119.873 158.404 120.18 158.098 120.59 158.098H128.321C128.731 158.098 129.089 158.404 129.089 158.812V160.495C129.038 160.903 128.68 161.209 128.27 161.209Z" fill="#242424"/>
<path d="M139.176 161.209H131.342C130.933 161.209 130.574 160.903 130.574 160.495V158.812C130.574 158.404 130.933 158.098 131.342 158.098H139.073C139.483 158.098 139.79 158.404 139.841 158.761L139.995 160.444C139.944 160.852 139.585 161.209 139.176 161.209Z" fill="#242424"/>
<path d="M149.877 161.209H142.043C141.634 161.209 141.326 160.903 141.275 160.546L141.122 158.863C141.07 158.455 141.429 158.098 141.89 158.098H149.621C149.979 158.098 150.286 158.353 150.338 158.71L150.594 160.393C150.696 160.801 150.338 161.209 149.877 161.209Z" fill="#242424"/>
<path d="M160.731 161.209H152.897C152.539 161.209 152.232 160.954 152.18 160.597L151.873 158.914C151.822 158.506 152.129 158.098 152.59 158.098H160.27C160.628 158.098 160.936 158.302 160.987 158.659L161.396 160.342C161.601 160.75 161.243 161.209 160.731 161.209Z" fill="#242424"/>
<path d="M171.739 161.209H163.956C163.598 161.209 163.291 161.005 163.24 160.648L162.779 158.965C162.676 158.506 163.035 158.098 163.496 158.098H171.176C171.483 158.098 171.79 158.302 171.892 158.608L172.456 160.291C172.609 160.75 172.251 161.209 171.739 161.209Z" fill="#242424"/>
<path d="M182.44 161.209H174.708C174.401 161.209 174.094 161.005 173.992 160.699L173.428 159.016C173.275 158.557 173.633 158.098 174.145 158.098H181.774C182.081 158.098 182.337 158.302 182.491 158.557L183.208 160.24C183.361 160.699 183.003 161.209 182.44 161.209Z" fill="#242424"/>
<path d="M206.964 161.209H185.716C185.409 161.209 185.153 161.056 185 160.75L184.283 159.067C184.078 158.608 184.436 158.098 185 158.098H205.992C206.248 158.098 206.504 158.251 206.657 158.455L207.681 160.138C207.937 160.597 207.579 161.209 206.964 161.209Z" fill="#242424"/>
<path d="M196.878 157.588H189.454C189.147 157.588 188.891 157.435 188.789 157.18L188.072 155.65C187.867 155.191 188.225 154.63 188.737 154.63H196.059C196.315 154.63 196.622 154.783 196.725 155.038L197.544 156.568C197.8 157.027 197.441 157.588 196.878 157.588Z" fill="#242424"/>
<path d="M185.665 150.907H178.702C178.395 150.907 178.088 150.703 177.985 150.448L177.473 149.224C177.268 148.765 177.627 148.255 178.19 148.255H185.051C185.358 148.255 185.614 148.408 185.716 148.663L186.28 149.887C186.587 150.397 186.228 150.907 185.665 150.907Z" fill="#242424"/>
<path d="M201.23 151.366H194.677C194.113 151.366 193.704 151.519 193.806 151.723L194.933 153.814C195.035 154.018 195.598 154.171 196.213 154.171H197.237C197.493 154.171 197.749 154.324 197.902 154.528L199.387 157.18C199.489 157.384 200.104 157.537 200.718 157.537H204.917C205.531 157.537 205.941 157.384 205.787 157.18L202.459 151.723C202.408 151.519 201.845 151.366 201.23 151.366Z" fill="#242424"/>
<path d="M200.718 150.907H188.84C188.533 150.907 188.277 150.754 188.174 150.499L187.56 149.275C187.304 148.816 187.713 148.255 188.225 148.255H199.95C200.206 148.255 200.462 148.408 200.616 148.612L201.333 149.836C201.691 150.295 201.333 150.907 200.718 150.907Z" fill="#242424"/>
<path d="M77.9405 147.796H70.9773C70.4141 147.796 70.0557 147.235 70.3117 146.776L70.3629 146.725C70.4653 146.47 70.7725 146.317 71.0285 146.317H77.9917C78.5037 146.317 78.9133 146.827 78.7085 147.286V147.337C78.5037 147.643 78.2477 147.796 77.9405 147.796Z" fill="#242424"/>
<path d="M88.078 147.796H81.0636C80.5516 147.796 80.142 147.286 80.3468 146.827V146.776C80.4492 146.521 80.7564 146.317 81.0636 146.317H88.078C88.59 146.317 88.9484 146.776 88.7948 147.235V147.286C88.6924 147.592 88.3852 147.796 88.078 147.796Z" fill="#242424"/>
<path d="M98.1131 147.796H90.9963C90.4843 147.796 90.1259 147.337 90.2795 146.878V146.827C90.3819 146.521 90.6891 146.317 90.9963 146.317H98.0619C98.5739 146.317 98.9323 146.776 98.7787 147.184V147.235C98.7275 147.592 98.4203 147.796 98.1131 147.796Z" fill="#242424"/>
<path d="M108.251 147.796H101.134C100.622 147.796 100.315 147.388 100.418 146.929V146.878C100.52 146.572 100.776 146.317 101.134 146.317H108.251C108.712 146.317 109.07 146.725 108.968 147.133V147.184C108.917 147.541 108.61 147.796 108.251 147.796Z" fill="#242424"/>
<path d="M118.286 147.796H111.169C110.709 147.796 110.35 147.388 110.453 146.98V146.929C110.504 146.572 110.811 146.317 111.169 146.317H118.286C118.747 146.317 119.054 146.674 119.054 147.082V147.133C118.952 147.541 118.645 147.796 118.286 147.796Z" fill="#242424"/>
<path d="M128.424 147.796H121.307C120.846 147.796 120.539 147.439 120.539 147.031V146.98C120.59 146.623 120.897 146.317 121.307 146.317H128.424C128.833 146.317 129.192 146.623 129.192 147.031V147.082C129.141 147.49 128.833 147.796 128.424 147.796Z" fill="#242424"/>
<path d="M138.408 147.796H131.291C130.881 147.796 130.523 147.49 130.523 147.082V147.031C130.523 146.623 130.881 146.317 131.291 146.317H138.408C138.817 146.317 139.125 146.623 139.176 146.98V147.031C139.176 147.439 138.817 147.796 138.408 147.796Z" fill="#242424"/>
<path d="M148.545 147.796H141.429C141.019 147.796 140.712 147.49 140.661 147.133V147.082C140.609 146.674 140.968 146.317 141.429 146.317H148.545C148.904 146.317 149.211 146.572 149.262 146.929V146.98C149.365 147.388 149.006 147.796 148.545 147.796Z" fill="#242424"/>
<path d="M158.529 147.796H151.413C151.054 147.796 150.747 147.541 150.696 147.184V147.133C150.593 146.674 150.952 146.317 151.413 146.317H158.529C158.888 146.317 159.195 146.521 159.246 146.878V146.929C159.4 147.388 159.041 147.796 158.529 147.796Z" fill="#242424"/>
<path d="M168.667 147.796H161.602C161.243 147.796 160.936 147.592 160.885 147.235V147.184C160.782 146.725 161.141 146.317 161.602 146.317H168.667C168.974 146.317 169.282 146.521 169.384 146.827V146.878C169.538 147.337 169.179 147.796 168.667 147.796Z" fill="#242424"/>
<path d="M178.651 147.796H171.636C171.329 147.796 171.022 147.592 170.92 147.337V147.286C170.766 146.827 171.124 146.368 171.636 146.368H178.651C178.958 146.368 179.214 146.521 179.368 146.827V146.878C179.521 147.286 179.163 147.796 178.651 147.796Z" fill="#242424"/>
<path d="M188.737 147.796H181.774C181.467 147.796 181.211 147.643 181.057 147.337V147.286C180.852 146.827 181.211 146.317 181.774 146.317H188.737C189.044 146.317 189.3 146.47 189.403 146.725L189.454 146.776C189.659 147.235 189.3 147.796 188.737 147.796Z" fill="#242424"/>
<path d="M198.67 147.796H191.758C191.451 147.796 191.195 147.643 191.092 147.388L191.041 147.337C190.785 146.878 191.144 146.317 191.707 146.317H198.619C198.875 146.317 199.131 146.47 199.284 146.674L199.336 146.725C199.643 147.235 199.284 147.796 198.67 147.796Z" fill="#242424"/>
<path d="M59.6618 141.982C57.5626 141.982 55.873 140.299 55.873 138.208V54.2619C55.873 49.9269 59.457 46.3569 63.8602 46.3569H195.751C200.155 46.3569 203.739 49.8759 203.739 54.2619V138.157C203.739 140.248 202.049 141.931 199.95 141.931H59.6618V141.982Z" fill="#F1F2F2"/>
<path d="M195.752 46.918H63.8604C59.7132 46.918 56.334 50.233 56.334 54.313V138.208C56.334 140.044 57.8188 141.472 59.6108 141.472H199.899C201.742 141.472 203.176 139.993 203.176 138.208V54.262C203.227 50.182 199.899 46.918 195.752 46.918Z" fill="#D1D3D4"/>
<path opacity="0.6" d="M129.396 49.3659C128.782 49.3659 128.321 49.8759 128.321 50.4369C128.321 51.0489 128.833 51.5079 129.396 51.5079C130.01 51.5079 130.471 50.9979 130.471 50.4369C130.471 49.8759 130.01 49.3659 129.396 49.3659Z" fill="#231F20"/>
<path d="M197.236 54.007H62.3242V139.738H197.236V54.007Z" fill="#939598"/>
<path d="M196.98 54.262H62.5801V139.483H196.98V54.262Z" fill="#DEEBEA"/>
<path d="M187.047 88.0239H131.598V94.0419H187.047V88.0239Z" fill="white"/>
<path d="M127.655 99.3969H72.2056V105.415H127.655V99.3969Z" fill="white"/>
<path d="M187.047 99.3969H131.598V105.415H187.047V99.3969Z" fill="white"/>
<path d="M127.655 111.943H72.2056V117.961H127.655V111.943Z" fill="white"/>
<path d="M187.047 111.943H131.598V117.961H187.047V111.943Z" fill="white"/>
<path d="M127.655 88.0239H72.2056V94.0419H127.655V88.0239Z" fill="white"/>
<path d="M130.369 78.2829C135.006 78.2829 138.766 74.5382 138.766 69.9189C138.766 65.2996 135.006 61.5549 130.369 61.5549C125.732 61.5549 121.972 65.2996 121.972 69.9189C121.972 74.5382 125.732 78.2829 130.369 78.2829Z" fill="#0E8793"/>
<path d="M132.724 67.6749C132.724 68.9499 131.7 69.9699 130.42 69.9699C129.14 69.9699 128.116 68.9499 128.116 67.6749C128.116 66.3999 129.14 65.3799 130.42 65.3799C131.7 65.3799 132.724 66.3999 132.724 67.6749Z" fill="white"/>
<path d="M134.004 73.183C134.004 74.917 126.785 74.917 126.785 73.183C126.785 71.449 128.424 70.072 130.42 70.072C132.417 70.072 134.004 71.449 134.004 73.183Z" fill="white"/>
</svg>
