<svg width="1406" height="440" viewBox="0 0 1406 440" fill="none" xmlns="http://www.w3.org/2000/svg">
<path d="M531.32 98.9139C345.943 -1.21673 158.649 76.3621 88.1741 127.668C16.4592 135.786 -0.342108 195.324 0.221575 224.077C22.7735 250.012 86.4827 291.057 160.904 247.757C235.325 204.457 465.919 283.84 571.913 328.944C652.536 324.997 838.477 334.695 937.254 405.057C1036.03 475.419 1046.07 423.098 1038.74 388.143C1016.19 348.677 1000.8 284.291 1119.68 342.475C1238.56 400.659 1345.28 331.763 1383.78 290.042C1406.33 226.333 1430.8 85.7212 1348.26 32.95C1265.72 -19.8211 1131.2 4.19637 1074.26 22.8015C970.518 89.8934 716.696 199.045 531.32 98.9139Z" fill="#A9D5D6" fill-opacity="0.1"/>
</svg>
