<svg width="151" height="55" viewBox="0 0 151 55" fill="none" xmlns="http://www.w3.org/2000/svg">
<path d="M45.3924 6.8623C38.1961 9.78472 13.9533 13.5666 6.73218 12.7713C10.6168 18.9069 21.5081 36.1155 20.6532 49.5841C25.9159 44.7465 41.9397 37.9596 49.5152 38.4453C44.4864 30.0577 44.6714 13.8951 45.3924 6.8623Z" fill="#E5E7EF"/>
<path d="M35.6086 6.79248C30.4785 12.112 15.9441 17.6021 9.31812 19.6822C18.9042 29.8888 21.376 37.0969 25.9692 49.1959C28.6502 42.9454 44.9215 35.2955 51.7343 32.8086C44.0139 27.4113 37.767 13.2156 35.6086 6.79248Z" fill="#E5E7EF"/>
<path d="M41.1935 2.6499C33.7183 7.62691 15.0744 10.395 6.68677 11.1569C15.3261 25.687 16.3434 34.8468 18.5764 50.3354C23.4007 43.6294 44.6706 38.7518 53.3869 37.5567C45.6822 29.1934 42.0477 10.8008 41.1935 2.6499Z" fill="#E5E7EF"/>
<path d="M43.0783 3.8125C35.1521 8.05924 16.3243 9.05059 7.90112 9.0154C15.0821 24.2956 15.2006 33.5092 15.9114 49.1375C21.3679 42.9189 43.0155 40.0765 51.8079 39.7114C44.9554 30.6579 43.1329 12.0065 43.0783 3.8125Z" fill="#E5E7EF"/>
<path d="M64.7246 26.6715H62.7377V30.319C62.7377 30.623 62.8138 30.8451 62.9664 30.9854C63.1186 31.1257 63.3413 31.2075 63.6344 31.2309C63.9275 31.2426 64.2906 31.2368 64.7246 31.2134V33.2651C63.1656 33.4405 62.0641 33.2943 61.4192 32.8267C60.7864 32.3591 60.4699 31.5232 60.4699 30.319V26.6715H58.9404V24.497H60.4699V22.7258L62.7377 22.0419V24.497H64.7246V26.6715ZM67.9652 29.8105C68.27 30.9094 69.0963 31.4589 70.444 31.4589C71.3115 31.4589 71.9677 31.1667 72.413 30.5821L74.2416 31.6342C73.3741 32.8852 72.0969 33.5106 70.4087 33.5106C68.9554 33.5106 67.7895 33.0722 66.9102 32.1954C66.0314 31.3186 65.5917 30.2138 65.5917 28.8811C65.5917 27.56 66.0253 26.4611 66.8928 25.5842C67.76 24.6958 68.8736 24.2515 70.233 24.2515C71.5224 24.2515 72.5831 24.6958 73.4154 25.5842C74.259 26.4727 74.6813 27.5717 74.6813 28.8811C74.6813 29.1733 74.6517 29.4832 74.593 29.8105H67.9652ZM67.93 28.0568H72.413C72.2843 27.4606 72.0147 27.0164 71.6046 26.7241C71.2058 26.4318 70.7488 26.2857 70.233 26.2857C69.6238 26.2857 69.1198 26.4435 68.721 26.7592C68.3227 27.0631 68.0587 27.4957 67.93 28.0568ZM83.8712 33.2651H81.2516L79.353 30.5996L77.4365 33.2651H74.8173L78.0344 28.7934L74.9578 24.497H77.5774L79.353 26.9696L81.1285 24.497H83.7307L80.6541 28.7758L83.8712 33.2651ZM90.0315 26.6715H88.045V30.319C88.045 30.623 88.1211 30.8451 88.2733 30.9854C88.4259 31.1257 88.6486 31.2075 88.9417 31.2309C89.2344 31.2426 89.5979 31.2368 90.0315 31.2134V33.2651C88.4725 33.4405 87.3709 33.2943 86.7265 32.8267C86.0933 32.3591 85.7767 31.5232 85.7767 30.319V26.6715H84.2473V24.497H85.7767V22.7258L88.045 22.0419V24.497H90.0315V26.6715ZM99.7355 33.2651H97.0981L93.8983 29.2844V33.2651H91.6305V20.9897H93.8983V28.355L96.9224 24.497H99.6299L96.0961 28.8284L99.7355 33.2651ZM106.913 24.497H109.181V33.2651H106.913V32.2305C106.233 33.0839 105.278 33.5106 104.047 33.5106C102.875 33.5106 101.867 33.0664 101.023 32.1779C100.191 31.2777 99.7752 30.1787 99.7752 28.8811C99.7752 27.5834 100.191 26.4903 101.023 25.6018C101.867 24.7016 102.875 24.2515 104.047 24.2515C105.278 24.2515 106.233 24.6782 106.913 25.5316V24.497ZM102.729 30.6697C103.186 31.1257 103.766 31.3537 104.469 31.3537C105.172 31.3537 105.752 31.1257 106.21 30.6697C106.679 30.2022 106.913 29.6059 106.913 28.8811C106.913 28.1562 106.679 27.5658 106.21 27.1099C105.752 26.6423 105.172 26.4084 104.469 26.4084C103.766 26.4084 103.186 26.6423 102.729 27.1099C102.272 27.5658 102.043 28.1562 102.043 28.8811C102.043 29.6059 102.272 30.2022 102.729 30.6697ZM119.342 33.2651H116.705L113.505 29.2844V33.2651H111.237V20.9897H113.505V28.355L116.529 24.497H119.237L115.703 28.8284L119.342 33.2651ZM125.314 26.6715H123.327V30.319C123.327 30.623 123.403 30.8451 123.555 30.9854C123.708 31.1257 123.931 31.2075 124.224 31.2309C124.517 31.2426 124.88 31.2368 125.314 31.2134V33.2651C123.755 33.4405 122.653 33.2943 122.009 32.8267C121.375 32.3591 121.059 31.5232 121.059 30.319V26.6715H119.529V24.497H121.059V22.7258L123.327 22.0419V24.497H125.314V26.6715ZM128.554 29.8105C128.859 30.9094 129.685 31.4589 131.033 31.4589C131.901 31.4589 132.557 31.1667 133.003 30.5821L134.831 31.6342C133.964 32.8852 132.686 33.5106 130.998 33.5106C129.545 33.5106 128.379 33.0722 127.499 32.1954C126.62 31.3186 126.181 30.2138 126.181 28.8811C126.181 27.56 126.615 26.4611 127.482 25.5842C128.349 24.6958 129.463 24.2515 130.822 24.2515C132.111 24.2515 133.173 24.6958 134.004 25.5842C134.849 26.4727 135.27 27.5717 135.27 28.8811C135.27 29.1733 135.241 29.4832 135.182 29.8105H128.554ZM128.519 28.0568H133.003C132.873 27.4606 132.604 27.0164 132.194 26.7241C131.795 26.4318 131.338 26.2857 130.822 26.2857C130.213 26.2857 129.709 26.4435 129.31 26.7592C128.912 27.0631 128.648 27.4957 128.519 28.0568ZM144.46 33.2651H141.841L139.942 30.5996L138.026 33.2651H135.406L138.624 28.7934L135.547 24.497H138.166L139.942 26.9696L141.718 24.497H144.32L141.243 28.7758L144.46 33.2651ZM150.621 26.6715H148.634V30.319C148.634 30.623 148.711 30.8451 148.863 30.9854C149.015 31.1257 149.238 31.2075 149.531 31.2309C149.823 31.2426 150.187 31.2368 150.621 31.2134V33.2651C149.062 33.4405 147.96 33.2943 147.316 32.8267C146.683 32.3591 146.366 31.5232 146.366 30.319V26.6715H144.836V24.497H146.366V22.7258L148.634 22.0419V24.497H150.621V26.6715Z" fill="#3F475F"/>
<path d="M19.5906 39.2362C19.7767 39.4606 19.9336 39.4784 20.0597 39.4928C20.1002 39.4977 20.1352 39.5015 20.1688 39.5126C20.2441 39.5377 20.3212 39.5826 20.398 39.6462C22.0695 41.0292 22.3213 41.1974 23.3151 40.975C23.791 40.8686 24.5644 40.4142 25.2396 39.8449C25.7661 39.4008 26.4673 38.6911 26.8171 37.8329C27.3267 36.5824 26.2482 34.6589 26.1928 34.563C26.1864 34.554 26.044 34.3361 26.465 33.981L26.4654 33.9807L26.491 33.9587C26.8904 33.6219 27.0877 33.7939 27.1089 33.8125C27.1835 33.87 28.9485 35.2141 30.2821 34.9106C31.1974 34.7021 32.0171 34.1287 32.5437 33.6846C33.2189 33.1151 33.7933 32.4324 33.9734 31.986C34.3492 31.0532 34.2188 30.7822 33.087 28.944C33.035 28.8597 33.002 28.7777 32.9882 28.7005C32.9821 28.6661 32.9835 28.6314 32.9849 28.5913C32.9898 28.4664 32.9959 28.3107 32.7994 28.0956C32.7664 28.0595 32.7111 27.9927 32.6503 27.9197C32.5576 27.8078 32.4527 27.6824 32.391 27.6191C32.0882 27.3097 31.68 27.4239 31.5121 27.5246C30.4042 28.1287 29.2251 29.0274 28.1044 30.119L28.0459 30.176C27.3616 30.841 26.9847 31.2072 26.69 31.8213C26.6217 31.9638 26.5558 32.1154 26.4992 32.2517C26.3987 32.4945 26.2251 32.8124 26.1118 32.9601C26.0664 33.0199 26.02 33.0799 25.9782 33.1324C25.9183 33.2081 25.7779 33.3265 25.6927 33.3732C25.6335 33.4055 25.5662 33.4417 25.4992 33.4768C25.3338 33.5641 24.9881 33.6842 24.7289 33.7447C24.5835 33.7789 24.4213 33.8197 24.2676 33.8643C23.6061 34.0568 23.1807 34.3672 22.4082 34.9307L22.342 34.979C21.0743 35.9023 19.9897 36.913 19.2191 37.8913C19.0886 38.0438 18.9114 38.4233 19.1756 38.7654C19.2292 38.8354 19.3393 38.9565 19.4372 39.0638C19.5012 39.1347 19.5598 39.199 19.5906 39.2362ZM32.1801 27.9243L32.3898 28.1653L31.9801 28.302L32.1801 27.9243ZM27.1938 32.7294C27.1418 32.5777 27.1054 31.9571 28.8174 30.3341C29.1176 30.0496 29.3779 29.8147 29.6133 29.6162C30.6758 28.72 31.1775 28.6229 31.6426 28.7566C31.9209 28.8364 32.333 29.1469 32.5433 29.3867C33.0028 29.9103 33.7081 30.9348 33.2754 31.912C33.0769 32.3597 32.6525 32.8852 32.1401 33.3173C31.1566 34.1468 30.084 34.4807 29.2716 34.2102C27.5637 33.6428 27.202 32.7559 27.1938 32.7294ZM20.4308 38.2123C20.3681 37.7391 20.5427 37.266 21.605 36.37C21.8405 36.1714 22.1162 35.9542 22.4478 35.7058C24.3393 34.2899 24.957 34.4204 25.1182 34.5027C25.1264 34.5065 25.9614 34.9947 26.2694 36.7425C26.4157 37.5746 25.9163 38.5666 24.9329 39.396C24.4203 39.8283 23.8277 40.1608 23.3478 40.2851C22.3005 40.5561 21.3806 39.7126 20.9255 39.1854C20.7168 38.9436 20.4683 38.4952 20.4308 38.2123ZM19.5129 38.6078L19.9226 38.4713L19.7226 38.8488L19.5129 38.6078Z" fill="#3F475F"/>
<path d="M37.6234 11.0143L16.4225 16.1892C16.2055 16.2422 16.0732 16.4583 16.127 16.672C16.1808 16.8856 16.4003 17.0159 16.6173 16.9629L37.8182 11.7879C38.0352 11.735 38.1675 11.5188 38.1137 11.3052C38.0599 11.0915 37.8404 10.9613 37.6234 11.0143Z" fill="#3F475F"/>
<path d="M38.6773 14.9342L17.4764 20.1092C17.2594 20.1621 17.1271 20.3783 17.1809 20.5919C17.2347 20.8056 17.4543 20.9358 17.6713 20.8828L38.8722 15.7078C39.0892 15.6549 39.2215 15.4387 39.1677 15.2251C39.1139 15.0115 38.8943 14.8812 38.6773 14.9342Z" fill="#3F475F"/>
<path d="M39.9322 18.8443L18.7313 24.0193C18.5143 24.0723 18.382 24.2884 18.4358 24.5021C18.4896 24.7157 18.7091 24.846 18.9262 24.793L40.1271 19.618C40.3441 19.565 40.4764 19.3489 40.4226 19.1353C40.3688 18.9216 40.1492 18.7914 39.9322 18.8443Z" fill="#3F475F"/>
<path d="M41.4434 22.8897L20.2425 28.0647C20.0255 28.1177 19.8932 28.3338 19.947 28.5475C20.0008 28.7611 20.2204 28.8914 20.4374 28.8384L41.6383 23.6634C41.8553 23.6104 41.9876 23.3943 41.9338 23.1807C41.88 22.967 41.6604 22.8368 41.4434 22.8897Z" fill="#3F475F"/>
<path d="M44.9872 31.6635L34.2577 34.2825C34.0407 34.3355 33.9084 34.5516 33.9622 34.7653C34.016 34.9789 34.2355 35.1092 34.4525 35.0562L45.182 32.4372C45.399 32.3842 45.5313 32.1681 45.4775 31.9544C45.4237 31.7408 45.2042 31.6105 44.9872 31.6635Z" fill="#3F475F"/>
</svg>
