<svg width="100" height="101" viewBox="0 0 100 101" fill="none" xmlns="http://www.w3.org/2000/svg">
<g clip-path="url(#clip0)">
<path d="M95.8357 0.53125H4.2262C1.93594 0.53125 0.0621338 2.40506 0.0621338 4.69532V17.8122H99.9996V4.69532C99.9998 2.40506 98.1258 0.53125 95.8357 0.53125Z" fill="#40596B"/>
<path d="M99.9374 17.9561H0V75.6283H99.9374V17.9561Z" fill="#CDD6E0"/>
<path d="M94.7322 23.1611H5.20496V70.4232H94.7322V23.1611Z" fill="#F2F2F2"/>
<path d="M9.64011 13.6481C12.0549 13.6481 14.0124 11.6906 14.0124 9.27586C14.0124 6.86111 12.0549 4.90356 9.64011 4.90356C7.22536 4.90356 5.26782 6.86111 5.26782 9.27586C5.26782 11.6906 7.22536 13.6481 9.64011 13.6481Z" fill="#FFD15C"/>
<path d="M21.5072 13.6481C23.9219 13.6481 25.8795 11.6906 25.8795 9.27586C25.8795 6.86111 23.9219 4.90356 21.5072 4.90356C19.0924 4.90356 17.1349 6.86111 17.1349 9.27586C17.1349 11.6906 19.0924 13.6481 21.5072 13.6481Z" fill="#ACB3BA"/>
<path d="M33.375 13.6481C35.7897 13.6481 37.7473 11.6906 37.7473 9.27586C37.7473 6.86111 35.7897 4.90356 33.375 4.90356C30.9602 4.90356 29.0027 6.86111 29.0027 9.27586C29.0027 11.6906 30.9602 13.6481 33.375 13.6481Z" fill="#84DBFF"/>
<path d="M88.965 4.69556H53.5704C51.0719 4.69556 49.1981 6.77759 49.1981 9.06785C49.1981 11.3581 51.2802 13.4401 53.5704 13.4401H88.965C91.4635 13.4401 93.3373 11.3581 93.3373 9.06785C93.3373 6.77759 91.2552 4.69556 88.965 4.69556Z" fill="#ACB3BA"/>
<path d="M83.7593 66.7397C83.7593 85.478 68.5604 100.469 50.0306 100.469C31.2922 100.469 16.3018 85.2696 16.3018 66.7397C16.3018 59.869 18.3838 53.4148 21.9232 48.0014C22.3396 47.585 22.5479 46.9605 22.9641 46.5441C27.9611 39.8815 35.0399 35.3012 43.5762 33.6354H43.7844C45.8665 33.219 47.9485 33.0107 50.0306 33.0107C50.8634 33.0107 51.6961 33.0107 52.529 33.0107C53.5699 33.0107 54.6111 33.219 55.652 33.4272C69.3933 35.7174 80.4282 46.3358 83.1349 59.869C83.1349 60.2854 83.3431 60.4936 83.3431 60.9099C83.5513 62.7839 83.7593 64.6577 83.7593 66.7397Z" fill="#89D6F7"/>
<path d="M48.1577 39.2574C48.1577 40.2983 46.4921 40.5065 45.6592 40.7147C45.0345 40.923 44.4101 41.5476 43.7854 42.1721C42.5363 43.4212 41.0787 44.4624 39.4131 45.2951C37.7475 46.128 35.6655 46.7524 34.4161 45.2951C38.1638 43.6295 41.0787 40.2981 42.5361 36.3423C40.6623 37.3834 39.2049 39.049 37.7473 40.2981C35.8735 41.7555 33.7915 43.0048 32.1259 44.6704C30.4603 46.336 29.0029 48.418 29.0029 50.9165C29.0029 49.6674 28.17 48.2098 26.9209 47.5853C25.88 46.7524 24.4224 46.5444 22.9651 46.5444C22.9651 46.5444 22.9651 46.5444 22.7568 46.5444C27.7538 39.8818 34.8326 35.3015 43.369 33.6357H43.5772C43.9936 35.3013 45.0345 36.9669 46.4921 37.7998C47.533 38.008 48.1577 38.6327 48.1577 39.2574Z" fill="#55BFE9"/>
<path d="M55.653 33.4277C56.4858 33.8442 57.3185 34.4687 57.9432 35.0933C58.1514 35.3015 58.1514 35.5098 58.1514 35.718C57.9432 36.3427 57.1105 36.1344 56.4858 36.5509C55.4449 36.9673 55.8612 38.4247 56.6941 39.0494C57.527 39.674 58.5679 39.674 59.609 40.2985C60.0254 40.5067 60.2337 40.715 60.2337 41.1314C60.2337 41.3396 60.0254 41.5478 59.8172 41.7561C58.7763 43.0052 57.527 44.2545 56.486 45.5037C56.2778 45.7119 55.8614 46.1284 55.4451 46.3366C55.0289 46.5448 54.4042 46.5448 53.7795 46.5448C51.6975 46.5448 48.9908 46.9613 48.3663 49.0433C48.1581 49.4597 48.1581 50.0842 47.9499 50.5007C47.5334 50.9171 47.117 50.9171 46.7007 51.3335C46.2843 51.9582 46.909 52.7909 46.909 53.6238C47.1172 54.8729 45.6598 55.9141 44.6187 55.4976C44.6187 54.2485 44.6187 52.7909 44.4105 51.5418C44.4105 51.3335 44.4105 51.1253 44.2023 50.9171C43.994 50.7089 43.7858 50.7089 43.5776 50.5007C42.3285 50.0842 40.8709 49.876 39.83 50.9171C38.9971 51.958 39.4135 53.4156 40.0382 54.4565C40.6629 55.4974 41.7038 56.5385 41.7038 57.9959C41.7038 58.6206 41.4956 59.4533 40.8709 59.4533C40.038 59.6615 39.4135 58.4123 39.4135 57.5794C38.5806 59.8697 38.1644 62.7844 38.5806 65.4911C36.7068 65.9076 34.833 66.5321 32.9592 66.9485C32.3345 67.1567 31.5018 67.3649 31.0854 67.9894C30.6689 68.6141 30.6689 69.2386 30.6689 69.8632C30.6689 72.1535 31.2936 74.4437 32.3345 76.5258C32.751 77.1505 33.1674 77.9831 33.7919 78.3996C35.6657 79.6487 38.1642 79.0243 40.2462 79.6487C42.12 80.0652 43.5774 81.5225 44.4103 83.1881C45.2432 84.8537 45.8677 86.7275 46.2841 88.6013C46.4923 89.4342 46.7005 90.2669 47.325 90.8916C47.9497 91.5163 49.1988 91.7245 50.0317 91.9327C51.6973 92.1409 53.5711 92.5574 55.0287 91.5163C56.2778 90.8916 57.1107 89.4342 58.5681 88.8096C59.401 88.3931 60.6501 88.6013 61.483 88.3931C62.5239 88.1849 63.565 87.3522 63.1486 86.3111C62.9404 85.4782 61.6912 84.6455 61.8995 83.8126C62.1077 83.1879 62.9404 82.9797 63.565 82.7715C66.2718 81.7306 67.9373 78.191 66.48 75.4845C66.2717 75.068 66.0635 74.6516 65.8553 74.2353C65.8553 72.778 67.7291 72.3615 68.7702 71.3204C69.6031 70.2795 69.6031 69.0301 69.8111 67.5728C70.0194 66.3236 70.4358 64.8661 71.685 64.4498C72.9341 64.0334 74.1834 65.0745 74.8079 66.1154C75.4326 67.1563 76.057 68.4057 77.0982 69.0303C77.0982 66.7401 77.0982 64.4498 77.0982 62.3678C77.0982 61.5349 77.0982 60.7022 77.7228 60.0775C78.5557 59.0366 80.2213 59.2446 81.4705 59.6611C81.8869 59.6611 82.3033 59.8693 82.7196 59.8693C80.4291 46.3362 69.3943 35.7178 55.653 33.4277ZM62.3155 55.289C62.732 55.289 63.1484 55.289 63.5646 55.289C63.3564 56.1219 63.5646 56.9546 64.1893 57.5793C64.3975 57.7875 64.814 57.9957 65.0222 58.4121C65.6469 59.0368 65.8551 60.0777 65.4387 60.9106C64.814 60.9106 63.9813 60.9106 63.3566 60.9106C62.732 60.7024 61.8993 60.286 61.691 59.6615C61.4828 59.245 61.4828 58.8286 61.4828 58.4123C61.2744 57.1628 61.2744 55.9137 62.3155 55.289ZM52.3218 66.9483C51.2809 66.7401 50.2397 66.1154 49.1988 65.4909C47.7415 64.658 46.0759 64.2418 44.6183 64.2418C43.9936 64.2418 43.3692 64.2418 42.9527 64.2418C42.3281 64.0336 41.9118 63.8253 41.7036 63.2009C41.4954 62.5762 41.9118 61.7435 42.5365 61.3271C43.1612 60.9106 43.7856 60.7024 44.4103 60.286L44.6185 59.245C45.8677 60.4942 47.5334 61.5353 49.199 62.16C50.0319 62.5764 50.8646 62.7846 51.6975 62.7846C52.5304 62.7846 53.5713 62.7846 54.4042 62.7846C54.6124 62.7846 55.0289 62.7846 55.2371 62.7846C55.8618 62.7846 56.4863 62.7846 57.1109 62.5764C57.9438 62.5764 58.5683 62.3682 59.1929 61.9517C59.4012 62.7846 58.9847 63.8255 58.3601 64.4502C57.7354 65.0749 56.9027 65.4911 55.8616 65.9076C55.0285 66.5319 53.5709 67.1565 52.3218 66.9483ZM65.4385 73.6108C65.4385 73.8191 65.2302 74.0273 65.022 74.2355C64.8138 74.2355 64.8138 74.4437 64.6056 74.4437C63.1482 74.652 61.4826 74.8602 60.4415 73.8191C59.8168 73.4026 59.6086 72.7782 59.1924 72.1535C58.7759 71.3206 58.3595 70.6961 57.9432 69.8632C57.5268 69.0303 57.1103 68.1976 57.3185 67.3647C57.9432 67.3647 58.7759 67.3647 59.4006 67.573L59.6088 67.7812C59.4006 68.4059 59.6088 69.0303 60.0252 69.4468C60.4417 69.8632 61.0664 70.0715 61.4826 70.2797C61.8991 70.4879 62.3155 70.6961 62.94 70.9043C63.5646 71.1126 64.1891 71.529 64.8138 71.9453C65.2304 72.1535 65.4385 72.778 65.4385 73.6108ZM67.7287 66.3236C67.5205 66.5319 67.5205 66.5319 67.3123 66.5319C66.0631 66.9483 64.3973 65.9072 64.1893 64.4498L64.3975 64.2416C65.4385 64.2416 66.4796 64.2416 67.3125 64.2416C67.5207 64.2416 67.7289 64.2416 67.7289 64.4498C67.9371 64.658 67.9371 64.8663 67.9371 64.8663C68.1452 65.4909 68.1452 66.1156 67.7287 66.3236Z" fill="#55BFE9"/>
</g>
<defs>
<clipPath id="clip0">
<rect width="100" height="100" fill="white" transform="translate(0 0.5)"/>
</clipPath>
</defs>
</svg>
