<svg width="100" height="101" viewBox="0 0 100 101" fill="none" xmlns="http://www.w3.org/2000/svg">
<path d="M27.5858 79.8106L9.65485 93.2588C9.13241 93.6506 8.43343 93.7137 7.84932 93.4216C7.26521 93.1296 6.89624 92.5326 6.89624 91.8795V74.6382L27.5858 79.8106Z" fill="#FB5134"/>
<path d="M27.5869 29.7591L1.09384 19.8988C0.430923 19.6733 -0.0105924 19.0456 0.00120744 18.3455C0.0130073 17.6453 0.475424 17.0329 1.14556 16.8298L48.8454 0.693685C49.5941 0.43674 50.4071 0.43674 51.1557 0.693685L98.8556 16.8643C99.5257 17.0674 99.9881 17.6798 99.9999 18.3799C100.012 19.0801 99.5702 19.7078 98.9073 19.9333L72.4143 29.7591H27.5869Z" fill="#344958"/>
<path d="M72.4136 48.7766V24.6387C72.4136 20.8284 62.3792 17.7422 49.9999 17.7422C37.6206 17.7422 27.5862 20.8284 27.5862 24.6387V41.88L72.4136 48.7766Z" fill="#40596B"/>
<path d="M93.1032 81.5342V98.7755C93.1032 99.4285 92.7342 100.026 92.1501 100.318C91.566 100.61 90.867 100.547 90.3446 100.155L72.4136 86.7066L93.1032 81.5342Z" fill="#55BFE9"/>
<path d="M99.9993 45.3277V83.2586C99.9936 85.1606 98.4531 86.7012 96.551 86.7068H49.9995C48.0974 86.7012 46.5569 85.1606 46.5512 83.2586C46.5512 78.3862 45.5426 85.3603 53.4477 41.8794H96.551C98.4531 41.8851 99.9936 43.4256 99.9993 45.3277Z" fill="#89D6F7"/>
<path d="M49.9998 34.9824H3.44826C1.54384 34.9824 0 36.5263 0 38.4307V76.3616C0 78.266 1.54384 79.8099 3.44826 79.8099H49.9998C51.9043 79.8099 53.4481 78.266 53.4481 76.3616V38.4307C53.4481 36.5263 51.9043 34.9824 49.9998 34.9824Z" fill="#FF7058"/>
<path d="M98.2756 34.9831C97.3234 34.9831 96.5515 34.2112 96.5515 33.259V18.397C96.5515 17.4448 97.3234 16.6729 98.2756 16.6729C99.2279 16.6729 99.9998 17.4448 99.9998 18.397V33.259C99.9998 34.2112 99.2279 34.9831 98.2756 34.9831Z" fill="#FFAB00"/>
<path d="M66.313 57.125H69.305V64.715C69.305 65.0817 69.2977 65.4923 69.283 65.947C69.2683 66.4017 69.2537 66.849 69.239 67.289C69.2243 67.7143 69.2097 68.0883 69.195 68.411C69.1803 68.719 69.1657 68.9317 69.151 69.049H69.217L76.477 57.125H80.459V72.833H77.489V65.287C77.489 64.891 77.4963 64.4583 77.511 63.989C77.5257 63.505 77.5403 63.043 77.555 62.603C77.5843 62.163 77.6063 61.7817 77.621 61.459C77.6503 61.1217 77.6723 60.9017 77.687 60.799H77.599L70.317 72.833H66.313V57.125Z" fill="white"/>
<path d="M17.147 66.167V50.459H20.469V56.487H21.547C22.999 56.487 24.1943 56.6923 25.133 57.103C26.0717 57.5137 26.761 58.0783 27.201 58.797C27.6557 59.5157 27.883 60.337 27.883 61.261C27.883 62.8157 27.3697 64.0257 26.343 64.891C25.3163 65.7417 23.681 66.167 21.437 66.167H17.147ZM29.797 66.167V50.459H33.119V66.167H29.797ZM20.469 63.439H21.349C22.3317 63.439 23.1017 63.2777 23.659 62.955C24.231 62.6323 24.517 62.0677 24.517 61.261C24.517 60.425 24.2237 59.875 23.637 59.611C23.065 59.347 22.251 59.215 21.195 59.215H20.469V63.439Z" fill="white"/>
</svg>
