<svg width="140" height="141" viewBox="0 0 140 141" fill="none" xmlns="http://www.w3.org/2000/svg">
<g filter="url(#filter0_d)">
<path d="M47.5856 94.6949L29.6546 108.143C29.1322 108.535 28.4332 108.598 27.8491 108.306C27.265 108.014 26.896 107.417 26.896 106.764V89.5225L47.5856 94.6949Z" fill="#F8B64C"/>
<path d="M47.5869 44.6434L21.0938 34.7831C20.4309 34.5575 19.9894 33.9299 20.0012 33.2297C20.013 32.5296 20.4754 31.9172 21.1456 31.7141L68.8454 15.578C69.5941 15.321 70.4071 15.321 71.1557 15.578L118.856 31.7486C119.526 31.9517 119.988 32.5641 120 33.2642C120.012 33.9644 119.57 34.592 118.907 34.8176L92.4143 44.6434H47.5869Z" fill="#344958"/>
<path d="M92.4134 63.6608V39.523C92.4134 35.7127 82.3789 32.6265 69.9997 32.6265C57.6204 32.6265 47.5859 35.7127 47.5859 39.523V56.7643L92.4134 63.6608Z" fill="#40596B"/>
<path d="M113.103 96.4185V113.66C113.103 114.313 112.734 114.91 112.15 115.202C111.566 115.494 110.867 115.431 110.345 115.039L92.4136 101.591L113.103 96.4185Z" fill="#FB5134"/>
<path d="M119.999 60.2119V98.1428C119.993 100.045 118.453 101.585 116.551 101.591H69.9992C68.0972 101.585 66.5566 100.045 66.551 98.1428C66.551 93.2705 65.5423 100.245 73.4475 56.7637H116.551C118.453 56.7694 119.993 58.3099 119.999 60.2119Z" fill="#FF7058"/>
<path d="M69.9998 49.8667H23.4483C21.5438 49.8667 20 51.4105 20 53.315V91.2459C20 93.1503 21.5438 94.6941 23.4483 94.6941H69.9998C71.9043 94.6941 73.4481 93.1503 73.4481 91.2459V53.315C73.4481 51.4105 71.9043 49.8667 69.9998 49.8667Z" fill="#FFD15C"/>
<path d="M118.276 49.8674C117.324 49.8674 116.552 49.0955 116.552 48.1433V33.2813C116.552 32.329 117.324 31.5571 118.276 31.5571C119.228 31.5571 120 32.329 120 33.2813V48.1433C120 49.0955 119.228 49.8674 118.276 49.8674Z" fill="#FFAB00"/>
<path d="M97.778 71.0093V83.9453H99.868V91.2933H96.656V86.7173H86.822V91.2933H83.61V83.9453H84.82C85.3773 82.8453 85.898 81.672 86.382 80.4253C86.866 79.164 87.2987 77.7633 87.68 76.2233C88.076 74.6833 88.3913 72.9453 88.626 71.0093H97.778ZM94.456 73.7813H91.266C91.134 74.7933 90.9213 75.8933 90.628 77.0813C90.3493 78.2546 90.012 79.4353 89.616 80.6233C89.22 81.7966 88.7873 82.904 88.318 83.9453H94.456V73.7813Z" fill="white"/>
<path d="M45.8311 65.647C47.4281 65.647 48.846 65.9728 50.085 66.6245C51.3239 67.269 52.2871 68.175 52.9746 69.3423C53.6693 70.5024 54.0166 71.8381 54.0166 73.3491C54.0166 74.8459 53.6621 76.1779 52.9531 77.3452C52.2513 78.5125 51.2702 79.422 50.0098 80.0737C48.7493 80.7254 47.3027 81.0513 45.6699 81.0513H39.2031V65.647H45.8311ZM43.124 77.9253H45.917C46.7119 77.9253 47.4209 77.7355 48.0439 77.356C48.667 76.9764 49.154 76.4429 49.5049 75.7554C49.8558 75.0607 50.0312 74.2658 50.0312 73.3706C50.0312 72.4754 49.8486 71.6805 49.4834 70.9858C49.1182 70.2912 48.6061 69.7505 47.9473 69.3638C47.2956 68.9699 46.5615 68.7729 45.7451 68.7729H43.124V77.9253Z" fill="white"/>
</g>
<defs>
<filter id="filter0_d" x="0" y="0.385254" width="140" height="139.999" filterUnits="userSpaceOnUse" color-interpolation-filters="sRGB">
<feFlood flood-opacity="0" result="BackgroundImageFix"/>
<feColorMatrix in="SourceAlpha" type="matrix" values="0 0 0 0 0 0 0 0 0 0 0 0 0 0 0 0 0 0 127 0"/>
<feOffset dy="5"/>
<feGaussianBlur stdDeviation="10"/>
<feColorMatrix type="matrix" values="0 0 0 0 0.137255 0 0 0 0 0.407843 0 0 0 0 0.431373 0 0 0 0.2 0"/>
<feBlend mode="normal" in2="BackgroundImageFix" result="effect1_dropShadow"/>
<feBlend mode="normal" in="SourceGraphic" in2="effect1_dropShadow" result="shape"/>
</filter>
</defs>
</svg>
