<svg width="100" height="101" viewBox="0 0 100 101" fill="none" xmlns="http://www.w3.org/2000/svg">
<g clip-path="url(#clip0)">
<path d="M58.6205 3.94824H54.3102C52.8819 3.94824 51.724 5.10613 51.724 6.53445C51.724 7.96277 50.5661 9.12066 49.1378 9.12066H38.7929C37.3646 9.12066 36.2067 7.96277 36.2067 6.53445C36.2067 5.10613 35.0489 3.94824 33.6205 3.94824H29.3102H9.44812C6.13441 3.94824 3.44812 6.63453 3.44812 9.94824V94.5C3.44812 97.8137 6.13441 100.5 9.44812 100.5H78.4826C81.7963 100.5 84.4826 97.8137 84.4826 94.5V9.94824C84.4826 6.63453 81.7963 3.94824 78.4826 3.94824H58.6205Z" fill="#545E73"/>
<path d="M50.7238 0.5H37.2065C36.6543 0.5 36.2065 0.947715 36.2065 1.5V8.12069C36.2065 8.67297 36.6543 9.12069 37.2065 9.12069H50.7238C51.2761 9.12069 51.7238 8.67297 51.7238 8.12069V1.5C51.7238 0.947715 51.2761 0.5 50.7238 0.5Z" fill="#40596B"/>
<path d="M63.7929 9.12061V14.293H24.1377V9.12061H8.62048V95.3275H79.3101V9.12061H63.7929Z" fill="#F2F2F2"/>
<path d="M52.7239 3.94824C52.1716 3.94824 51.7239 4.39596 51.7239 4.94824V8.12066C51.7239 8.67294 51.2762 9.12066 50.7239 9.12066H37.2067C36.6544 9.12066 36.2067 8.67294 36.2067 8.12066V4.94824C36.2067 4.39596 35.7589 3.94824 35.2067 3.94824H25.1377C24.5854 3.94824 24.1377 4.39596 24.1377 4.94824V13.2931C24.1377 13.8454 24.5854 14.2931 25.1377 14.2931H62.7929C63.3452 14.2931 63.7929 13.8454 63.7929 13.2931V4.94824C63.7929 4.39596 63.3452 3.94824 62.7929 3.94824H52.7239Z" fill="#ACB3BA"/>
<path d="M41.3794 28.0862H18.9656C18.0121 28.0862 17.2415 27.3155 17.2415 26.3621C17.2415 25.4086 18.0121 24.6379 18.9656 24.6379H41.3794C42.3328 24.6379 43.1035 25.4086 43.1035 26.3621C43.1035 27.3155 42.3328 28.0862 41.3794 28.0862Z" fill="#CDD6E0"/>
<path d="M41.3794 81.5345H18.9656C18.0121 81.5345 17.2415 80.7638 17.2415 79.8103C17.2415 78.8569 18.0121 78.0862 18.9656 78.0862H41.3794C42.3328 78.0862 43.1035 78.8569 43.1035 79.8103C43.1035 80.7638 42.3328 81.5345 41.3794 81.5345Z" fill="#CDD6E0"/>
<path d="M68.9656 38.4312H18.9656C18.0121 38.4312 17.2415 37.6605 17.2415 36.707C17.2415 35.7536 18.0121 34.9829 18.9656 34.9829H68.9656C69.919 34.9829 70.6897 35.7536 70.6897 36.707C70.6897 37.6605 69.919 38.4312 68.9656 38.4312Z" fill="#CDD6E0"/>
<path d="M68.9656 59.1206H18.9656C18.0121 59.1206 17.2415 58.3499 17.2415 57.3965C17.2415 56.4431 18.0121 55.6724 18.9656 55.6724H68.9656C69.919 55.6724 70.6897 56.4431 70.6897 57.3965C70.6897 58.3499 69.919 59.1206 68.9656 59.1206Z" fill="#CDD6E0"/>
<path d="M68.9656 71.1897H18.9656C18.0121 71.1897 17.2415 70.419 17.2415 69.4656C17.2415 68.5121 18.0121 67.7415 18.9656 67.7415H68.9656C69.919 67.7415 70.6897 68.5121 70.6897 69.4656C70.6897 70.419 69.919 71.1897 68.9656 71.1897Z" fill="#CDD6E0"/>
<path d="M43.1035 48.7759H18.9656C18.0121 48.7759 17.2415 48.0052 17.2415 47.0518C17.2415 46.0983 18.0121 45.3276 18.9656 45.3276H43.1035C44.057 45.3276 44.8277 46.0983 44.8277 47.0518C44.8277 48.0052 44.057 48.7759 43.1035 48.7759Z" fill="#CDD6E0"/>
<path d="M68.9655 48.7759H56.8965C55.9431 48.7759 55.1724 48.0052 55.1724 47.0518C55.1724 46.0983 55.9431 45.3276 56.8965 45.3276H68.9655C69.9189 45.3276 70.6896 46.0983 70.6896 47.0518C70.6896 48.0052 69.9189 48.7759 68.9655 48.7759Z" fill="#CDD6E0"/>
<path d="M50 48.7757C49.5328 48.7757 49.1017 48.6016 48.7759 48.2757C48.4638 47.9482 48.2759 47.4999 48.2759 47.0516C48.2759 46.5844 48.4483 46.1533 48.7759 45.8275C49.4311 45.1723 50.569 45.1895 51.2242 45.8275C51.55 46.1533 51.7242 46.5844 51.7242 47.0516C51.7242 47.5171 51.5345 47.9482 51.2242 48.2757C50.8966 48.5861 50.4655 48.7757 50 48.7757Z" fill="#CDD6E0"/>
<path d="M75.0288 99.6667C86.4553 99.6667 95.7184 90.4036 95.7184 78.977C95.7184 67.5504 86.4553 58.2874 75.0288 58.2874C63.6022 58.2874 54.3391 67.5504 54.3391 78.977C54.3391 90.4036 63.6022 99.6667 75.0288 99.6667Z" fill="#F8B64C"/>
<path d="M86.3583 68.9402C85.5738 68.3954 84.5014 68.5885 83.9583 69.3712L74.31 83.2333L67.5014 77.6437C66.7669 77.0385 65.679 77.1471 65.0755 77.8833C64.4704 78.6195 64.5773 79.7057 65.3152 80.3092L73.5669 87.0833C73.8773 87.3368 74.2635 87.4747 74.66 87.4747C74.7376 87.4747 74.8169 87.4695 74.8962 87.4592C75.3721 87.3919 75.7997 87.1316 76.0755 86.7368L86.7893 71.3419C87.3324 70.5592 87.1393 69.485 86.3583 68.9402Z" fill="white"/>
</g>
<defs>
<clipPath id="clip0">
<rect width="100" height="100" fill="white" transform="translate(0 0.5)"/>
</clipPath>
</defs>
</svg>
