<svg width="133" height="141" viewBox="0 0 133 141" fill="none" xmlns="http://www.w3.org/2000/svg">
<g clip-path="url(#clip0)" filter="url(#filter0_d)">
<path d="M75.6207 18.8325H71.3103C69.882 18.8325 68.7241 19.9904 68.7241 21.4187C68.7241 22.847 67.5662 24.0049 66.1379 24.0049H55.7931C54.3647 24.0049 53.2069 22.847 53.2069 21.4187C53.2069 19.9904 52.049 18.8325 50.6207 18.8325H46.3103H26.4482C23.1345 18.8325 20.4482 21.5188 20.4482 24.8325V109.384C20.4482 112.698 23.1345 115.384 26.4482 115.384H95.4827C98.7964 115.384 101.483 112.698 101.483 109.384V24.8325C101.483 21.5188 98.7964 18.8325 95.4827 18.8325H75.6207Z" fill="#545E73"/>
<path d="M67.7243 15.3843H54.207C53.6547 15.3843 53.207 15.832 53.207 16.3843V23.005C53.207 23.5573 53.6547 24.005 54.207 24.005H67.7243C68.2766 24.005 68.7243 23.5573 68.7243 23.005V16.3843C68.7243 15.832 68.2766 15.3843 67.7243 15.3843Z" fill="#40596B"/>
<path d="M80.793 24.0049V29.1773H41.1378V24.0049H25.6206V110.212H96.3103V24.0049H80.793Z" fill="#F2F2F2"/>
<path d="M69.7239 18.8325C69.1716 18.8325 68.7239 19.2802 68.7239 19.8325V23.0049C68.7239 23.5572 68.2762 24.0049 67.7239 24.0049H54.2067C53.6544 24.0049 53.2067 23.5572 53.2067 23.0049V19.8325C53.2067 19.2802 52.7589 18.8325 52.2067 18.8325H42.1377C41.5854 18.8325 41.1377 19.2802 41.1377 19.8325V28.1773C41.1377 28.7296 41.5854 29.1773 42.1377 29.1773H79.7929C80.3452 29.1773 80.7929 28.7296 80.7929 28.1773V19.8325C80.7929 19.2802 80.3452 18.8325 79.7929 18.8325H69.7239Z" fill="#ACB3BA"/>
<path d="M58.3796 42.9705H35.9658C35.0124 42.9705 34.2417 42.1998 34.2417 41.2464C34.2417 40.2929 35.0124 39.5222 35.9658 39.5222H58.3796C59.3331 39.5222 60.1038 40.2929 60.1038 41.2464C60.1038 42.1998 59.3331 42.9705 58.3796 42.9705Z" fill="#CDD6E0"/>
<path d="M58.3796 96.4187H35.9658C35.0124 96.4187 34.2417 95.648 34.2417 94.6946C34.2417 93.7411 35.0124 92.9705 35.9658 92.9705H58.3796C59.3331 92.9705 60.1038 93.7411 60.1038 94.6946C60.1038 95.648 59.3331 96.4187 58.3796 96.4187Z" fill="#CDD6E0"/>
<path d="M85.9658 53.3155H35.9658C35.0124 53.3155 34.2417 52.5448 34.2417 51.5913C34.2417 50.6379 35.0124 49.8672 35.9658 49.8672H85.9658C86.9193 49.8672 87.69 50.6379 87.69 51.5913C87.69 52.5448 86.9193 53.3155 85.9658 53.3155Z" fill="#CDD6E0"/>
<path d="M85.9658 74.0049H35.9658C35.0124 74.0049 34.2417 73.2342 34.2417 72.2808C34.2417 71.3273 35.0124 70.5566 35.9658 70.5566H85.9658C86.9193 70.5566 87.69 71.3273 87.69 72.2808C87.69 73.2342 86.9193 74.0049 85.9658 74.0049Z" fill="#CDD6E0"/>
<path d="M85.9658 86.074H35.9658C35.0124 86.074 34.2417 85.3033 34.2417 84.3499C34.2417 83.3964 35.0124 82.6257 35.9658 82.6257H85.9658C86.9193 82.6257 87.69 83.3964 87.69 84.3499C87.69 85.3033 86.9193 86.074 85.9658 86.074Z" fill="#CDD6E0"/>
<path d="M60.1038 63.6602H35.9658C35.0124 63.6602 34.2417 62.8895 34.2417 61.9361C34.2417 60.9826 35.0124 60.2119 35.9658 60.2119H60.1038C61.0572 60.2119 61.8279 60.9826 61.8279 61.9361C61.8279 62.8895 61.0572 63.6602 60.1038 63.6602Z" fill="#CDD6E0"/>
<path d="M85.9655 63.6602H73.8965C72.9431 63.6602 72.1724 62.8895 72.1724 61.9361C72.1724 60.9826 72.9431 60.2119 73.8965 60.2119H85.9655C86.9189 60.2119 87.6896 60.9826 87.6896 61.9361C87.6896 62.8895 86.9189 63.6602 85.9655 63.6602Z" fill="#CDD6E0"/>
<path d="M67 63.66C66.5328 63.66 66.1017 63.4859 65.7759 63.16C65.4638 62.8324 65.2759 62.3842 65.2759 61.9359C65.2759 61.4686 65.4483 61.0376 65.7759 60.7117C66.4311 60.0566 67.569 60.0738 68.2242 60.7117C68.55 61.0376 68.7242 61.4686 68.7242 61.9359C68.7242 62.4014 68.5345 62.8324 68.2242 63.16C67.8966 63.4704 67.4655 63.66 67 63.66Z" fill="#CDD6E0"/>
<path d="M92.029 114.551C103.456 114.551 112.719 105.288 112.719 93.8613C112.719 82.4347 103.456 73.1716 92.029 73.1716C80.6024 73.1716 71.3394 82.4347 71.3394 93.8613C71.3394 105.288 80.6024 114.551 92.029 114.551Z" fill="#F8B64C"/>
<path d="M103.359 83.8245C102.574 83.2797 101.502 83.4728 100.959 84.2555L91.3103 98.1176L84.5016 92.5279C83.7672 91.9228 82.6792 92.0314 82.0758 92.7676C81.4706 93.5038 81.5775 94.59 82.3154 95.1935L90.5672 101.968C90.8775 102.221 91.2637 102.359 91.6603 102.359C91.7379 102.359 91.8172 102.354 91.8965 102.343C92.3723 102.276 92.7999 102.016 93.0758 101.621L103.79 86.2262C104.333 85.4435 104.14 84.3693 103.359 83.8245Z" fill="white"/>
</g>
<defs>
<filter id="filter0_d" x="-3" y="0.384277" width="140" height="140" filterUnits="userSpaceOnUse" color-interpolation-filters="sRGB">
<feFlood flood-opacity="0" result="BackgroundImageFix"/>
<feColorMatrix in="SourceAlpha" type="matrix" values="0 0 0 0 0 0 0 0 0 0 0 0 0 0 0 0 0 0 127 0"/>
<feOffset dy="5"/>
<feGaussianBlur stdDeviation="10"/>
<feColorMatrix type="matrix" values="0 0 0 0 0.137255 0 0 0 0 0.407843 0 0 0 0 0.431373 0 0 0 0.2 0"/>
<feBlend mode="normal" in2="BackgroundImageFix" result="effect1_dropShadow"/>
<feBlend mode="normal" in="SourceGraphic" in2="effect1_dropShadow" result="shape"/>
</filter>
<clipPath id="clip0">
<rect width="100" height="100" fill="white" transform="translate(17 15.3843)"/>
</clipPath>
</defs>
</svg>
