<svg width="100" height="100" viewBox="0 0 100 100" fill="none" xmlns="http://www.w3.org/2000/svg">
<path d="M54.7169 52.8302H50.9434V86.7925H54.7169V52.8302Z" fill="#424A60"/>
<path d="M88.1268 12.6539L85.4585 9.9856L57.1572 38.2869L59.8255 40.9552L88.1268 12.6539Z" fill="#424A60"/>
<path d="M50.3907 50.3902L47.7224 47.7219L9.98729 85.457L12.6556 88.1254L50.3907 50.3902Z" fill="#424A60"/>
<path d="M46.6166 36.401L25.8625 15.647L23.1942 18.3153L43.9483 39.0693L46.6166 36.401Z" fill="#424A60"/>
<path d="M86.2391 76.0223L57.9377 47.7209L55.2694 50.3892L83.5708 78.6906L86.2391 76.0223Z" fill="#424A60"/>
<path d="M90.566 18.8679C95.7763 18.8679 100 14.6442 100 9.43396C100 4.22373 95.7763 0 90.566 0C85.3558 0 81.1321 4.22373 81.1321 9.43396C81.1321 14.6442 85.3558 18.8679 90.566 18.8679Z" fill="#F8B64C"/>
<path d="M52.8302 100C58.0404 100 62.2642 95.7763 62.2642 90.566C62.2642 85.3558 58.0404 81.1321 52.8302 81.1321C47.62 81.1321 43.3962 85.3558 43.3962 90.566C43.3962 95.7763 47.62 100 52.8302 100Z" fill="#89D6F7"/>
<path d="M9.43396 96.2264C14.6442 96.2264 18.8679 92.0027 18.8679 86.7925C18.8679 81.5822 14.6442 77.3585 9.43396 77.3585C4.22373 77.3585 0 81.5822 0 86.7925C0 92.0027 4.22373 96.2264 9.43396 96.2264Z" fill="#FB5134"/>
<path d="M22.6415 20.7547C25.7676 20.7547 28.3018 18.2205 28.3018 15.0943C28.3018 11.9682 25.7676 9.43396 22.6415 9.43396C19.5153 9.43396 16.9811 11.9682 16.9811 15.0943C16.9811 18.2205 19.5153 20.7547 22.6415 20.7547Z" fill="#FF7058"/>
<path d="M83.0188 81.132C86.1449 81.132 88.6792 78.5978 88.6792 75.4717C88.6792 72.3455 86.1449 69.8113 83.0188 69.8113C79.8926 69.8113 77.3584 72.3455 77.3584 75.4717C77.3584 78.5978 79.8926 81.132 83.0188 81.132Z" fill="#FFD15C"/>
<path d="M52.8301 58.4905C60.1244 58.4905 66.0377 52.5773 66.0377 45.283C66.0377 37.9887 60.1244 32.0754 52.8301 32.0754C45.5358 32.0754 39.6226 37.9887 39.6226 45.283C39.6226 52.5773 45.5358 58.4905 52.8301 58.4905Z" fill="#55BFE9"/>
</svg>
