<svg width="140" height="141" viewBox="0 0 140 141" fill="none" xmlns="http://www.w3.org/2000/svg">
<g clip-path="url(#clip0)" filter="url(#filter0_d)">
<path d="M115.836 15.4155H24.2261C21.9358 15.4155 20.062 17.2893 20.062 19.5796V32.6965H119.999V19.5796C120 17.2893 118.126 15.4155 115.836 15.4155Z" fill="#40596B"/>
<path d="M119.937 32.8403H20V90.5126H119.937V32.8403Z" fill="#CDD6E0"/>
<path d="M114.732 38.0454H25.2051V85.3075H114.732V38.0454Z" fill="#F2F2F2"/>
<path d="M29.6404 28.5324C32.0551 28.5324 34.0126 26.5749 34.0126 24.1601C34.0126 21.7454 32.0551 19.7878 29.6404 19.7878C27.2256 19.7878 25.2681 21.7454 25.2681 24.1601C25.2681 26.5749 27.2256 28.5324 29.6404 28.5324Z" fill="#FFD15C"/>
<path d="M41.5071 28.5324C43.9218 28.5324 45.8794 26.5749 45.8794 24.1601C45.8794 21.7454 43.9218 19.7878 41.5071 19.7878C39.0923 19.7878 37.1348 21.7454 37.1348 24.1601C37.1348 26.5749 39.0923 28.5324 41.5071 28.5324Z" fill="#ACB3BA"/>
<path d="M53.3752 28.5324C55.79 28.5324 57.7475 26.5749 57.7475 24.1601C57.7475 21.7454 55.79 19.7878 53.3752 19.7878C50.9605 19.7878 49.0029 21.7454 49.0029 24.1601C49.0029 26.5749 50.9605 28.5324 53.3752 28.5324Z" fill="#84DBFF"/>
<path d="M108.965 19.5798H73.5705C71.0721 19.5798 69.1982 21.6619 69.1982 23.9521C69.1982 26.2424 71.2803 28.3244 73.5705 28.3244H108.965C111.464 28.3244 113.337 26.2424 113.337 23.9521C113.337 21.6619 111.255 19.5798 108.965 19.5798Z" fill="#ACB3BA"/>
<path d="M103.759 81.624C103.759 100.362 88.5604 115.353 70.0306 115.353C51.2922 115.353 36.3018 100.154 36.3018 81.624C36.3018 74.7532 38.3838 68.2991 41.9232 62.8857C42.3396 62.4693 42.5479 61.8448 42.9641 61.4283C47.9611 54.7658 55.0399 50.1855 63.5762 48.5197H63.7844C65.8665 48.1032 67.9485 47.895 70.0306 47.895C70.8634 47.895 71.6961 47.895 72.529 47.895C73.5699 47.895 74.6111 48.1032 75.652 48.3115C89.3933 50.6017 100.428 61.2201 103.135 74.7532C103.135 75.1697 103.343 75.3779 103.343 75.7942C103.551 77.6682 103.759 79.542 103.759 81.624Z" fill="#89D6F7"/>
<path d="M68.1577 54.1417C68.1577 55.1826 66.4921 55.3908 65.6592 55.599C65.0345 55.8072 64.4101 56.4319 63.7854 57.0564C62.5363 58.3055 61.0787 59.3466 59.4131 60.1793C57.7475 61.0122 55.6655 61.6367 54.4161 60.1793C58.1638 58.5138 61.0787 55.1824 62.5361 51.2265C60.6623 52.2676 59.2049 53.9332 57.7473 55.1824C55.8735 56.6397 53.7915 57.8891 52.1259 59.5547C50.4603 61.2203 49.0029 63.3023 49.0029 65.8008C49.0029 64.5516 48.17 63.0941 46.9209 62.4696C45.88 61.6367 44.4224 61.4287 42.9651 61.4287C42.9651 61.4287 42.9651 61.4287 42.7568 61.4287C47.7538 54.7661 54.8326 50.1858 63.369 48.52H63.5772C63.9936 50.1856 65.0345 51.8512 66.4921 52.6841C67.533 52.8923 68.1577 53.517 68.1577 54.1417Z" fill="#55BFE9"/>
<path d="M75.653 48.312C76.4858 48.7285 77.3185 49.3529 77.9432 49.9776C78.1514 50.1858 78.1514 50.394 78.1514 50.6023C77.9432 51.2269 77.1105 51.0187 76.4858 51.4352C75.4449 51.8516 75.8612 53.309 76.6941 53.9336C77.527 54.5583 78.5679 54.5583 79.609 55.1828C80.0254 55.391 80.2337 55.5992 80.2337 56.0157C80.2337 56.2239 80.0254 56.4321 79.8172 56.6403C78.7763 57.8895 77.527 59.1388 76.486 60.388C76.2778 60.5962 75.8614 61.0126 75.4451 61.2209C75.0289 61.4291 74.4042 61.4291 73.7795 61.4291C71.6975 61.4291 68.9908 61.8455 68.3663 63.9276C68.1581 64.344 68.1581 64.9685 67.9499 65.3849C67.5334 65.8014 67.117 65.8014 66.7007 66.2178C66.2843 66.8425 66.909 67.6752 66.909 68.5081C67.1172 69.7572 65.6598 70.7983 64.6187 70.3819C64.6187 69.1327 64.6187 67.6752 64.4105 66.426C64.4105 66.2178 64.4105 66.0096 64.2023 65.8014C63.994 65.5932 63.7858 65.5932 63.5776 65.3849C62.3285 64.9685 60.8709 64.7603 59.83 65.8014C58.9971 66.8423 59.4135 68.2999 60.0382 69.3408C60.6629 70.3817 61.7038 71.4228 61.7038 72.8802C61.7038 73.5048 61.4956 74.3375 60.8709 74.3375C60.038 74.5458 59.4135 73.2966 59.4135 72.4637C58.5806 74.754 58.1644 77.6687 58.5806 80.3754C56.7068 80.7919 54.833 81.4163 52.9592 81.8328C52.3345 82.041 51.5018 82.2492 51.0854 82.8737C50.6689 83.4984 50.6689 84.1228 50.6689 84.7475C50.6689 87.0378 51.2936 89.328 52.3345 91.4101C52.751 92.0347 53.1674 92.8674 53.7919 93.2839C55.6657 94.533 58.1642 93.9085 60.2462 94.533C62.12 94.9495 63.5774 96.4068 64.4103 98.0724C65.2432 99.738 65.8677 101.612 66.2841 103.486C66.4923 104.319 66.7005 105.151 67.325 105.776C67.9497 106.401 69.1988 106.609 70.0317 106.817C71.6973 107.025 73.5711 107.442 75.0287 106.401C76.2778 105.776 77.1107 104.319 78.5681 103.694C79.401 103.277 80.6501 103.486 81.483 103.277C82.5239 103.069 83.565 102.236 83.1486 101.195C82.9404 100.362 81.6912 99.5298 81.8995 98.6969C82.1077 98.0722 82.9404 97.864 83.565 97.6558C86.2718 96.6148 87.9373 93.0752 86.48 90.3687C86.2717 89.9523 86.0635 89.5358 85.8553 89.1196C85.8553 87.6622 87.7291 87.2458 88.7702 86.2047C89.6031 85.1638 89.6031 83.9144 89.8111 82.4571C90.0194 81.2079 90.4358 79.7503 91.685 79.3341C92.9341 78.9177 94.1834 79.9588 94.8079 80.9997C95.4326 82.0406 96.057 83.2899 97.0982 83.9146C97.0982 81.6244 97.0982 79.3341 97.0982 77.2521C97.0982 76.4192 97.0982 75.5865 97.7228 74.9618C98.5557 73.9209 100.221 74.1289 101.47 74.5454C101.887 74.5454 102.303 74.7536 102.72 74.7536C100.429 61.2205 89.3943 50.6021 75.653 48.312ZM82.3155 70.1733C82.732 70.1733 83.1484 70.1733 83.5646 70.1733C83.3564 71.0062 83.5646 71.8389 84.1893 72.4635C84.3975 72.6718 84.814 72.88 85.0222 73.2964C85.6469 73.9211 85.8551 74.962 85.4387 75.7949C84.814 75.7949 83.9813 75.7949 83.3566 75.7949C82.732 75.5867 81.8993 75.1702 81.691 74.5458C81.4828 74.1293 81.4828 73.7129 81.4828 73.2966C81.2744 72.0471 81.2744 70.7979 82.3155 70.1733ZM72.3218 81.8326C71.2809 81.6244 70.2397 80.9997 69.1988 80.3752C67.7415 79.5423 66.0759 79.1261 64.6183 79.1261C63.9936 79.1261 63.3692 79.1261 62.9527 79.1261C62.3281 78.9179 61.9118 78.7096 61.7036 78.0852C61.4954 77.4605 61.9118 76.6278 62.5365 76.2113C63.1612 75.7949 63.7856 75.5867 64.4103 75.1702L64.6185 74.1293C65.8677 75.3785 67.5334 76.4196 69.199 77.0442C70.0319 77.4607 70.8646 77.6689 71.6975 77.6689C72.5304 77.6689 73.5713 77.6689 74.4042 77.6689C74.6124 77.6689 75.0289 77.6689 75.2371 77.6689C75.8618 77.6689 76.4863 77.6689 77.1109 77.4607C77.9438 77.4607 78.5683 77.2525 79.1929 76.836C79.4012 77.6689 78.9847 78.7098 78.3601 79.3345C77.7354 79.9592 76.9027 80.3754 75.8616 80.7919C75.0285 81.4161 73.5709 82.0408 72.3218 81.8326ZM85.4385 88.4951C85.4385 88.7034 85.2302 88.9116 85.022 89.1198C84.8138 89.1198 84.8138 89.328 84.6056 89.328C83.1482 89.5362 81.4826 89.7445 80.4415 88.7034C79.8168 88.2869 79.6086 87.6624 79.1924 87.0378C78.7759 86.2049 78.3595 85.5804 77.9432 84.7475C77.5268 83.9146 77.1103 83.0819 77.3185 82.249C77.9432 82.249 78.7759 82.249 79.4006 82.4573L79.6088 82.6655C79.4006 83.2901 79.6088 83.9146 80.0252 84.3311C80.4417 84.7475 81.0664 84.9557 81.4826 85.164C81.8991 85.3722 82.3155 85.5804 82.94 85.7886C83.5646 85.9968 84.1891 86.4133 84.8138 86.8295C85.2304 87.0378 85.4385 87.6622 85.4385 88.4951ZM87.7287 81.2079C87.5205 81.4161 87.5205 81.4161 87.3123 81.4161C86.0631 81.8326 84.3973 80.7915 84.1893 79.3341L84.3975 79.1259C85.4385 79.1259 86.4796 79.1259 87.3125 79.1259C87.5207 79.1259 87.7289 79.1259 87.7289 79.3341C87.9371 79.5423 87.9371 79.7505 87.9371 79.7505C88.1452 80.3752 88.1452 80.9999 87.7287 81.2079Z" fill="#55BFE9"/>
</g>
<defs>
<filter id="filter0_d" x="0" y="0.384277" width="140" height="140" filterUnits="userSpaceOnUse" color-interpolation-filters="sRGB">
<feFlood flood-opacity="0" result="BackgroundImageFix"/>
<feColorMatrix in="SourceAlpha" type="matrix" values="0 0 0 0 0 0 0 0 0 0 0 0 0 0 0 0 0 0 127 0"/>
<feOffset dy="5"/>
<feGaussianBlur stdDeviation="10"/>
<feColorMatrix type="matrix" values="0 0 0 0 0.137255 0 0 0 0 0.407843 0 0 0 0 0.431373 0 0 0 0.2 0"/>
<feBlend mode="normal" in2="BackgroundImageFix" result="effect1_dropShadow"/>
<feBlend mode="normal" in="SourceGraphic" in2="effect1_dropShadow" result="shape"/>
</filter>
<clipPath id="clip0">
<rect width="100" height="100" fill="white" transform="translate(20 15.3843)"/>
</clipPath>
</defs>
</svg>
