<svg width="100" height="100" viewBox="0 0 100 100" fill="none" xmlns="http://www.w3.org/2000/svg">
<g clip-path="url(#clip0)">
<path d="M68.7391 61.2433L61.0354 61.035L61.2436 68.7387C61.4519 81.2313 71.8623 91.4336 84.3549 91.85L92.0586 92.0583L91.8504 84.3546C91.4337 71.862 81.2315 61.4515 68.7391 61.2433Z" fill="#F8B64C"/>
<path d="M70.821 65.4076L65.4076 65.1993L65.6158 70.6127C65.8241 79.5658 73.3195 87.0612 82.2726 87.2695L87.686 87.4777L87.4777 82.0643C87.2695 73.1113 79.7738 65.6158 70.821 65.4076Z" fill="#FFD15C"/>
<path d="M99.9705 60.6187C98.9296 58.7448 97.472 57.0792 96.0146 55.6216C92.2668 51.8738 87.6862 49.3753 82.6891 48.1261C73.3197 45.8358 62.9093 48.3343 55.6218 55.6216C48.3344 62.9088 45.836 73.3193 48.1264 82.6888C49.3755 87.4777 51.8741 92.2664 55.6218 96.0141C57.0792 97.4715 58.9531 98.9291 60.6189 99.9701C49.792 100.387 38.5488 96.4306 30.2204 88.1022C23.5577 81.4394 19.8099 73.3193 18.5608 64.7827C16.8951 52.4983 20.8511 39.7975 30.2204 30.4282C39.5897 21.0588 52.4988 17.1029 64.5749 18.7685C73.1115 20.0177 81.4399 23.7656 87.8944 30.4282C96.431 38.5485 100.387 49.7919 99.9705 60.6187Z" fill="#FF7058"/>
<path d="M82.0643 60.8269C76.2344 25.2232 45.6277 -1.01115 7.7335 0.029799L0.238029 0.238029L0.029799 7.7335C-1.01115 45.6277 25.2232 76.2344 60.8269 82.0643L82.0643 60.8269Z" fill="#F2F2F2"/>
<path d="M44.5865 77.4839C49.7917 79.566 55.2053 81.0234 60.8269 82.0646L81.856 61.0354C81.0231 55.4138 79.3575 50.0002 77.2754 44.795L44.5865 77.4839Z" fill="#40596B"/>
<path d="M32.5111 3.36199C24.8075 1.07167 16.4791 -0.177708 7.73422 0.0305212L0.238754 0.238751L0.0305241 7.73422C-0.177705 16.4791 1.07147 24.8074 3.3618 32.5111L32.5111 3.36199Z" fill="#40596B"/>
<path d="M60.8271 82.0643C62.9092 82.4807 65.1996 82.6889 67.2817 82.8972L82.6891 67.4898C82.4808 65.1995 82.2726 63.1174 81.8561 61.0353L60.8271 82.0643Z" fill="#F2F2F2"/>
<path d="M34.7744 50.8953C43.6286 50.8953 50.8063 43.7176 50.8063 34.8634C50.8063 26.0093 43.6286 18.8315 34.7744 18.8315C25.9203 18.8315 18.7426 26.0093 18.7426 34.8634C18.7426 43.7176 25.9203 50.8953 34.7744 50.8953Z" fill="#40596B"/>
<path d="M34.7746 46.1068C40.984 46.1068 46.0178 41.073 46.0178 34.8636C46.0178 28.6541 40.984 23.6204 34.7746 23.6204C28.5651 23.6204 23.5314 28.6541 23.5314 34.8636C23.5314 41.073 28.5651 46.1068 34.7746 46.1068Z" fill="#84DBFF"/>
<path d="M27.7219 29.3874C31.6779 25.4314 37.9242 25.4314 41.8801 29.3874C45.6278 33.1351 45.8361 39.1732 42.2966 43.1291C42.5048 42.9209 42.713 42.9209 42.713 42.7127C47.0855 38.3402 47.0855 31.2612 42.713 26.8888C38.3406 22.5164 31.2616 22.5164 26.8892 26.8888C22.5168 31.2612 22.5168 38.3402 26.8892 42.7127C27.0974 42.9209 27.3056 42.9209 27.3056 43.1291C23.9742 39.1732 23.9742 33.1351 27.7219 29.3874Z" fill="#54C0EB"/>
</g>
<defs>
<clipPath id="clip0">
<rect width="100" height="100" fill="white"/>
</clipPath>
</defs>
</svg>
