<svg width="100" height="100" viewBox="0 0 100 100" fill="none" xmlns="http://www.w3.org/2000/svg">
<g clip-path="url(#clip0)">
<path d="M91.7173 31.552C91.7173 31.552 75.1645 16.3414 66.8882 7.84141C58.6118 -0.658606 49.9998 0.0124898 49.9998 0.0124898C49.9998 0.0124898 41.3879 -0.658801 33.1115 7.84141C24.8351 16.3416 8.28238 31.552 8.28238 31.552L6.26929 38.9337V100H93.7306V38.9337L91.7173 31.552Z" fill="#F8B64C"/>
<path d="M86.5726 67.647C86.5726 69.0493 85.4358 70.186 84.0335 70.186H17.7556C16.3533 70.186 15.2166 69.0493 15.2166 67.647V21.1172C15.2166 19.7148 16.3533 18.5781 17.7556 18.5781H84.0335C85.4358 18.5781 86.5726 19.7148 86.5726 21.1172V67.647Z" fill="#F2F2F2"/>
<path d="M81.2596 44.672C81.2596 45.5752 80.5706 46.3078 79.7201 46.3078H49.4657C48.6155 46.3078 47.9263 45.5755 47.9263 44.672V44.6103C47.9263 43.7071 48.6155 42.9745 49.4657 42.9745H79.7201C80.5704 42.9745 81.2596 43.7069 81.2596 44.6103V44.672Z" fill="#CDD6E0"/>
<path d="M18.333 54.1262L29.0787 34.1278L33.6646 45.1902C33.6646 45.1902 33.5606 40.1638 37.0152 40.2437C40.4698 40.3236 43.1077 54.1262 43.1077 54.1262H18.333Z" fill="#CDD6E0"/>
<path d="M35.747 38.5078C36.957 38.5078 37.9379 37.5269 37.9379 36.3169C37.9379 35.1069 36.957 34.126 35.747 34.126C34.537 34.126 33.5562 35.1069 33.5562 36.3169C33.5562 37.5269 34.537 38.5078 35.747 38.5078Z" fill="#CDD6E0"/>
<path opacity="0.07" d="M36.9889 64.5828L40.0449 64.4338L13.9492 39.9773L6.26929 38.9333L36.9889 64.5828Z" fill="#2D404E"/>
<path d="M81.2596 53.0053C81.2596 53.9084 80.5706 54.6411 79.7201 54.6411H49.4657C48.6155 54.6411 47.9263 53.9087 47.9263 53.0053V52.9436C47.9263 52.0404 48.6155 51.3077 49.4657 51.3077H79.7201C80.5704 51.3077 81.2596 52.0401 81.2596 52.9436V53.0053Z" fill="#CDD6E0"/>
<path opacity="0.07" d="M62.9923 64.5828L59.9363 64.4338L86.032 39.9773L93.7119 38.9333L62.9923 64.5828Z" fill="#2D404E"/>
<path d="M6.26929 38.9333V99.9995L37.0139 64.5451L13.6509 40.5738L6.26929 38.9333Z" fill="#FFD15C"/>
<path d="M93.7119 38.9333V99.9995L62.9675 64.5451L86.3303 40.5738L93.7119 38.9333Z" fill="#FFD15C"/>
<path opacity="0.54" d="M6.26929 100V92.6185L35.9539 63.4581L37.0139 64.5456L6.26929 100Z" fill="#D89932"/>
<path opacity="0.54" d="M93.7119 100V92.6185L64.0275 63.4581L62.9675 64.5456L93.7119 100Z" fill="#D89932"/>
<path d="M91.5401 92.9536C91.5401 92.9536 67.9347 68.2365 65.7986 66.2234C63.6623 64.2103 61.9533 64.4342 61.9533 64.4342H49.9906H38.0276C38.0276 64.4342 36.3187 64.2103 34.1823 66.2234C32.046 68.2367 8.44107 92.9536 8.44107 92.9536L6.41138 99.9997H49.9906H93.5695L91.5401 92.9536Z" fill="#FFD15C"/>
<path d="M81.2596 36.3386C81.2596 37.2418 80.5706 37.9744 79.7201 37.9744H49.4657C48.6155 37.9744 47.9263 37.2421 47.9263 36.3386V36.2769C47.9263 35.3738 48.6155 34.6411 49.4657 34.6411H79.7201C80.5704 34.6411 81.2596 35.3735 81.2596 36.2769V36.3386Z" fill="#CDD6E0"/>
<path d="M32.5292 18.5781L29.8098 23.5738H34.1266L36.846 18.5781H32.5292Z" fill="#FF7058"/>
<path d="M28.2118 18.5781L25.4927 23.5738H29.8095L32.5288 18.5781H28.2118Z" fill="#E2E5E7"/>
<path d="M36.8458 18.5781L34.1265 23.5738H38.4435L41.1626 18.5781H36.8458Z" fill="#E2E5E7"/>
<path d="M45.4796 18.5781L42.7603 23.5738H47.0773L49.7964 18.5781H45.4796Z" fill="#E2E5E7"/>
<path d="M15.2166 23.5738V20.4165C15.4167 19.5835 16.2678 18.4407 18.4822 18.5781H19.5785L16.8591 23.5738H15.2166Z" fill="#FF7058"/>
<path d="M19.5785 18.5781L16.8591 23.5738H21.1759L23.8953 18.5781H19.5785Z" fill="#E2E5E7"/>
<path d="M71.381 18.5781L68.6619 23.5738H72.9789L75.698 18.5781H71.381Z" fill="#E2E5E7"/>
<path d="M80.0147 18.5781L77.2954 23.5738H81.6124L84.3317 18.5781H80.0147Z" fill="#E2E5E7"/>
<path d="M49.7968 18.5781L47.0776 23.5738H51.3945L54.1138 18.5781H49.7968Z" fill="#FF7058"/>
<path d="M81.6125 23.5738L84.3319 18.5781L85.0004 18.7498C85.5244 18.9531 86.5725 19.7377 86.5725 21.2498V23.5738H81.6125Z" fill="#FF7058"/>
<path d="M67.0639 18.5781L64.3447 23.5738H68.6615L71.3807 18.5781H67.0639Z" fill="#FF7058"/>
<path d="M54.1136 18.5781L51.3943 23.5738H55.7113L58.4304 18.5781H54.1136Z" fill="#E2E5E7"/>
<path d="M41.1632 18.5781L38.4441 23.5738H42.7609L45.4802 18.5781H41.1632Z" fill="#40596B"/>
<path d="M23.8956 18.5781L21.1763 23.5738H25.4933L28.2124 18.5781H23.8956Z" fill="#40596B"/>
<path d="M75.6982 18.5781L72.979 23.5738H77.2956L80.015 18.5781H75.6982Z" fill="#40596B"/>
<path d="M58.4303 18.5781L55.7112 23.5738H60.028L62.7471 18.5781H58.4303Z" fill="#40596B"/>
<path d="M62.7472 18.5781L60.0281 23.5738H64.3451L67.0642 18.5781H62.7472Z" fill="#E2E5E7"/>
</g>
<defs>
<clipPath id="clip0">
<rect width="100" height="100" fill="white"/>
</clipPath>
</defs>
</svg>
