<svg width="140" height="141" viewBox="0 0 140 141" fill="none" xmlns="http://www.w3.org/2000/svg">
<g filter="url(#filter0_d)">
<path d="M47.5856 94.6949L29.6546 108.143C29.1322 108.535 28.4332 108.598 27.8491 108.306C27.265 108.014 26.896 107.417 26.896 106.764V89.5225L47.5856 94.6949Z" fill="#FB5134"/>
<path d="M47.5869 44.6434L21.0938 34.7831C20.4309 34.5575 19.9894 33.9299 20.0012 33.2297C20.013 32.5296 20.4754 31.9172 21.1456 31.7141L68.8454 15.578C69.5941 15.321 70.4071 15.321 71.1557 15.578L118.856 31.7486C119.526 31.9517 119.988 32.5641 120 33.2642C120.012 33.9644 119.57 34.592 118.907 34.8176L92.4143 44.6434H47.5869Z" fill="#344958"/>
<path d="M92.4134 63.6608V39.523C92.4134 35.7127 82.3789 32.6265 69.9997 32.6265C57.6204 32.6265 47.5859 35.7127 47.5859 39.523V56.7643L92.4134 63.6608Z" fill="#40596B"/>
<path d="M113.103 96.4185V113.66C113.103 114.313 112.734 114.91 112.15 115.202C111.566 115.494 110.867 115.431 110.345 115.039L92.4136 101.591L113.103 96.4185Z" fill="#55BFE9"/>
<path d="M119.999 60.2119V98.1428C119.993 100.045 118.453 101.585 116.551 101.591H69.9992C68.0972 101.585 66.5566 100.045 66.551 98.1428C66.551 93.2705 65.5423 100.245 73.4475 56.7637H116.551C118.453 56.7694 119.993 58.3099 119.999 60.2119Z" fill="#89D6F7"/>
<path d="M69.9998 49.8667H23.4483C21.5438 49.8667 20 51.4105 20 53.315V91.2459C20 93.1503 21.5438 94.6941 23.4483 94.6941H69.9998C71.9043 94.6941 73.4481 93.1503 73.4481 91.2459V53.315C73.4481 51.4105 71.9043 49.8667 69.9998 49.8667Z" fill="#FF7058"/>
<path d="M118.276 49.8674C117.324 49.8674 116.552 49.0955 116.552 48.1433V33.2813C116.552 32.329 117.324 31.5571 118.276 31.5571C119.228 31.5571 120 32.329 120 33.2813V48.1433C120 49.0955 119.228 49.8674 118.276 49.8674Z" fill="#FFAB00"/>
<path d="M86.313 72.0093H89.305V79.5993C89.305 79.966 89.2977 80.3766 89.283 80.8313C89.2683 81.286 89.2537 81.7333 89.239 82.1733C89.2243 82.5986 89.2097 82.9726 89.195 83.2953C89.1803 83.6033 89.1657 83.816 89.151 83.9333H89.217L96.477 72.0093H100.459V87.7173H97.489V80.1713C97.489 79.7753 97.4963 79.3426 97.511 78.8733C97.5257 78.3893 97.5403 77.9273 97.555 77.4873C97.5843 77.0473 97.6063 76.666 97.621 76.3433C97.6503 76.006 97.6723 75.786 97.687 75.6833H97.599L90.317 87.7173H86.313V72.0093Z" fill="white"/>
<path d="M37.147 81.0513V65.3433H40.469V71.3713H41.547C42.999 71.3713 44.1943 71.5766 45.133 71.9873C46.0717 72.3979 46.761 72.9626 47.201 73.6813C47.6557 74.3999 47.883 75.2213 47.883 76.1453C47.883 77.6999 47.3697 78.9099 46.343 79.7753C45.3163 80.6259 43.681 81.0513 41.437 81.0513H37.147ZM49.797 81.0513V65.3433H53.119V81.0513H49.797ZM40.469 78.3233H41.349C42.3317 78.3233 43.1017 78.1619 43.659 77.8393C44.231 77.5166 44.517 76.9519 44.517 76.1453C44.517 75.3093 44.2237 74.7593 43.637 74.4953C43.065 74.2313 42.251 74.0993 41.195 74.0993H40.469V78.3233Z" fill="white"/>
</g>
<defs>
<filter id="filter0_d" x="0" y="0.385254" width="140" height="139.999" filterUnits="userSpaceOnUse" color-interpolation-filters="sRGB">
<feFlood flood-opacity="0" result="BackgroundImageFix"/>
<feColorMatrix in="SourceAlpha" type="matrix" values="0 0 0 0 0 0 0 0 0 0 0 0 0 0 0 0 0 0 127 0"/>
<feOffset dy="5"/>
<feGaussianBlur stdDeviation="10"/>
<feColorMatrix type="matrix" values="0 0 0 0 0.137255 0 0 0 0 0.407843 0 0 0 0 0.431373 0 0 0 0.2 0"/>
<feBlend mode="normal" in2="BackgroundImageFix" result="effect1_dropShadow"/>
<feBlend mode="normal" in="SourceGraphic" in2="effect1_dropShadow" result="shape"/>
</filter>
</defs>
</svg>
