<svg width="141" height="140" viewBox="0 0 141 140" fill="none" xmlns="http://www.w3.org/2000/svg">
<g clip-path="url(#clip0)" filter="url(#filter0_d)">
<g clip-path="url(#clip1)">
<path d="M74.9767 67.7144H71.2031V101.677H74.9767V67.7144Z" fill="#424A60"/>
<path d="M108.387 27.5382L105.718 24.8699L77.4169 53.1712L80.0852 55.8395L108.387 27.5382Z" fill="#424A60"/>
<path d="M70.6507 65.2745L67.9824 62.6062L30.2473 100.341L32.9156 103.01L70.6507 65.2745Z" fill="#424A60"/>
<path d="M66.8766 51.2853L46.1226 30.5312L43.4543 33.1996L64.2083 53.9536L66.8766 51.2853Z" fill="#424A60"/>
<path d="M106.499 90.9066L78.1973 62.6052L75.529 65.2735L103.83 93.5749L106.499 90.9066Z" fill="#424A60"/>
<path d="M110.826 33.7522C116.036 33.7522 120.26 29.5285 120.26 24.3182C120.26 19.108 116.036 14.8843 110.826 14.8843C105.615 14.8843 101.392 19.108 101.392 24.3182C101.392 29.5285 105.615 33.7522 110.826 33.7522Z" fill="#F8B64C"/>
<path d="M73.0897 114.884C78.3 114.884 82.5237 110.661 82.5237 105.45C82.5237 100.24 78.3 96.0164 73.0897 96.0164C67.8795 96.0164 63.6558 100.24 63.6558 105.45C63.6558 110.661 67.8795 114.884 73.0897 114.884Z" fill="#89D6F7"/>
<path d="M29.6937 111.111C34.904 111.111 39.1277 106.887 39.1277 101.677C39.1277 96.4664 34.904 92.2427 29.6937 92.2427C24.4835 92.2427 20.2598 96.4664 20.2598 101.677C20.2598 106.887 24.4835 111.111 29.6937 111.111Z" fill="#FB5134"/>
<path d="M42.9011 35.6391C46.0272 35.6391 48.5615 33.1049 48.5615 29.9787C48.5615 26.8526 46.0272 24.3184 42.9011 24.3184C39.775 24.3184 37.2407 26.8526 37.2407 29.9787C37.2407 33.1049 39.775 35.6391 42.9011 35.6391Z" fill="#FF7058"/>
<path d="M103.279 96.0163C106.405 96.0163 108.939 93.4821 108.939 90.3559C108.939 87.2298 106.405 84.6956 103.279 84.6956C100.152 84.6956 97.6182 87.2298 97.6182 90.3559C97.6182 93.4821 100.152 96.0163 103.279 96.0163Z" fill="#FFD15C"/>
<path d="M73.0899 73.3748C80.3842 73.3748 86.2974 67.4616 86.2974 60.1673C86.2974 52.8729 80.3842 46.9597 73.0899 46.9597C65.7955 46.9597 59.8823 52.8729 59.8823 60.1673C59.8823 67.4616 65.7955 73.3748 73.0899 73.3748Z" fill="#55BFE9"/>
</g>
</g>
<defs>
<filter id="filter0_d" x="0.259766" y="0.332031" width="140" height="140" filterUnits="userSpaceOnUse" color-interpolation-filters="sRGB">
<feFlood flood-opacity="0" result="BackgroundImageFix"/>
<feColorMatrix in="SourceAlpha" type="matrix" values="0 0 0 0 0 0 0 0 0 0 0 0 0 0 0 0 0 0 127 0"/>
<feOffset dy="5"/>
<feGaussianBlur stdDeviation="10"/>
<feColorMatrix type="matrix" values="0 0 0 0 0.137255 0 0 0 0 0.407843 0 0 0 0 0.431373 0 0 0 0.2 0"/>
<feBlend mode="normal" in2="BackgroundImageFix" result="effect1_dropShadow"/>
<feBlend mode="normal" in="SourceGraphic" in2="effect1_dropShadow" result="shape"/>
</filter>
<clipPath id="clip0">
<rect width="100" height="100" fill="white" transform="translate(20.2598 15.332)"/>
</clipPath>
<clipPath id="clip1">
<rect width="100" height="100" fill="white" transform="translate(20.2598 14.8843)"/>
</clipPath>
</defs>
</svg>
