<svg width="88" height="101" viewBox="0 0 88 101" fill="none" xmlns="http://www.w3.org/2000/svg">
<path d="M85.7175 32.4363C85.7175 32.4363 69.1648 17.2257 60.8884 8.72569C52.612 0.225671 44.0001 0.896767 44.0001 0.896767C44.0001 0.896767 35.3882 0.225476 27.1118 8.72569C18.8354 17.2259 2.28262 32.4363 2.28262 32.4363L0.269531 39.8179V100.884H87.7308V39.8179L85.7175 32.4363Z" fill="#F8B64C"/>
<path d="M80.5728 68.5312C80.5728 69.9336 79.4361 71.0703 78.0337 71.0703H11.7559C10.3535 71.0703 9.2168 69.9336 9.2168 68.5312V22.0015C9.2168 20.5991 10.3535 19.4624 11.7559 19.4624H78.0337C79.4361 19.4624 80.5728 20.5991 80.5728 22.0015V68.5312Z" fill="#F2F2F2"/>
<path d="M75.2596 45.5562C75.2596 46.4593 74.5706 47.192 73.7201 47.192H43.4657C42.6155 47.192 41.9263 46.4596 41.9263 45.5562V45.4945C41.9263 44.5913 42.6155 43.8586 43.4657 43.8586H73.7201C74.5704 43.8586 75.2596 44.591 75.2596 45.4945V45.5562Z" fill="#CDD6E0"/>
<path d="M12.3335 55.0106L23.0792 35.0122L27.6651 46.0746C27.6651 46.0746 27.561 41.0482 31.0156 41.1281C34.4703 41.208 37.1082 55.0106 37.1082 55.0106H12.3335Z" fill="#CDD6E0"/>
<path d="M29.7475 39.392C30.9575 39.392 31.9384 38.4111 31.9384 37.2011C31.9384 35.9912 30.9575 35.0103 29.7475 35.0103C28.5375 35.0103 27.5566 35.9912 27.5566 37.2011C27.5566 38.4111 28.5375 39.392 29.7475 39.392Z" fill="#CDD6E0"/>
<path opacity="0.07" d="M30.9891 65.4671L34.0452 65.3181L7.94943 40.8616L0.269531 39.8176L30.9891 65.4671Z" fill="#2D404E"/>
<path d="M75.2596 53.8897C75.2596 54.7928 74.5706 55.5255 73.7201 55.5255H43.4657C42.6155 55.5255 41.9263 54.7931 41.9263 53.8897V53.828C41.9263 52.9248 42.6155 52.1921 43.4657 52.1921H73.7201C74.5704 52.1921 75.2596 52.9245 75.2596 53.828V53.8897Z" fill="#CDD6E0"/>
<path opacity="0.07" d="M56.9926 65.4671L53.9365 65.3181L80.0323 40.8616L87.7122 39.8176L56.9926 65.4671Z" fill="#2D404E"/>
<path d="M0.269531 39.8176V100.884L31.0141 65.4294L7.65119 41.4581L0.269531 39.8176Z" fill="#FFD15C"/>
<path d="M87.7122 39.8176V100.884L56.9678 65.4294L80.3305 41.4581L87.7122 39.8176Z" fill="#FFD15C"/>
<path opacity="0.54" d="M0.269531 100.884V93.5027L29.9542 64.3423L31.0141 65.4298L0.269531 100.884Z" fill="#D89932"/>
<path opacity="0.54" d="M87.7122 100.884V93.5027L58.0277 64.3423L56.9678 65.4298L87.7122 100.884Z" fill="#D89932"/>
<path d="M85.5403 93.8378C85.5403 93.8378 61.935 69.1208 59.7988 67.1077C57.6625 65.0946 55.9535 65.3184 55.9535 65.3184H43.9908H32.0279C32.0279 65.3184 30.3189 65.0946 28.1826 67.1077C26.0462 69.121 2.44131 93.8378 2.44131 93.8378L0.411621 100.884H43.9908H87.5698L85.5403 93.8378Z" fill="#FFD15C"/>
<path d="M75.2596 37.2229C75.2596 38.1261 74.5706 38.8587 73.7201 38.8587H43.4657C42.6155 38.8587 41.9263 38.1264 41.9263 37.2229V37.1612C41.9263 36.258 42.6155 35.5254 43.4657 35.5254H73.7201C74.5704 35.5254 75.2596 36.2578 75.2596 37.1612V37.2229Z" fill="#CDD6E0"/>
<path d="M26.5294 19.4622L23.8101 24.4579H28.1269L30.8462 19.4622H26.5294Z" fill="#FF7058"/>
<path d="M22.2123 19.4622L19.4932 24.4579H23.81L26.5293 19.4622H22.2123Z" fill="#E2E5E7"/>
<path d="M30.8463 19.4622L28.127 24.4579H32.444L35.1631 19.4622H30.8463Z" fill="#E2E5E7"/>
<path d="M39.4796 19.4622L36.7603 24.4579H41.0773L43.7964 19.4622H39.4796Z" fill="#E2E5E7"/>
<path d="M9.2168 24.458V21.3006C9.41699 20.4677 10.2681 19.3249 12.4824 19.4622H13.5787L10.8594 24.458H9.2168Z" fill="#FF7058"/>
<path d="M13.5787 19.4622L10.8594 24.4579H15.1762L17.8955 19.4622H13.5787Z" fill="#E2E5E7"/>
<path d="M65.3813 19.4622L62.6621 24.4579H66.9791L69.6983 19.4622H65.3813Z" fill="#E2E5E7"/>
<path d="M74.0147 19.4622L71.2954 24.4579H75.6124L78.3317 19.4622H74.0147Z" fill="#E2E5E7"/>
<path d="M43.7968 19.4622L41.0776 24.4579H45.3945L48.1138 19.4622H43.7968Z" fill="#FF7058"/>
<path d="M75.6128 24.4579L78.3321 19.4622L79.0007 19.6339C79.5247 19.8372 80.5728 20.6218 80.5728 22.1339V24.4579H75.6128Z" fill="#FF7058"/>
<path d="M61.0644 19.4622L58.3452 24.4579H62.662L65.3812 19.4622H61.0644Z" fill="#FF7058"/>
<path d="M48.1139 19.4622L45.3945 24.4579H49.7115L52.4307 19.4622H48.1139Z" fill="#E2E5E7"/>
<path d="M35.163 19.4622L32.4438 24.4579H36.7607L39.48 19.4622H35.163Z" fill="#40596B"/>
<path d="M17.8956 19.4622L15.1763 24.4579H19.4933L22.2124 19.4622H17.8956Z" fill="#40596B"/>
<path d="M69.6982 19.4622L66.979 24.4579H71.2956L74.015 19.4622H69.6982Z" fill="#40596B"/>
<path d="M52.4306 19.4622L49.7114 24.4579H54.0282L56.7474 19.4622H52.4306Z" fill="#40596B"/>
<path d="M56.7475 19.4622L54.0283 24.4579H58.3453L61.0645 19.4622H56.7475Z" fill="#E2E5E7"/>
</svg>
