<svg width="100" height="100" viewBox="0 0 100 100" fill="none" xmlns="http://www.w3.org/2000/svg">
<path d="M95.8367 0.043457H4.25019C1.9605 0.043457 0.0871582 1.9168 0.0871582 4.20649V18.3608H99.9997V4.20649C99.9997 1.917 98.1263 0.043457 95.8367 0.043457Z" fill="#40596B"/>
<path d="M99.9126 18.4817H0V76.1396H99.9126V18.4817Z" fill="#F2F2F2"/>
<path d="M86.3334 28.3334H11.1667C10.0622 28.3334 9.16675 29.2288 9.16675 30.3334V30.5C9.16675 31.6046 10.0622 32.5 11.1667 32.5H86.3334C87.438 32.5 88.3334 31.6046 88.3334 30.5V30.3334C88.3334 29.2288 87.438 28.3334 86.3334 28.3334Z" fill="#CDD6E0"/>
<path d="M86.3334 39.1667H11.1667C10.0622 39.1667 9.16675 40.0622 9.16675 41.1667V41.3334C9.16675 42.438 10.0622 43.3334 11.1667 43.3334H86.3334C87.438 43.3334 88.3334 42.438 88.3334 41.3334V41.1667C88.3334 40.0622 87.438 39.1667 86.3334 39.1667Z" fill="#CDD6E0"/>
<path d="M86.0468 50H11.1667C10.0622 50 9.16675 50.8954 9.16675 52V52.1667C9.16675 53.2712 10.0622 54.1667 11.1667 54.1667H86.0468C87.1514 54.1667 88.0468 53.2712 88.0468 52.1667V52C88.0468 50.8954 87.1514 50 86.0468 50Z" fill="#CDD6E0"/>
<path d="M86.0468 61.0417H11.1667C10.0622 61.0417 9.16675 61.9372 9.16675 63.0417V63.2084C9.16675 64.313 10.0622 65.2084 11.1667 65.2084H86.0468C87.1514 65.2084 88.0468 64.313 88.0468 63.2084V63.0417C88.0468 61.9372 87.1514 61.0417 86.0468 61.0417Z" fill="#CDD6E0"/>
<path d="M55.8717 85.1776H44.0071V92.0467H55.8717V85.1776Z" fill="#F05540"/>
<path d="M50.0436 86.8427C41.7175 86.8427 33.8078 83.5123 27.9796 77.6839C15.9069 65.6112 15.9069 45.6287 27.9796 33.556C33.8078 27.7278 41.7175 24.3972 50.0436 24.3972C58.3697 24.3972 66.2794 27.7276 72.1076 33.556C84.1803 45.6287 84.1803 65.6112 72.1076 77.6839C66.2794 83.5121 58.3697 86.8427 50.0436 86.8427Z" fill="#41596B"/>
<path d="M67.7364 73.3127C62.9489 78.1002 56.7044 80.5979 50.0437 80.5979C43.383 80.5979 37.1382 77.8919 32.3509 73.3127C27.5633 68.5251 25.0657 62.0726 25.0657 55.8281C25.0657 54.9954 25.0657 54.3711 25.0657 53.7466C25.2738 52.2896 25.482 51.0405 25.6902 49.5835C25.8984 48.959 25.8984 48.5429 26.1065 47.9184C27.3554 44.3798 29.2287 41.0493 32.1429 38.1353C36.9305 33.3478 43.175 30.8501 49.8357 30.8501C53.9987 30.8501 57.9536 31.8908 61.4921 33.7643C61.9084 33.9725 62.3248 34.1806 62.7409 34.597C63.9898 35.4297 65.2388 36.2622 66.2794 37.0948C66.6958 37.5112 67.1121 37.9275 67.5283 38.1355C67.9446 38.5518 68.1528 38.76 68.5691 39.1764C70.8588 41.8824 72.524 44.7964 73.5648 47.9188C73.773 48.5433 73.9812 48.9594 73.9812 49.5839C76.2705 57.7014 74.1892 66.8602 67.7364 73.3127Z" fill="#F2F2F2"/>
<path d="M61.5 41.25H38.0833C37.531 41.25 37.0833 41.6977 37.0833 42.25V69.2084C37.0833 69.7607 37.531 70.2084 38.0833 70.2084H61.5C62.0523 70.2084 62.5 69.7607 62.5 69.2084V42.25C62.5 41.6977 62.0523 41.25 61.5 41.25Z" fill="#CDD6E0"/>
<path d="M52.182 47.134C52.0434 46.7299 51.6634 46.4584 51.2361 46.4584H48.7639C48.3366 46.4584 47.9566 46.7299 47.818 47.1341L42.1208 63.7509C41.8983 64.4 42.3806 65.0752 43.0667 65.0752H45.024C45.4545 65.0752 45.8366 64.7998 45.9727 64.3915L47.2899 60.4399C47.426 60.0315 47.8082 59.7561 48.2386 59.7561H51.5842C52.0147 59.7561 52.3968 60.0315 52.5329 60.4399L53.8501 64.3915C53.9862 64.7998 54.3684 65.0752 54.7988 65.0752H56.9334C57.6196 65.0752 58.1019 64.4 57.8794 63.7509L52.182 47.134ZM49.4797 56.21C49.1248 56.21 48.8748 55.8624 48.987 55.5258L49.9439 52.6548C49.9542 52.6239 50 52.3419 50 52.3093V52.3243C50 52.4318 50.0173 52.5386 50.0513 52.6406L51.0132 55.5262C51.1493 55.9346 50.9512 56.21 50.5208 56.21C50.1935 56.21 49.8071 56.21 49.4797 56.21Z" fill="white"/>
<path d="M32.3506 73.3126C37.1381 78.1001 43.3827 80.5978 50.0433 80.5978C56.704 80.5978 62.9488 77.8917 67.7361 73.3126C68.5688 72.4799 69.1931 71.6474 69.8176 70.8147H30.269C30.8936 71.6474 31.5179 72.4801 32.3506 73.3126Z" fill="#F2F2F2"/>
<path d="M60.8676 99.9561H39.22V94.3361C39.22 92.2546 40.8851 90.3812 43.1748 90.3812H57.3291C59.4106 90.3812 61.284 92.0464 61.284 94.3361V99.9561H60.8676Z" fill="#FFD05C"/>
<path d="M9.64011 13.9814C12.0549 13.9814 14.0124 12.0239 14.0124 9.60911C14.0124 7.19436 12.0549 5.23682 9.64011 5.23682C7.22536 5.23682 5.26782 7.19436 5.26782 9.60911C5.26782 12.0239 7.22536 13.9814 9.64011 13.9814Z" fill="#FFD15C"/>
<path d="M21.5078 13.9814C23.9225 13.9814 25.8801 12.0239 25.8801 9.60911C25.8801 7.19436 23.9225 5.23682 21.5078 5.23682C19.093 5.23682 17.1355 7.19436 17.1355 9.60911C17.1355 12.0239 19.093 13.9814 21.5078 13.9814Z" fill="#ACB3BA"/>
<path d="M33.3755 13.9814C35.7902 13.9814 37.7478 12.0239 37.7478 9.60911C37.7478 7.19436 35.7902 5.23682 33.3755 5.23682C30.9607 5.23682 29.0032 7.19436 29.0032 9.60911C29.0032 12.0239 30.9607 13.9814 33.3755 13.9814Z" fill="#84DBFF"/>
<path d="M88.9654 5.02844H53.5708C51.0723 5.02844 49.1985 7.11048 49.1985 9.40073C49.1985 11.691 51.2805 13.773 53.5708 13.773H88.9654C91.4638 13.773 93.3377 11.691 93.3377 9.40073C93.3377 7.11048 91.2556 5.02844 88.9654 5.02844Z" fill="#ACB3BA"/>
</svg>
