<svg width="100" height="101" viewBox="0 0 100 101" fill="none" xmlns="http://www.w3.org/2000/svg">
<path d="M27.5858 79.8106L9.65485 93.2588C9.13241 93.6506 8.43343 93.7137 7.84932 93.4216C7.26521 93.1296 6.89624 92.5326 6.89624 91.8795V74.6382L27.5858 79.8106Z" fill="#F8B64C"/>
<path d="M27.5869 29.7591L1.09384 19.8988C0.430923 19.6733 -0.0105924 19.0456 0.00120744 18.3455C0.0130073 17.6453 0.475424 17.0329 1.14556 16.8298L48.8454 0.693685C49.5941 0.43674 50.4071 0.43674 51.1557 0.693685L98.8556 16.8643C99.5257 17.0674 99.9881 17.6798 99.9999 18.3799C100.012 19.0801 99.5702 19.7078 98.9073 19.9333L72.4143 29.7591H27.5869Z" fill="#344958"/>
<path d="M72.4136 48.7766V24.6387C72.4136 20.8284 62.3792 17.7422 49.9999 17.7422C37.6206 17.7422 27.5862 20.8284 27.5862 24.6387V41.88L72.4136 48.7766Z" fill="#40596B"/>
<path d="M93.1032 81.5342V98.7755C93.1032 99.4285 92.7342 100.026 92.1501 100.318C91.566 100.61 90.867 100.547 90.3446 100.155L72.4136 86.7066L93.1032 81.5342Z" fill="#FB5134"/>
<path d="M99.9993 45.3277V83.2586C99.9936 85.1606 98.4531 86.7012 96.551 86.7068H49.9995C48.0974 86.7012 46.5569 85.1606 46.5512 83.2586C46.5512 78.3862 45.5426 85.3603 53.4477 41.8794H96.551C98.4531 41.8851 99.9936 43.4256 99.9993 45.3277Z" fill="#FF7058"/>
<path d="M49.9998 34.9824H3.44826C1.54384 34.9824 0 36.5263 0 38.4307V76.3616C0 78.266 1.54384 79.8099 3.44826 79.8099H49.9998C51.9043 79.8099 53.4481 78.266 53.4481 76.3616V38.4307C53.4481 36.5263 51.9043 34.9824 49.9998 34.9824Z" fill="#FFD15C"/>
<path d="M98.2756 34.9831C97.3234 34.9831 96.5515 34.2112 96.5515 33.259V18.397C96.5515 17.4448 97.3234 16.6729 98.2756 16.6729C99.2279 16.6729 99.9998 17.4448 99.9998 18.397V33.259C99.9998 34.2112 99.2279 34.9831 98.2756 34.9831Z" fill="#FFAB00"/>
<path d="M77.778 56.125V69.061H79.868V76.409H76.656V71.833H66.822V76.409H63.61V69.061H64.82C65.3773 67.961 65.898 66.7877 66.382 65.541C66.866 64.2797 67.2987 62.879 67.68 61.339C68.076 59.799 68.3913 58.061 68.626 56.125H77.778ZM74.456 58.897H71.266C71.134 59.909 70.9213 61.009 70.628 62.197C70.3493 63.3703 70.012 64.551 69.616 65.739C69.22 66.9123 68.7873 68.0197 68.318 69.061H74.456V58.897Z" fill="white"/>
<path d="M25.8311 50.7627C27.4281 50.7627 28.846 51.0885 30.085 51.7402C31.3239 52.3848 32.2871 53.2907 32.9746 54.458C33.6693 55.6182 34.0166 56.9538 34.0166 58.4648C34.0166 59.9616 33.6621 61.2936 32.9531 62.4609C32.2513 63.6283 31.2702 64.5378 30.0098 65.1895C28.7493 65.8411 27.3027 66.167 25.6699 66.167H19.2031V50.7627H25.8311ZM23.124 63.041H25.917C26.7119 63.041 27.4209 62.8512 28.0439 62.4717C28.667 62.0921 29.154 61.5586 29.5049 60.8711C29.8558 60.1764 30.0312 59.3815 30.0312 58.4863C30.0312 57.5911 29.8486 56.7962 29.4834 56.1016C29.1182 55.4069 28.6061 54.8662 27.9473 54.4795C27.2956 54.0856 26.5615 53.8887 25.7451 53.8887H23.124V63.041Z" fill="white"/>
</svg>
