<svg width="140" height="141" viewBox="0 0 140 141" fill="none" xmlns="http://www.w3.org/2000/svg">
<g clip-path="url(#clip0)" filter="url(#filter0_d)">
<path d="M115.837 15.9277H24.2504C21.9607 15.9277 20.0874 17.8011 20.0874 20.0908V34.245H120V20.0908C120 17.8013 118.127 15.9277 115.837 15.9277Z" fill="#40596B"/>
<path d="M119.913 34.366H20V92.0239H119.913V34.366Z" fill="#F2F2F2"/>
<path d="M106.333 44.2175H31.1665C30.0619 44.2175 29.1665 45.113 29.1665 46.2175V46.3842C29.1665 47.4888 30.0619 48.3842 31.1665 48.3842H106.333C107.438 48.3842 108.333 47.4888 108.333 46.3842V46.2175C108.333 45.113 107.438 44.2175 106.333 44.2175Z" fill="#CDD6E0"/>
<path d="M106.333 55.0508H31.1665C30.0619 55.0508 29.1665 55.9462 29.1665 57.0508V57.2174C29.1665 58.322 30.0619 59.2174 31.1665 59.2174H106.333C107.438 59.2174 108.333 58.322 108.333 57.2174V57.0508C108.333 55.9462 107.438 55.0508 106.333 55.0508Z" fill="#CDD6E0"/>
<path d="M106.047 65.8843H31.1665C30.0619 65.8843 29.1665 66.7797 29.1665 67.8843V68.0509C29.1665 69.1555 30.0619 70.0509 31.1665 70.0509H106.047C107.151 70.0509 108.047 69.1555 108.047 68.0509V67.8843C108.047 66.7797 107.151 65.8843 106.047 65.8843Z" fill="#CDD6E0"/>
<path d="M106.047 76.9258H31.1665C30.0619 76.9258 29.1665 77.8212 29.1665 78.9258V79.0925C29.1665 80.197 30.0619 81.0925 31.1665 81.0925H106.047C107.151 81.0925 108.047 80.197 108.047 79.0925V78.9258C108.047 77.8212 107.151 76.9258 106.047 76.9258Z" fill="#CDD6E0"/>
<path d="M75.8719 101.062H64.0073V107.931H75.8719V101.062Z" fill="#F05540"/>
<path d="M70.0438 102.727C61.7178 102.727 53.8081 99.3966 47.9799 93.5682C35.9071 81.4955 35.9071 61.513 47.9799 49.4402C53.8081 43.612 61.7178 40.2815 70.0438 40.2815C78.3699 40.2815 86.2796 43.6118 92.1078 49.4402C104.181 61.513 104.181 81.4955 92.1078 93.5682C86.2796 99.3964 78.3699 102.727 70.0438 102.727Z" fill="#41596B"/>
<path d="M87.7367 89.197C82.9491 93.9845 76.7046 96.4822 70.0439 96.4822C63.3832 96.4822 57.1385 93.7761 52.3511 89.197C47.5636 84.4094 45.0659 77.9569 45.0659 71.7124C45.0659 70.8797 45.0659 70.2554 45.0659 69.6308C45.2741 68.1738 45.4823 66.9248 45.6904 65.4678C45.8986 64.8433 45.8986 64.4272 46.1068 63.8026C47.3556 60.2641 49.2289 56.9336 52.1431 54.0196C56.9307 49.232 63.1752 46.7344 69.8359 46.7344C73.999 46.7344 77.9538 47.775 81.4923 49.6486C81.9087 49.8567 82.325 50.0649 82.7412 50.4813C83.99 51.3139 85.239 52.1464 86.2797 52.9791C86.696 53.3955 87.1124 53.8118 87.5285 54.0198C87.9449 54.4361 88.153 54.6443 88.5694 55.0606C90.8591 57.7667 92.5242 60.6807 93.5651 63.803C93.7733 64.4276 93.9814 64.8437 93.9814 65.4682C96.2707 73.5857 94.1894 82.7444 87.7367 89.197Z" fill="#F2F2F2"/>
<path d="M81.5003 57.1343H58.0835C57.5312 57.1343 57.0835 57.582 57.0835 58.1343V85.0927C57.0835 85.6449 57.5312 86.0927 58.0835 86.0927H81.5003C82.0525 86.0927 82.5003 85.6449 82.5003 85.0927V58.1343C82.5003 57.582 82.0525 57.1343 81.5003 57.1343Z" fill="#CDD6E0"/>
<path d="M72.1818 63.0182C72.0432 62.614 71.6631 62.3425 71.2358 62.3425H68.7637C68.3364 62.3425 67.9563 62.614 67.8177 63.0182L62.1206 79.6351C61.898 80.2841 62.3803 80.9594 63.0665 80.9594H65.0238C65.4542 80.9594 65.8364 80.684 65.9725 80.2756L67.2897 76.324C67.4258 75.9157 67.8079 75.6403 68.2384 75.6403H71.584C72.0144 75.6403 72.3966 75.9157 72.5327 76.324L73.8499 80.2756C73.986 80.684 74.3681 80.9594 74.7986 80.9594H76.9332C77.6193 80.9594 78.1016 80.2841 77.8791 79.6351L72.1818 63.0182ZM69.4794 72.0942C69.1246 72.0942 68.8745 71.7466 68.9867 71.41L69.9437 68.539C69.954 68.508 69.9998 68.2261 69.9998 68.1935V68.2085C69.9998 68.316 70.0171 68.4228 70.0511 68.5247L71.0129 71.4104C71.149 71.8187 70.951 72.0942 70.5206 72.0942C70.1932 72.0942 69.8068 72.0942 69.4794 72.0942Z" fill="white"/>
<path d="M52.3506 89.1968C57.1381 93.9844 63.3827 96.482 70.0433 96.482C76.704 96.482 82.9488 93.776 87.7361 89.1968C88.5688 88.3641 89.1931 87.5317 89.8176 86.699H50.269C50.8936 87.5317 51.5179 88.3643 52.3506 89.1968Z" fill="#F2F2F2"/>
<path d="M80.8674 115.84H59.2197V110.22C59.2197 108.139 60.8849 106.265 63.1746 106.265H77.3289C79.4104 106.265 81.2837 107.931 81.2837 110.22V115.84H80.8674Z" fill="#FFD05C"/>
<path d="M29.6399 29.8657C32.0546 29.8657 34.0122 27.9081 34.0122 25.4934C34.0122 23.0786 32.0546 21.1211 29.6399 21.1211C27.2251 21.1211 25.2676 23.0786 25.2676 25.4934C25.2676 27.9081 27.2251 29.8657 29.6399 29.8657Z" fill="#FFD15C"/>
<path d="M41.5075 29.8657C43.9223 29.8657 45.8798 27.9081 45.8798 25.4934C45.8798 23.0786 43.9223 21.1211 41.5075 21.1211C39.0928 21.1211 37.1353 23.0786 37.1353 25.4934C37.1353 27.9081 39.0928 29.8657 41.5075 29.8657Z" fill="#ACB3BA"/>
<path d="M53.3752 29.8657C55.79 29.8657 57.7475 27.9081 57.7475 25.4934C57.7475 23.0786 55.79 21.1211 53.3752 21.1211C50.9605 21.1211 49.0029 23.0786 49.0029 25.4934C49.0029 27.9081 50.9605 29.8657 53.3752 29.8657Z" fill="#84DBFF"/>
<path d="M108.965 20.9128H73.5705C71.0721 20.9128 69.1982 22.9949 69.1982 25.2851C69.1982 27.5754 71.2803 29.6574 73.5705 29.6574H108.965C111.464 29.6574 113.337 27.5754 113.337 25.2851C113.337 22.9949 111.255 20.9128 108.965 20.9128Z" fill="#ACB3BA"/>
</g>
<defs>
<filter id="filter0_d" x="0" y="0.884277" width="140" height="140" filterUnits="userSpaceOnUse" color-interpolation-filters="sRGB">
<feFlood flood-opacity="0" result="BackgroundImageFix"/>
<feColorMatrix in="SourceAlpha" type="matrix" values="0 0 0 0 0 0 0 0 0 0 0 0 0 0 0 0 0 0 127 0"/>
<feOffset dy="5"/>
<feGaussianBlur stdDeviation="10"/>
<feColorMatrix type="matrix" values="0 0 0 0 0.137255 0 0 0 0 0.407843 0 0 0 0 0.431373 0 0 0 0.2 0"/>
<feBlend mode="normal" in2="BackgroundImageFix" result="effect1_dropShadow"/>
<feBlend mode="normal" in="SourceGraphic" in2="effect1_dropShadow" result="shape"/>
</filter>
<clipPath id="clip0">
<rect width="100" height="100" fill="white" transform="translate(20 15.8843)"/>
</clipPath>
</defs>
</svg>
