<svg width="140" height="141" viewBox="0 0 140 141" fill="none" xmlns="http://www.w3.org/2000/svg">
<g clip-path="url(#clip0)" filter="url(#filter0_d)">
<path d="M88.7389 76.5754L81.0352 76.3672L81.2434 84.0709C81.4516 96.5635 91.8621 106.766 104.355 107.182L112.058 107.39L111.85 99.6867C111.433 87.1941 101.231 76.7836 88.7389 76.5754Z" fill="#F8B64C"/>
<path d="M90.8211 80.7395L85.4077 80.5312L85.6159 85.9446C85.8242 94.8977 93.3196 102.393 102.273 102.601L107.686 102.81L107.478 97.3962C107.27 88.4432 99.774 80.9477 90.8211 80.7395Z" fill="#FFD15C"/>
<path d="M119.971 75.9507C118.93 74.0768 117.472 72.4112 116.015 70.9536C112.267 67.2059 107.686 64.7073 102.689 63.4581C93.3197 61.1678 82.9093 63.6664 75.6218 70.9536C68.3344 78.2408 65.836 88.6513 68.1264 98.0208C69.3755 102.81 71.8741 107.598 75.6218 111.346C77.0792 112.804 78.9531 114.261 80.6189 115.302C69.792 115.719 58.5488 111.763 50.2204 103.434C43.5577 96.7715 39.8099 88.6513 38.5608 80.1147C36.8951 67.8303 40.8511 55.1295 50.2204 45.7602C59.5897 36.3909 72.4988 32.4349 84.5749 34.1006C93.1115 35.3497 101.44 39.0977 107.894 45.7602C116.431 53.8806 120.387 65.124 119.971 75.9507Z" fill="#FF7058"/>
<path d="M102.064 76.1588C96.2346 40.5551 65.6278 14.3208 27.7336 15.3617L20.2382 15.5699L20.0299 23.0654C18.989 60.9596 45.2233 91.5663 80.827 97.3962L102.064 76.1588Z" fill="#F2F2F2"/>
<path d="M64.5869 92.8158C69.7921 94.8979 75.2056 96.3553 80.8272 97.3965L101.856 76.3673C101.023 70.7457 99.3579 65.3321 97.2758 60.127L64.5869 92.8158Z" fill="#40596B"/>
<path d="M52.5114 18.694C44.8077 16.4037 36.4793 15.1543 27.7345 15.3626L20.239 15.5708L20.0308 23.0662C19.8225 31.8111 21.0717 40.1395 23.362 47.8432L52.5114 18.694Z" fill="#40596B"/>
<path d="M80.8271 97.3964C82.9092 97.8129 85.1996 98.0211 87.2817 98.2293L102.689 82.8219C102.481 80.5316 102.273 78.4495 101.856 76.3674L80.8271 97.3964Z" fill="#F2F2F2"/>
<path d="M54.7746 66.2273C63.6287 66.2273 70.8064 59.0496 70.8064 50.1955C70.8064 41.3413 63.6287 34.1636 54.7746 34.1636C45.9204 34.1636 38.7427 41.3413 38.7427 50.1955C38.7427 59.0496 45.9204 66.2273 54.7746 66.2273Z" fill="#40596B"/>
<path d="M54.7745 61.4388C60.9839 61.4388 66.0177 56.405 66.0177 50.1956C66.0177 43.9861 60.9839 38.9524 54.7745 38.9524C48.565 38.9524 43.5312 43.9861 43.5312 50.1956C43.5312 56.405 48.565 61.4388 54.7745 61.4388Z" fill="#84DBFF"/>
<path d="M47.7219 44.7195C51.6779 40.7636 57.9242 40.7636 61.8801 44.7195C65.6278 48.4673 65.8361 54.5053 62.2966 58.4613C62.5048 58.253 62.713 58.253 62.713 58.0448C67.0855 53.6724 67.0855 46.5934 62.713 42.221C58.3406 37.8485 51.2616 37.8485 46.8892 42.221C42.5168 46.5934 42.5168 53.6724 46.8892 58.0448C47.0974 58.253 47.3056 58.253 47.3056 58.4613C43.9742 54.5053 43.9742 48.4673 47.7219 44.7195Z" fill="#54C0EB"/>
</g>
<defs>
<filter id="filter0_d" x="0" y="0.332031" width="140" height="140" filterUnits="userSpaceOnUse" color-interpolation-filters="sRGB">
<feFlood flood-opacity="0" result="BackgroundImageFix"/>
<feColorMatrix in="SourceAlpha" type="matrix" values="0 0 0 0 0 0 0 0 0 0 0 0 0 0 0 0 0 0 127 0"/>
<feOffset dy="5"/>
<feGaussianBlur stdDeviation="10"/>
<feColorMatrix type="matrix" values="0 0 0 0 0.137255 0 0 0 0 0.407843 0 0 0 0 0.431373 0 0 0 0.2 0"/>
<feBlend mode="normal" in2="BackgroundImageFix" result="effect1_dropShadow"/>
<feBlend mode="normal" in="SourceGraphic" in2="effect1_dropShadow" result="shape"/>
</filter>
<clipPath id="clip0">
<rect width="100" height="100" fill="white" transform="translate(20 15.332)"/>
</clipPath>
</defs>
</svg>
