<svg width="1270" height="882" viewBox="0 0 1270 882" fill="none" xmlns="http://www.w3.org/2000/svg">
<mask id="mask0" mask-type="alpha" maskUnits="userSpaceOnUse" x="0" y="0" width="1270" height="882">
<g clip-path="url(#clip0)">
<path d="M614 1.21582H331C327.686 1.21582 325 3.90211 325 7.21582V415.216C325 418.53 327.686 421.216 331 421.216H614C617.314 421.216 620 418.53 620 415.216V7.21582C620 3.90211 617.314 1.21582 614 1.21582Z" fill="white"/>
<path d="M289 0.884277H6C2.68629 0.884277 0 3.57057 0 6.88428V414.884C0 418.198 2.68629 420.884 6 420.884H289C292.314 420.884 295 418.198 295 414.884V6.88428C295 3.57057 292.314 0.884277 289 0.884277Z" fill="white"/>
<path d="M939 1.21582H656C652.686 1.21582 650 3.90211 650 7.21582V415.216C650 418.53 652.686 421.216 656 421.216H939C942.314 421.216 945 418.53 945 415.216V7.21582C945 3.90211 942.314 1.21582 939 1.21582Z" fill="white"/>
<path d="M1264 1.21582H981C977.686 1.21582 975 3.90211 975 7.21582V415.216C975 418.53 977.686 421.216 981 421.216H1264C1267.31 421.216 1270 418.53 1270 415.216V7.21582C1270 3.90211 1267.31 1.21582 1264 1.21582Z" fill="white"/>
<path d="M289 461.57H6C2.68629 461.57 0 464.257 0 467.57V875.57C0 878.884 2.68629 881.57 6 881.57H289C292.314 881.57 295 878.884 295 875.57V467.57C295 464.257 292.314 461.57 289 461.57Z" fill="white"/>
<path d="M614 461.57H331C327.686 461.57 325 464.257 325 467.57V875.57C325 878.884 327.686 881.57 331 881.57H614C617.314 881.57 620 878.884 620 875.57V467.57C620 464.257 617.314 461.57 614 461.57Z" fill="white"/>
<path d="M939 461.57H656C652.686 461.57 650 464.257 650 467.57V875.57C650 878.884 652.686 881.57 656 881.57H939C942.314 881.57 945 878.884 945 875.57V467.57C945 464.257 942.314 461.57 939 461.57Z" fill="white"/>
<path d="M1264 461.57H981C977.686 461.57 975 464.257 975 467.57V875.57C975 878.884 977.686 881.57 981 881.57H1264C1267.31 881.57 1270 878.884 1270 875.57V467.57C1270 464.257 1267.31 461.57 1264 461.57Z" fill="white"/>
</g>
</mask>
<g mask="url(#mask0)">
<path d="M116.68 187.428C183.08 221.828 284.347 194.428 321.68 186.428C389.68 180.094 568.393 231.686 624.68 190.431C680 149.884 691.08 164.431 664.68 204.431C638.28 244.431 747.68 221.097 805.68 204.431C892 179.626 1118 111.884 1267.68 190.431C1408.7 264.431 1303.14 542.056 1186 513.884C949 456.884 757.68 433.097 709.68 490.431C657.68 545.764 521.88 580.831 354.68 478.431C254 416.77 89.6798 436.665 67.6798 488.431C47.9374 534.884 45.0001 583.884 89.6798 614.431C168.5 668.318 249.68 656.431 289.68 618.431C321.68 588.031 347 665.605 364 673.884C421.5 701.884 469.791 606.237 624.68 641.884C742 668.884 791.633 613.884 876.68 604.018C1123.5 575.384 1014.42 625.574 1041.68 634.431C1174.5 677.585 1437.51 643.884 1475.68 376.431C1518 79.8838 1261.01 24.4306 1151.68 6.4306C1116.68 -0.902739 1033.28 -6.97007 979.68 27.4273C917.024 67.0621 884.906 79.944 876.68 61.4306C797 -64.1159 671.784 -40.1159 634.68 10.431C579.48 85.631 543.68 96.4311 508.68 47.4273C431.546 -60.5697 375.68 -4.56899 361.68 56.4273C353.875 90.431 288.68 22.6276 204.68 11.4276C120.68 0.227566 84.3466 38.7609 71.68 64.4276C49.0001 94.8837 50.28 153.028 116.68 187.428Z" fill="url(#paint0_linear)" fill-opacity="0.2"/>
</g>
<defs>
<linearGradient id="paint0_linear" x1="176" y1="-4.11536" x2="1246" y2="649.885" gradientUnits="userSpaceOnUse">
<stop stop-color="#0E8793"/>
<stop offset="1" stop-color="#A9D5D6"/>
</linearGradient>
<clipPath id="clip0">
<rect width="1270" height="881" fill="white" transform="translate(0 0.884277)"/>
</clipPath>
</defs>
</svg>
