<svg width="124" height="95" viewBox="0 0 124 95" fill="none" xmlns="http://www.w3.org/2000/svg">
<path d="M75.389 85.5773C58.8511 70.996 43.0281 71.2912 37.4897 75.7251C32.5676 79.6655 26.0706 86.0699 23.708 88.0405C21.3455 90.0111 15.6357 89.5178 12.8798 85.5773C-19.8505 38.7788 17.8017 18.5824 37.4897 8.23753C53.24 -0.0383296 71.4513 -0.137352 80.311 2.3262C118.21 12.8645 135.929 67.3503 115.257 88.0405C108.53 93.295 91.9268 100.159 75.389 85.5773Z" fill="#EAEBEF"/>
<mask id="mask0" maskUnits="userSpaceOnUse" x="0" y="0" width="124" height="95">
<path d="M75.389 85.5773C58.8511 70.996 43.0281 71.2912 37.4897 75.7251C32.5676 79.6655 26.0706 86.0699 23.708 88.0405C21.3455 90.0111 15.6357 89.5178 12.8798 85.5773C-19.8505 38.7788 17.8017 18.5824 37.4897 8.23753C53.24 -0.0383296 71.4513 -0.137352 80.311 2.3262C118.21 12.8645 135.929 67.3503 115.257 88.0405C108.53 93.295 91.9268 100.159 75.389 85.5773Z" fill="#EAEBEF"/>
</mask>
<g mask="url(#mask0)">
<path d="M84.5822 15.8209C84.5822 15.8209 79.4427 0.0966702 54.2324 11.9712C39.5714 20.484 38.5435 37.4553 38.5435 37.4553C38.5435 37.4553 36.5959 50.7396 24.9104 60.1199C13.2249 69.5002 6.40839 68.3616 1.26893 80.2361C-3.87052 92.1106 3.59521 105.232 3.59521 105.232C3.59521 105.232 0.782042 132.56 30.104 141.29C59.4259 150.019 45.2518 134.349 45.2518 134.349L46.0092 117.107L69.3802 92.3817L84.5281 84.4111L93.7791 80.0192L92.7512 62.9936L101.515 38.7566C101.569 38.7566 103.084 23.683 84.5822 15.8209Z" fill="#FFAB00"/>
<path d="M84.5821 15.8211L82.2017 12.0798C82.2017 12.0798 51.3109 12.6763 45.7387 39.787C40.7615 64.2952 38.5434 63.753 38.5434 63.753C38.5434 63.753 36.4876 69.1751 23.8824 74.5973C11.2773 80.0194 0.673752 92.3819 1.10655 99.3765L3.59512 105.287C3.59512 105.287 4.62301 89.0744 23.8824 80.8327C43.1419 72.5911 44.9813 65.1085 44.9813 65.1085C44.9813 65.1085 48.2272 55.5113 49.0928 47.0527C50.5535 33.2262 56.1799 17.6104 84.5821 15.8211Z" fill="#E69A00"/>
<path d="M75.4395 16.8509C75.4395 16.4171 74.8444 12.6216 78.415 12.1336C81.4446 11.754 82.5266 15.8749 82.5266 15.8749C82.5266 15.8749 79.6052 15.9291 75.4395 16.8509Z" fill="#4F9A99"/>
<path d="M90.2629 24.605C90.2629 24.605 74.574 46.5105 61.9689 42.8776C52.826 41.3052 55.8015 53.1797 61.9689 52.1495C61.9689 52.1495 63.7541 61.9636 70.733 65.0542C70.733 65.0542 72.5183 76.1697 64.2951 75.7359C64.2951 75.7359 69.7051 96.1774 90.2629 78.1759C90.2629 78.1759 86.1513 72.5368 88.2071 65.0542C88.2071 65.0542 95.4024 65.0543 100.271 50.8482C100.271 50.8482 105.681 50.5771 105.952 43.3656C105.952 43.3656 105.573 40.3834 101.137 39.9497C101.137 40.0039 88.4235 32.0876 90.2629 24.605Z" fill="#F0C798"/>
<path d="M69.3311 79.4523C67.2359 78.1606 63.9724 76.2278 61.5303 76.5356C56.8231 77.1289 49.8389 78.6159 46.845 82.3117C43.4063 86.514 37.7601 96.879 34.88 102.33C33.8618 104.257 34.607 106.631 36.5297 107.657L48.4668 114.031C48.7197 114.167 48.9566 114.334 49.047 114.606C49.3558 115.535 49.8884 118.775 49.6385 130.046C49.6214 130.815 49.8216 131.581 50.2719 132.204C50.8951 133.066 51.9579 134.42 53.4572 135.938C55.4576 137.963 58.6999 136.758 59.3372 133.983L62.7594 119.086C62.7651 119.062 62.77 119.039 62.7757 119.015C62.9281 118.358 65.3923 108.665 77.7374 110.479L104.68 110.803C105.393 110.812 106.096 110.629 106.715 110.275L110.611 108.044C112.172 107.15 112.945 105.323 112.498 103.58L108.344 87.3693C108.344 87.368 108.344 87.3685 108.344 87.3672C108.333 87.3275 106.115 78.763 91.5618 77.9431C90.3618 77.8755 89.2107 78.4273 88.2592 79.1617C86.5655 80.4689 83.3357 82.2916 78.5955 82.1672C74.803 82.0671 71.5518 80.8215 69.3311 79.4523Z" fill="#0E6393"/>
<path d="M64.4805 76.2442C64.4805 76.2442 64.674 82.2661 77.0583 84.3212C88.2816 85.3248 92.5871 77.9647 92.5871 77.9647L89.9748 77.8691C89.9748 77.8691 84.1696 83.0308 78.7515 82.1227C73.3817 81.2146 69.8019 80.5933 66.1736 76.1486L64.4805 76.2442Z" fill="#005483"/>
</g>
</svg>
