<svg width="125" height="95" viewBox="0 0 125 95" fill="none" xmlns="http://www.w3.org/2000/svg">
<path d="M75.7801 85.5294C59.2422 70.9481 43.4192 71.2433 37.8808 75.6772C32.9587 79.6177 26.4617 86.0221 24.0991 87.9927C21.7366 89.9632 16.0268 89.47 13.2709 85.5294C-19.4594 38.731 18.1928 18.5345 37.8808 8.18968C53.6311 -0.0861812 71.8424 -0.185204 80.7021 2.27835C118.601 12.8167 136.32 67.3024 115.648 87.9927C108.921 93.2471 92.3179 100.111 75.7801 85.5294Z" fill="#EAEBEF"/>
<mask id="mask0" mask-type="alpha" maskUnits="userSpaceOnUse" x="0" y="0" width="125" height="95">
<path d="M75.7801 85.5294C59.2422 70.9481 43.4192 71.2433 37.8808 75.6772C32.9587 79.6177 26.4617 86.0221 24.0991 87.9927C21.7366 89.9632 16.0268 89.47 13.2709 85.5294C-19.4594 38.731 18.1928 18.5345 37.8808 8.18968C53.6311 -0.0861812 71.8424 -0.185204 80.7021 2.27835C118.601 12.8167 136.32 67.3024 115.648 87.9927C108.921 93.2471 92.3179 100.111 75.7801 85.5294Z" fill="#EAEBEF"/>
</mask>
<g mask="url(#mask0)">
<path d="M74.0027 65.9837C42.8376 64.1098 29.6424 71.7186 26.9405 75.7572C24.8373 78.9012 24.6977 91.6383 24.9925 98.5348C51.0463 105.777 103.871 115.917 104.532 98.5348C105.163 81.9684 104.963 79.3655 101.1 75.7572C95.3366 70.3736 80.5643 66.576 74.0027 65.9837Z" fill="#0E6393"/>
<path d="M55.6089 104.916V66.3066H75.2367L75.7213 107.258L55.6089 104.916Z" fill="#3F475F"/>
<path d="M55.3554 66.4077C55.3554 66.4077 54.1087 77.0412 64.4119 77.9626C73.1993 78.7484 75.493 71.0343 76.1094 66.4077C74.1573 66.4074 76.1094 66.4075 74.1573 66.4077C74.5683 71.7504 69.9798 76.9522 65.7376 76.2413C61.5332 75.5303 56.7017 74.9974 57.2047 66.4077H55.3554Z" fill="#2F384E"/>
<path d="M49.3735 73.5672L56.3877 66.3066V110.978L50.9732 90.1804L53.1883 82.5506L49.3735 73.5672Z" fill="#0C5D8A" stroke="#005483" stroke-width="2" stroke-linecap="round" stroke-linejoin="round"/>
<path d="M81.7603 73.5672L74.7461 66.3066V110.978L80.1606 90.1804L77.9455 82.5506L81.7603 73.5672Z" fill="#0C5D8A" stroke="#005483" stroke-width="2" stroke-linecap="round" stroke-linejoin="round"/>
<path d="M92.5651 35.0121C93.2554 30.1795 88.538 28.9713 86.0931 28.9713C85.4458 33.3581 84.5397 42.0455 86.0931 41.7003C88.0348 41.2688 91.7023 41.053 92.5651 35.0121Z" fill="#F0C798"/>
<path d="M38.7977 35.0121C38.1074 30.1795 42.8248 28.9713 45.2697 28.9713C45.917 33.3581 46.8231 42.0455 45.2697 41.7003C43.328 41.2688 39.6605 41.053 38.7977 35.0121Z" fill="#F0C798"/>
<path d="M45.4425 49.1019C43.3388 43.5797 43.0322 24.6686 43.1418 15.9033C42.9387 2.78716 58.1772 -1.83323 65.8218 -2.50391C69.1088 -2.28477 76.3401 -1.38634 78.9697 0.454327C81.5993 2.29499 87.7351 1.22127 90.4742 0.454327C90.4742 4.13576 87.8515 9.78399 86.8585 12.6163C88.7768 12.0313 90.4742 8.08016 90.4742 10.9727C90.4742 13.8653 88.0638 18.3137 86.8585 20.1763C86.8585 20.1763 88.2903 36.6868 85.5903 48.8589C84.3952 52.2671 81.4679 58.1082 75.6828 62.5785C69.8976 67.0488 60.7817 64.4411 56.9469 62.5785C53.9886 60.3872 47.5462 54.6241 45.4425 49.1019Z" fill="#F0C798"/>
<path d="M57.1834 67.1579V61.3329H74.0115V67.1579C73.9396 70.3222 72.0265 76.5645 64.9501 76.2194C57.8737 75.8742 56.8238 70.0346 57.1834 67.1579Z" fill="#F0C798"/>
<path d="M90.4734 10.9727C90.4734 13.8653 88.0629 18.3137 86.8577 20.1763C88.9634 27.4642 87.3882 38.1226 86.8029 42.0825L86.7852 42.2026L86.8577 29.5077C85.5024 18.1434 77.9522 19.5792 74.3464 21.7176C72.9717 23.016 67.5645 24.8337 56.9334 21.7176C43.6445 17.8226 45.9357 28.3621 44.561 32.2571C43.4612 35.3731 43.8623 41.2757 44.3205 43.796C43.0189 38.9821 43.0033 23.0347 43.141 15.9033C42.9379 2.78716 58.1763 -1.83323 65.8209 -2.50391C69.1079 -2.28477 76.3393 -1.38634 78.9689 0.454327C81.5985 2.29499 87.7342 1.22127 90.4734 0.454327C90.4734 4.13576 88.0629 10.0962 86.8577 12.6163C89.9002 10.5111 90.4734 7.40448 90.4734 10.9727Z" fill="#FFAB00"/>
<path d="M53.0388 53.107C47.4252 53.3639 45.6062 47.5658 44.1128 42.6047C45.0832 50.4669 46.6611 54.4261 54.6426 61.1261C61.8953 67.2144 70.2226 65.6321 73.6594 63.8755L75.2164 62.9205L76.8565 61.716C78.5444 60.2129 82.1197 56.6214 83.5618 54.4261C84.4282 53.107 86.4752 50.1424 87.1218 38.1256C85.6374 50.258 82.4704 53.107 78.0127 53.107C69.0312 45.2253 57.6211 49.8229 53.0388 53.107Z" fill="#FFAB00"/>
<path d="M66.2635 49.9067C62.9163 49.7098 59.3721 52.1959 59.3721 54.5831C60.073 61.4073 64.2945 58.9313 66.2635 56.6751C72.243 62.7407 72.9088 55.6554 72.9088 54.5831C72.9088 53.1964 70.4476 50.1529 66.2635 49.9067Z" fill="#F0C798"/>
</g>
</svg>
