<svg width="434" height="400" viewBox="0 0 434 400" fill="none" xmlns="http://www.w3.org/2000/svg">
<circle cx="430.141" cy="395.477" r="3.55489" transform="rotate(-180 430.141 395.477)" fill="#CBE9EA"/>
<circle cx="430.141" cy="359.928" r="3.55489" transform="rotate(-180 430.141 359.928)" fill="#CBE9EA"/>
<circle cx="430.141" cy="324.379" r="3.55489" transform="rotate(-180 430.141 324.379)" fill="#CBE9EA"/>
<circle cx="430.141" cy="288.83" r="3.55489" transform="rotate(-180 430.141 288.83)" fill="#CBE9EA"/>
<circle cx="430.141" cy="253.281" r="3.55489" transform="rotate(-180 430.141 253.281)" fill="#CBE9EA"/>
<circle cx="430.141" cy="217.733" r="3.55489" transform="rotate(-180 430.141 217.733)" fill="#CBE9EA"/>
<circle cx="430.141" cy="182.183" r="3.55489" transform="rotate(-180 430.141 182.183)" fill="#CBE9EA"/>
<circle cx="430.141" cy="146.635" r="3.55489" transform="rotate(-180 430.141 146.635)" fill="#CBE9EA"/>
<circle cx="430.141" cy="111.086" r="3.55489" transform="rotate(-180 430.141 111.086)" fill="#CBE9EA"/>
<circle cx="430.141" cy="75.5367" r="3.55489" transform="rotate(-180 430.141 75.5367)" fill="#CBE9EA"/>
<circle cx="430.141" cy="39.988" r="3.55489" transform="rotate(-180 430.141 39.988)" fill="#CBE9EA"/>
<circle cx="430.141" cy="4.43913" r="3.55489" transform="rotate(-180 430.141 4.43913)" fill="#CBE9EA"/>
<circle cx="394.593" cy="395.477" r="3.55489" transform="rotate(-180 394.593 395.477)" fill="#CBE9EA"/>
<circle cx="394.593" cy="359.928" r="3.55489" transform="rotate(-180 394.593 359.928)" fill="#CBE9EA"/>
<circle cx="394.593" cy="324.379" r="3.55489" transform="rotate(-180 394.593 324.379)" fill="#CBE9EA"/>
<circle cx="394.593" cy="288.83" r="3.55489" transform="rotate(-180 394.593 288.83)" fill="#CBE9EA"/>
<circle cx="394.593" cy="253.281" r="3.55489" transform="rotate(-180 394.593 253.281)" fill="#CBE9EA"/>
<circle cx="394.593" cy="217.733" r="3.55489" transform="rotate(-180 394.593 217.733)" fill="#CBE9EA"/>
<circle cx="394.593" cy="182.183" r="3.55489" transform="rotate(-180 394.593 182.183)" fill="#CBE9EA"/>
<circle cx="394.593" cy="146.635" r="3.55489" transform="rotate(-180 394.593 146.635)" fill="#CBE9EA"/>
<circle cx="394.593" cy="111.086" r="3.55489" transform="rotate(-180 394.593 111.086)" fill="#CBE9EA"/>
<circle cx="394.593" cy="75.5367" r="3.55489" transform="rotate(-180 394.593 75.5367)" fill="#CBE9EA"/>
<circle cx="394.593" cy="39.988" r="3.55489" transform="rotate(-180 394.593 39.988)" fill="#CBE9EA"/>
<circle cx="359.044" cy="395.477" r="3.55489" transform="rotate(-180 359.044 395.477)" fill="#CBE9EA"/>
<circle cx="359.044" cy="359.928" r="3.55489" transform="rotate(-180 359.044 359.928)" fill="#CBE9EA"/>
<circle cx="359.044" cy="324.379" r="3.55489" transform="rotate(-180 359.044 324.379)" fill="#CBE9EA"/>
<circle cx="359.044" cy="288.83" r="3.55489" transform="rotate(-180 359.044 288.83)" fill="#CBE9EA"/>
<circle cx="359.044" cy="253.281" r="3.55489" transform="rotate(-180 359.044 253.281)" fill="#CBE9EA"/>
<circle cx="359.044" cy="217.733" r="3.55489" transform="rotate(-180 359.044 217.733)" fill="#CBE9EA"/>
<circle cx="359.044" cy="182.183" r="3.55489" transform="rotate(-180 359.044 182.183)" fill="#CBE9EA"/>
<circle cx="359.044" cy="146.635" r="3.55489" transform="rotate(-180 359.044 146.635)" fill="#CBE9EA"/>
<circle cx="359.044" cy="111.086" r="3.55489" transform="rotate(-180 359.044 111.086)" fill="#CBE9EA"/>
<circle cx="359.044" cy="75.5367" r="3.55489" transform="rotate(-180 359.044 75.5367)" fill="#CBE9EA"/>
<circle cx="323.495" cy="395.477" r="3.55489" transform="rotate(-180 323.495 395.477)" fill="#CBE9EA"/>
<circle cx="323.495" cy="359.928" r="3.55489" transform="rotate(-180 323.495 359.928)" fill="#CBE9EA"/>
<circle cx="323.495" cy="324.379" r="3.55489" transform="rotate(-180 323.495 324.379)" fill="#CBE9EA"/>
<circle cx="323.495" cy="288.83" r="3.55489" transform="rotate(-180 323.495 288.83)" fill="#CBE9EA"/>
<circle cx="323.495" cy="253.281" r="3.55489" transform="rotate(-180 323.495 253.281)" fill="#CBE9EA"/>
<circle cx="323.495" cy="217.733" r="3.55489" transform="rotate(-180 323.495 217.733)" fill="#CBE9EA"/>
<circle cx="323.495" cy="182.183" r="3.55489" transform="rotate(-180 323.495 182.183)" fill="#CBE9EA"/>
<circle cx="323.495" cy="146.635" r="3.55489" transform="rotate(-180 323.495 146.635)" fill="#CBE9EA"/>
<circle cx="323.495" cy="111.086" r="3.55489" transform="rotate(-180 323.495 111.086)" fill="#CBE9EA"/>
<circle cx="323.495" cy="75.5367" r="3.55489" transform="rotate(-180 323.495 75.5367)" fill="#CBE9EA"/>
<circle cx="287.946" cy="395.477" r="3.55489" transform="rotate(-180 287.946 395.477)" fill="#CBE9EA"/>
<circle cx="287.946" cy="359.928" r="3.55489" transform="rotate(-180 287.946 359.928)" fill="#CBE9EA"/>
<circle cx="287.946" cy="324.379" r="3.55489" transform="rotate(-180 287.946 324.379)" fill="#CBE9EA"/>
<circle cx="287.946" cy="288.83" r="3.55489" transform="rotate(-180 287.946 288.83)" fill="#CBE9EA"/>
<circle cx="287.946" cy="253.281" r="3.55489" transform="rotate(-180 287.946 253.281)" fill="#CBE9EA"/>
<circle cx="287.946" cy="217.733" r="3.55489" transform="rotate(-180 287.946 217.733)" fill="#CBE9EA"/>
<circle cx="287.946" cy="182.183" r="3.55489" transform="rotate(-180 287.946 182.183)" fill="#CBE9EA"/>
<circle cx="287.946" cy="146.635" r="3.55489" transform="rotate(-180 287.946 146.635)" fill="#CBE9EA"/>
<circle cx="287.946" cy="111.086" r="3.55489" transform="rotate(-180 287.946 111.086)" fill="#CBE9EA"/>
<circle cx="252.397" cy="395.477" r="3.55489" transform="rotate(-180 252.397 395.477)" fill="#CBE9EA"/>
<circle cx="252.397" cy="359.928" r="3.55489" transform="rotate(-180 252.397 359.928)" fill="#CBE9EA"/>
<circle cx="252.397" cy="324.379" r="3.55489" transform="rotate(-180 252.397 324.379)" fill="#CBE9EA"/>
<circle cx="252.397" cy="288.83" r="3.55489" transform="rotate(-180 252.397 288.83)" fill="#CBE9EA"/>
<circle cx="252.397" cy="253.281" r="3.55489" transform="rotate(-180 252.397 253.281)" fill="#CBE9EA"/>
<circle cx="252.397" cy="217.733" r="3.55489" transform="rotate(-180 252.397 217.733)" fill="#CBE9EA"/>
<circle cx="252.397" cy="182.183" r="3.55489" transform="rotate(-180 252.397 182.183)" fill="#CBE9EA"/>
<circle cx="252.397" cy="146.635" r="3.55489" transform="rotate(-180 252.397 146.635)" fill="#CBE9EA"/>
<circle cx="216.848" cy="395.477" r="3.55489" transform="rotate(-180 216.848 395.477)" fill="#CBE9EA"/>
<circle cx="216.848" cy="359.928" r="3.55489" transform="rotate(-180 216.848 359.928)" fill="#CBE9EA"/>
<circle cx="216.848" cy="324.379" r="3.55489" transform="rotate(-180 216.848 324.379)" fill="#CBE9EA"/>
<circle cx="216.848" cy="288.83" r="3.55489" transform="rotate(-180 216.848 288.83)" fill="#CBE9EA"/>
<circle cx="216.848" cy="253.281" r="3.55489" transform="rotate(-180 216.848 253.281)" fill="#CBE9EA"/>
<circle cx="216.848" cy="217.733" r="3.55489" transform="rotate(-180 216.848 217.733)" fill="#CBE9EA"/>
<circle cx="216.848" cy="182.183" r="3.55489" transform="rotate(-180 216.848 182.183)" fill="#CBE9EA"/>
<circle cx="181.299" cy="395.477" r="3.55489" transform="rotate(-180 181.299 395.477)" fill="#CBE9EA"/>
<circle cx="181.299" cy="359.928" r="3.55489" transform="rotate(-180 181.299 359.928)" fill="#CBE9EA"/>
<circle cx="181.299" cy="324.379" r="3.55489" transform="rotate(-180 181.299 324.379)" fill="#CBE9EA"/>
<circle cx="181.299" cy="288.83" r="3.55489" transform="rotate(-180 181.299 288.83)" fill="#CBE9EA"/>
<circle cx="181.299" cy="253.281" r="3.55489" transform="rotate(-180 181.299 253.281)" fill="#CBE9EA"/>
<circle cx="181.299" cy="217.733" r="3.55489" transform="rotate(-180 181.299 217.733)" fill="#CBE9EA"/>
<circle cx="145.75" cy="395.477" r="3.55489" transform="rotate(-180 145.75 395.477)" fill="#CBE9EA"/>
<circle cx="145.75" cy="359.928" r="3.55489" transform="rotate(-180 145.75 359.928)" fill="#CBE9EA"/>
<circle cx="145.75" cy="324.379" r="3.55489" transform="rotate(-180 145.75 324.379)" fill="#CBE9EA"/>
<circle cx="145.75" cy="288.83" r="3.55489" transform="rotate(-180 145.75 288.83)" fill="#CBE9EA"/>
<circle cx="145.75" cy="253.281" r="3.55489" transform="rotate(-180 145.75 253.281)" fill="#CBE9EA"/>
<circle cx="110.201" cy="395.477" r="3.55489" transform="rotate(-180 110.201 395.477)" fill="#CBE9EA"/>
<circle cx="110.201" cy="359.928" r="3.55489" transform="rotate(-180 110.201 359.928)" fill="#CBE9EA"/>
<circle cx="110.201" cy="324.379" r="3.55489" transform="rotate(-180 110.201 324.379)" fill="#CBE9EA"/>
<circle cx="110.201" cy="288.83" r="3.55489" transform="rotate(-180 110.201 288.83)" fill="#CBE9EA"/>
<circle cx="74.6531" cy="395.477" r="3.55489" transform="rotate(-180 74.6531 395.477)" fill="#CBE9EA"/>
<circle cx="74.6531" cy="359.928" r="3.55489" transform="rotate(-180 74.6531 359.928)" fill="#CBE9EA"/>
<circle cx="74.6531" cy="324.379" r="3.55489" transform="rotate(-180 74.6531 324.379)" fill="#CBE9EA"/>
<circle cx="39.1033" cy="395.477" r="3.55489" transform="rotate(-180 39.1033 395.477)" fill="#CBE9EA"/>
<circle cx="39.1033" cy="359.928" r="3.55489" transform="rotate(-180 39.1033 359.928)" fill="#CBE9EA"/>
<circle cx="3.55449" cy="395.477" r="3.55489" transform="rotate(-180 3.55449 395.477)" fill="#CBE9EA"/>
</svg>
