<svg width="434" height="400" viewBox="0 0 434 400" fill="none" xmlns="http://www.w3.org/2000/svg">
<circle cx="3.55489" cy="4.43917" r="3.55489" fill="#CBE9EA"/>
<circle cx="3.55489" cy="39.988" r="3.55489" fill="#CBE9EA"/>
<circle cx="3.55489" cy="75.5371" r="3.55489" fill="#CBE9EA"/>
<circle cx="3.55489" cy="111.086" r="3.55489" fill="#CBE9EA"/>
<circle cx="3.55489" cy="146.635" r="3.55489" fill="#CBE9EA"/>
<circle cx="3.55489" cy="182.183" r="3.55489" fill="#CBE9EA"/>
<circle cx="3.55489" cy="217.733" r="3.55489" fill="#CBE9EA"/>
<circle cx="3.55489" cy="253.281" r="3.55489" fill="#CBE9EA"/>
<circle cx="3.55489" cy="288.83" r="3.55489" fill="#CBE9EA"/>
<circle cx="3.55489" cy="324.379" r="3.55489" fill="#CBE9EA"/>
<circle cx="3.55489" cy="359.928" r="3.55489" fill="#CBE9EA"/>
<circle cx="3.55489" cy="395.477" r="3.55489" fill="#CBE9EA"/>
<circle cx="39.1037" cy="4.43917" r="3.55489" fill="#CBE9EA"/>
<circle cx="39.1037" cy="39.988" r="3.55489" fill="#CBE9EA"/>
<circle cx="39.1037" cy="75.5371" r="3.55489" fill="#CBE9EA"/>
<circle cx="39.1037" cy="111.086" r="3.55489" fill="#CBE9EA"/>
<circle cx="39.1037" cy="146.635" r="3.55489" fill="#CBE9EA"/>
<circle cx="39.1037" cy="182.183" r="3.55489" fill="#CBE9EA"/>
<circle cx="39.1037" cy="217.733" r="3.55489" fill="#CBE9EA"/>
<circle cx="39.1037" cy="253.281" r="3.55489" fill="#CBE9EA"/>
<circle cx="39.1037" cy="288.83" r="3.55489" fill="#CBE9EA"/>
<circle cx="39.1037" cy="324.379" r="3.55489" fill="#CBE9EA"/>
<circle cx="39.1037" cy="359.928" r="3.55489" fill="#CBE9EA"/>
<circle cx="74.6525" cy="4.43917" r="3.55489" fill="#CBE9EA"/>
<circle cx="74.6525" cy="39.988" r="3.55489" fill="#CBE9EA"/>
<circle cx="74.6525" cy="75.5371" r="3.55489" fill="#CBE9EA"/>
<circle cx="74.6525" cy="111.086" r="3.55489" fill="#CBE9EA"/>
<circle cx="74.6525" cy="146.635" r="3.55489" fill="#CBE9EA"/>
<circle cx="74.6525" cy="182.183" r="3.55489" fill="#CBE9EA"/>
<circle cx="74.6525" cy="217.733" r="3.55489" fill="#CBE9EA"/>
<circle cx="74.6525" cy="253.281" r="3.55489" fill="#CBE9EA"/>
<circle cx="74.6525" cy="288.83" r="3.55489" fill="#CBE9EA"/>
<circle cx="74.6525" cy="324.379" r="3.55489" fill="#CBE9EA"/>
<circle cx="110.201" cy="4.43917" r="3.55489" fill="#CBE9EA"/>
<circle cx="110.201" cy="39.988" r="3.55489" fill="#CBE9EA"/>
<circle cx="110.201" cy="75.5371" r="3.55489" fill="#CBE9EA"/>
<circle cx="110.201" cy="111.086" r="3.55489" fill="#CBE9EA"/>
<circle cx="110.201" cy="146.635" r="3.55489" fill="#CBE9EA"/>
<circle cx="110.201" cy="182.183" r="3.55489" fill="#CBE9EA"/>
<circle cx="110.201" cy="217.733" r="3.55489" fill="#CBE9EA"/>
<circle cx="110.201" cy="253.281" r="3.55489" fill="#CBE9EA"/>
<circle cx="110.201" cy="288.83" r="3.55489" fill="#CBE9EA"/>
<circle cx="110.201" cy="324.379" r="3.55489" fill="#CBE9EA"/>
<circle cx="145.751" cy="4.43917" r="3.55489" fill="#CBE9EA"/>
<circle cx="145.751" cy="39.988" r="3.55489" fill="#CBE9EA"/>
<circle cx="145.751" cy="75.5371" r="3.55489" fill="#CBE9EA"/>
<circle cx="145.751" cy="111.086" r="3.55489" fill="#CBE9EA"/>
<circle cx="145.751" cy="146.635" r="3.55489" fill="#CBE9EA"/>
<circle cx="145.751" cy="182.183" r="3.55489" fill="#CBE9EA"/>
<circle cx="145.751" cy="217.733" r="3.55489" fill="#CBE9EA"/>
<circle cx="145.751" cy="253.281" r="3.55489" fill="#CBE9EA"/>
<circle cx="145.751" cy="288.83" r="3.55489" fill="#CBE9EA"/>
<circle cx="181.3" cy="4.43917" r="3.55489" fill="#CBE9EA"/>
<circle cx="181.3" cy="39.988" r="3.55489" fill="#CBE9EA"/>
<circle cx="181.3" cy="75.5371" r="3.55489" fill="#CBE9EA"/>
<circle cx="181.3" cy="111.086" r="3.55489" fill="#CBE9EA"/>
<circle cx="181.3" cy="146.635" r="3.55489" fill="#CBE9EA"/>
<circle cx="181.3" cy="182.183" r="3.55489" fill="#CBE9EA"/>
<circle cx="181.3" cy="217.733" r="3.55489" fill="#CBE9EA"/>
<circle cx="181.3" cy="253.281" r="3.55489" fill="#CBE9EA"/>
<circle cx="216.848" cy="4.43917" r="3.55489" fill="#CBE9EA"/>
<circle cx="216.848" cy="39.988" r="3.55489" fill="#CBE9EA"/>
<circle cx="216.848" cy="75.5371" r="3.55489" fill="#CBE9EA"/>
<circle cx="216.848" cy="111.086" r="3.55489" fill="#CBE9EA"/>
<circle cx="216.848" cy="146.635" r="3.55489" fill="#CBE9EA"/>
<circle cx="216.848" cy="182.183" r="3.55489" fill="#CBE9EA"/>
<circle cx="216.848" cy="217.733" r="3.55489" fill="#CBE9EA"/>
<circle cx="252.397" cy="4.43917" r="3.55489" fill="#CBE9EA"/>
<circle cx="252.397" cy="39.988" r="3.55489" fill="#CBE9EA"/>
<circle cx="252.397" cy="75.5371" r="3.55489" fill="#CBE9EA"/>
<circle cx="252.397" cy="111.086" r="3.55489" fill="#CBE9EA"/>
<circle cx="252.397" cy="146.635" r="3.55489" fill="#CBE9EA"/>
<circle cx="252.397" cy="182.183" r="3.55489" fill="#CBE9EA"/>
<circle cx="287.946" cy="4.43917" r="3.55489" fill="#CBE9EA"/>
<circle cx="287.946" cy="39.988" r="3.55489" fill="#CBE9EA"/>
<circle cx="287.946" cy="75.5371" r="3.55489" fill="#CBE9EA"/>
<circle cx="287.946" cy="111.086" r="3.55489" fill="#CBE9EA"/>
<circle cx="287.946" cy="146.635" r="3.55489" fill="#CBE9EA"/>
<circle cx="323.495" cy="4.43917" r="3.55489" fill="#CBE9EA"/>
<circle cx="323.495" cy="39.988" r="3.55489" fill="#CBE9EA"/>
<circle cx="323.495" cy="75.5371" r="3.55489" fill="#CBE9EA"/>
<circle cx="323.495" cy="111.086" r="3.55489" fill="#CBE9EA"/>
<circle cx="359.043" cy="4.43917" r="3.55489" fill="#CBE9EA"/>
<circle cx="359.043" cy="39.988" r="3.55489" fill="#CBE9EA"/>
<circle cx="359.043" cy="75.5371" r="3.55489" fill="#CBE9EA"/>
<circle cx="394.593" cy="4.43917" r="3.55489" fill="#CBE9EA"/>
<circle cx="394.593" cy="39.988" r="3.55489" fill="#CBE9EA"/>
<circle cx="430.142" cy="4.43917" r="3.55489" fill="#CBE9EA"/>
</svg>
